ISO-10303-21;
HEADER;
/* Generated by software containing ST-Developer
 * from STEP Tools, Inc. (www.steptools.com) 
 */
/* OPTION: using custom renumber hook */

FILE_DESCRIPTION(
/* description */ ('STEP AP242 Edition 2',
'CAx-IF Rec.Pracs.---Representation and Presentation of Product Manufa
cturing Information (PMI)---4.0---2014-10-13',
'CAx-IF Rec.Pracs.---3D Tessellated Geometry---0.4---2014-09-14','2;1',
'CAx-IF Rec.Pracs.---User Defined Attributes---1.5---2016-08-15'),
/* implementation_level */ '2;1');

FILE_NAME(
/* name */ 
'Housing-Front____Master-Open-Flight-Monitor_-_Fillet19_ - camera prot
ector',
/* time_stamp */ '2026-09-10T17:30:57Z',
/* author */ (''),
/* organization */ (''),
/* preprocessor_version */ 'ST-DEVELOPER v20',
/* originating_system */ 'ONSHAPE BY PTC INC, 1.220',
/* authorisation */ '  ');

FILE_SCHEMA (('AP242_MANAGED_MODEL_BASED_3D_ENGINEERING_MIM_LF { 1 0 10303 442 3 1 4 }'));
ENDSEC;

DATA;
#10=SHAPE_REPRESENTATION_RELATIONSHIP('','',#229,#11);
#11=ADVANCED_BREP_SHAPE_REPRESENTATION('',(#227),#666);
#12=(
BOUNDED_SURFACE()
B_SPLINE_SURFACE(2,3,((#526,#527,#528,#529,#530,#531,#532,#533,#534,#535,
#536,#537,#538),(#539,#540,#541,#542,#543,#544,#545,#546,#547,#548,#549,
#550,#551),(#552,#553,#554,#555,#556,#557,#558,#559,#560,#561,#562,#563,
#564)),.UNSPECIFIED.,.F.,.F.,.F.)
B_SPLINE_SURFACE_WITH_KNOTS((3,3),(4,3,3,3,4),(0.,1.),(0.0604293673400282,
0.218242974993146,0.928220491340279,0.928931179544826,0.938306523881664),
 .PIECEWISE_BEZIER_KNOTS.)
GEOMETRIC_REPRESENTATION_ITEM()
RATIONAL_B_SPLINE_SURFACE(((1.,1.,1.,1.,1.,1.,1.,1.,1.,1.,1.,1.,1.),(0.707106781186548,
0.707106781186548,0.707106781186548,0.707106781186548,0.707106781186548,
0.707106781186548,0.707106781186548,0.707106781186548,0.707106781186548,
0.707106781186548,0.707106781186548,0.707106781186548,0.707106781186548),
(1.,1.,1.,1.,1.,1.,1.,1.,1.,1.,1.,1.,1.)))
REPRESENTATION_ITEM('')
SURFACE()
);
#13=(
BOUNDED_SURFACE()
B_SPLINE_SURFACE(2,3,((#569,#570,#571,#572,#573,#574,#575,#576,#577,#578,
#579,#580,#581),(#582,#583,#584,#585,#586,#587,#588,#589,#590,#591,#592,
#593,#594),(#595,#596,#597,#598,#599,#600,#601,#602,#603,#604,#605,#606,
#607)),.UNSPECIFIED.,.F.,.F.,.F.)
B_SPLINE_SURFACE_WITH_KNOTS((3,3),(4,3,3,3,4),(0.,1.),(0.060423423121864,
0.218242974993148,0.925797768186655,0.928931179544827,0.938306559334257),
 .PIECEWISE_BEZIER_KNOTS.)
GEOMETRIC_REPRESENTATION_ITEM()
RATIONAL_B_SPLINE_SURFACE(((1.,1.,1.,1.,1.,1.,1.,1.,1.,1.,1.,1.,1.),(0.707106781186548,
0.707106781186548,0.707106781186548,0.707106781186548,0.707106781186548,
0.707106781186548,0.707106781186548,0.707106781186548,0.707106781186548,
0.707106781186548,0.707106781186548,0.707106781186548,0.707106781186548),
(1.,1.,1.,1.,1.,1.,1.,1.,1.,1.,1.,1.,1.)))
REPRESENTATION_ITEM('')
SURFACE()
);
#14=(
BOUNDED_SURFACE()
B_SPLINE_SURFACE(3,2,((#608,#609,#610),(#611,#612,#613),(#614,#615,#616),
(#617,#618,#619),(#620,#621,#622),(#623,#624,#625),(#626,#627,#628),(#629,
#630,#631),(#632,#633,#634),(#635,#636,#637),(#638,#639,#640),(#641,#642,
#643),(#644,#645,#646),(#647,#648,#649),(#650,#651,#652),(#653,#654,#655),
(#656,#657,#658),(#659,#660,#661),(#662,#663,#664)),.UNSPECIFIED.,.T.,.F.,
 .F.)
B_SPLINE_SURFACE_WITH_KNOTS((1,3,1,1,1,1,1,1,1,1,1,1,1,1,1,1,1,3,1),(3,
3),(-0.392699081698725,0.,0.392699081698724,0.785398163397448,1.17809724509617,
1.5707963267949,1.96349540849362,2.35619449019234,2.74889357189107,3.14159265358979,
3.53429173528852,3.92699081698724,4.31968989868597,4.71238898038469,5.10508806208341,
5.49778714378214,5.89048622548086,6.28318530717959,6.67588438887831),(0.,
1.),.UNSPECIFIED.)
GEOMETRIC_REPRESENTATION_ITEM()
RATIONAL_B_SPLINE_SURFACE(((1.,0.642787609686537,1.),(1.,0.642787609686536,
1.),(1.,0.646318604568463,1.),(1.,0.66115251098857,1.),(1.,0.682711940226877,
1.),(1.,0.707250750941698,1.),(1.,0.730925743125616,1.),(1.,0.750386374261505,
1.),(1.,0.763102190597967,1.),(1.,0.767515569379486,1.),(1.,0.763102190597967,
1.),(1.,0.750386374261505,1.),(1.,0.730925743125616,1.),(1.,0.707250750941698,
1.),(1.,0.682711940226878,1.),(1.,0.661152510988568,1.),(1.,0.646318604568471,
1.),(1.,0.642787609686539,1.),(1.,0.642787609686537,1.)))
REPRESENTATION_ITEM('')
SURFACE()
);
#15=ELLIPSE('',#236,0.00815588054928387,0.008);
#16=ELLIPSE('',#243,0.00913883950697171,0.009);
#17=CYLINDRICAL_SURFACE('',#235,0.008);
#18=CYLINDRICAL_SURFACE('',#244,0.004);
#19=CIRCLE('',#233,0.004);
#20=CIRCLE('',#237,0.008);
#21=CIRCLE('',#239,0.004);
#22=B_SPLINE_CURVE_WITH_KNOTS('',3,(#299,#300,#301,#302,#303,#304,#305,
#306,#307,#308,#309,#310,#311,#312,#313,#314,#315,#316,#317),
 .UNSPECIFIED.,.F.,.F.,(4,3,3,3,3,3,4),(-1.66097756751908,0.,0.218242974993148,
0.925797768186655,0.928931179544827,1.,2.65553701092078),
 .PIECEWISE_BEZIER_KNOTS.);
#23=B_SPLINE_CURVE_WITH_KNOTS('',3,(#324,#325,#326,#327,#328,#329,#330,
#331,#332,#333,#334,#335,#336,#337),.UNSPECIFIED.,.F.,.F.,(4,1,1,1,1,1,
1,1,1,1,1,4),(8.32667268468867E-17,7.73823338664593E-5,0.000154764667732835,
0.000193455834666023,0.000232147001599211,0.000309529335465587,0.000464294003198339,
0.000619058670931091,0.000928588006396595,0.0012381173418621,0.00185717601279311,
0.00247623468372412),.UNSPECIFIED.);
#24=B_SPLINE_CURVE_WITH_KNOTS('',3,(#339,#340,#341,#342,#343,#344,#345,
#346,#347,#348,#349,#350,#351,#352,#353,#354,#355,#356,#357,#358,#359,#360,
#361,#362),.UNSPECIFIED.,.F.,.F.,(4,1,1,1,1,1,1,1,1,1,1,1,1,1,1,1,1,1,1,
1,1,4),(8.33220479555351E-17,0.00211227694182887,0.00422455388365765,0.00633683082548644,
0.00844910776731523,0.00950524623822962,0.010561384709144,0.0116175231800584,
0.0126736616509728,0.0137298001218872,0.0142578693573444,0.0147859385928016,
0.0153140078282588,0.015842077063716,0.0161061116814446,0.0163701462991732,
0.0165021636080375,0.0166341809169018,0.0167661982257661,0.0168322068801982,
0.0168652112074143,0.0168982155346304),.UNSPECIFIED.);
#25=B_SPLINE_CURVE_WITH_KNOTS('',3,(#371,#372,#373,#374,#375,#376,#377,
#378,#379,#380,#381,#382,#383,#384,#385,#386,#387,#388,#389),
 .UNSPECIFIED.,.F.,.F.,(4,3,3,3,3,3,4),(-1.66095984120357,0.,0.218242974993146,
0.928220491340279,0.928931179544826,1.,2.6555251933771),
 .PIECEWISE_BEZIER_KNOTS.);
#26=B_SPLINE_CURVE_WITH_KNOTS('',3,(#396,#397,#398,#399,#400,#401,#402,
#403,#404,#405,#406,#407,#408),.UNSPECIFIED.,.F.,.F.,(4,1,1,1,1,1,1,1,1,
1,4),(0.,0.000625554603725174,0.00125110920745035,0.0025022184149007,0.00375332762235105,
0.0050044368298014,0.00625554603725174,0.00750665524470209,0.00875776445215244,
0.00938331905587762,0.0100088736596028),.UNSPECIFIED.);
#27=B_SPLINE_CURVE_WITH_KNOTS('',3,(#414,#415,#416,#417,#418),
 .UNSPECIFIED.,.F.,.F.,(4,1,4),(0.,0.000705499674935359,0.00141099934987072),
 .UNSPECIFIED.);
#28=B_SPLINE_CURVE_WITH_KNOTS('',3,(#422,#423,#424,#425,#426),
 .UNSPECIFIED.,.F.,.F.,(4,1,4),(1.38777878078145E-17,0.000700865660468826,
0.00140173132093764),.UNSPECIFIED.);
#29=B_SPLINE_CURVE_WITH_KNOTS('',3,(#428,#429,#430,#431,#432,#433,#434,
#435,#436,#437,#438,#439,#440,#441,#442,#443,#444,#445,#446,#447,#448,#449,
#450,#451,#452,#453),.UNSPECIFIED.,.F.,.F.,(4,1,1,1,1,1,1,1,1,1,1,1,1,1,
1,1,1,1,1,1,1,1,1,4),(1.96261557335472E-16,4.01460014092791E-5,8.02920028183619E-5,
0.000160584005636527,0.000240876008454693,0.000321168011272859,0.00048175201690919,
0.000642336022545521,0.000963504033818184,0.00128467204509085,0.00160584005636351,
0.00192700806763617,0.0025693440901815,0.00321168011272682,0.00385401613527215,
0.00513868818036279,0.00642336022545344,0.00770803227054409,0.00899270431563474,
0.0102773763607254,0.0128467204509067,0.015416064541088,0.0179854086312693,
0.0205547527214506),.UNSPECIFIED.);
#30=B_SPLINE_CURVE_WITH_KNOTS('',3,(#455,#456,#457,#458,#459,#460,#461,
#462,#463,#464,#465,#466,#467,#468,#469,#470),.UNSPECIFIED.,.F.,.F.,(4,
1,1,1,1,1,1,1,1,1,1,1,1,4),(0.,0.00113910614627949,0.00170865921941923,
0.00227821229255898,0.00284776536569872,0.00341731843883846,0.00370209497540834,
0.00398687151197821,0.00412925978026315,0.00427164804854808,0.00441403631683302,
0.00448523045097549,0.00452082751804672,0.00455642458511795),
 .UNSPECIFIED.);
#31=B_SPLINE_CURVE_WITH_KNOTS('',3,(#473,#474,#475,#476,#477,#478,#479,
#480,#481,#482,#483,#484,#485,#486,#487,#488,#489,#490,#491),
 .UNSPECIFIED.,.F.,.F.,(4,3,3,3,3,3,4),(-1.66097756751908,0.,0.218242974993148,
0.925797768186655,0.928931179544827,1.,2.65553701092078),
 .PIECEWISE_BEZIER_KNOTS.);
#32=B_SPLINE_CURVE_WITH_KNOTS('',3,(#492,#493,#494,#495,#496,#497,#498,
#499,#500,#501,#502,#503,#504,#505,#506,#507,#508,#509,#510),
 .UNSPECIFIED.,.F.,.F.,(4,3,3,3,3,3,4),(-1.66095984120357,0.,0.218242974993146,
0.928220491340279,0.928931179544826,1.,2.6555251933771),
 .PIECEWISE_BEZIER_KNOTS.);
#33=B_SPLINE_CURVE_WITH_KNOTS('',3,(#512,#513,#514,#515,#516,#517,#518),
 .UNSPECIFIED.,.F.,.F.,(4,1,1,1,4),(0.,0.00145833716387011,0.00291667432774023,
0.00437501149161034,0.00583334865548046),.UNSPECIFIED.);
#34=B_SPLINE_CURVE_WITH_KNOTS('',3,(#519,#520,#521,#522,#523,#524,#525),
 .UNSPECIFIED.,.F.,.F.,(4,1,1,1,4),(0.,0.00145859362253115,0.0029171872450623,
0.00437578086759345,0.00583437449012461),.UNSPECIFIED.);
#35=B_SPLINE_CURVE_WITH_KNOTS('',3,(#565,#566,#567,#568),.UNSPECIFIED.,
 .F.,.F.,(4,4),(0.00140003192639253,0.00200153671003707),.UNSPECIFIED.);
#36=ORIENTED_EDGE('',*,*,#96,.F.);
#37=ORIENTED_EDGE('',*,*,#97,.T.);
#38=ORIENTED_EDGE('',*,*,#98,.T.);
#39=ORIENTED_EDGE('',*,*,#99,.T.);
#40=ORIENTED_EDGE('',*,*,#100,.F.);
#41=ORIENTED_EDGE('',*,*,#101,.T.);
#42=ORIENTED_EDGE('',*,*,#102,.T.);
#43=ORIENTED_EDGE('',*,*,#96,.T.);
#44=ORIENTED_EDGE('',*,*,#103,.F.);
#45=ORIENTED_EDGE('',*,*,#104,.T.);
#46=ORIENTED_EDGE('',*,*,#105,.T.);
#47=ORIENTED_EDGE('',*,*,#106,.T.);
#48=ORIENTED_EDGE('',*,*,#107,.F.);
#49=ORIENTED_EDGE('',*,*,#108,.T.);
#50=ORIENTED_EDGE('',*,*,#109,.T.);
#51=ORIENTED_EDGE('',*,*,#110,.T.);
#52=ORIENTED_EDGE('',*,*,#98,.F.);
#53=ORIENTED_EDGE('',*,*,#111,.F.);
#54=ORIENTED_EDGE('',*,*,#112,.T.);
#55=ORIENTED_EDGE('',*,*,#113,.F.);
#56=ORIENTED_EDGE('',*,*,#114,.F.);
#57=ORIENTED_EDGE('',*,*,#115,.T.);
#58=ORIENTED_EDGE('',*,*,#116,.T.);
#59=ORIENTED_EDGE('',*,*,#117,.T.);
#60=ORIENTED_EDGE('',*,*,#107,.T.);
#61=ORIENTED_EDGE('',*,*,#118,.T.);
#62=ORIENTED_EDGE('',*,*,#119,.T.);
#63=ORIENTED_EDGE('',*,*,#100,.T.);
#64=ORIENTED_EDGE('',*,*,#99,.F.);
#65=ORIENTED_EDGE('',*,*,#110,.F.);
#66=ORIENTED_EDGE('',*,*,#114,.T.);
#67=ORIENTED_EDGE('',*,*,#120,.T.);
#68=ORIENTED_EDGE('',*,*,#111,.T.);
#69=ORIENTED_EDGE('',*,*,#121,.T.);
#70=ORIENTED_EDGE('',*,*,#103,.T.);
#71=ORIENTED_EDGE('',*,*,#122,.T.);
#72=ORIENTED_EDGE('',*,*,#102,.F.);
#73=ORIENTED_EDGE('',*,*,#123,.T.);
#74=ORIENTED_EDGE('',*,*,#116,.F.);
#75=ORIENTED_EDGE('',*,*,#124,.T.);
#76=ORIENTED_EDGE('',*,*,#108,.F.);
#77=ORIENTED_EDGE('',*,*,#97,.F.);
#78=ORIENTED_EDGE('',*,*,#122,.F.);
#79=ORIENTED_EDGE('',*,*,#105,.F.);
#80=ORIENTED_EDGE('',*,*,#125,.F.);
#81=ORIENTED_EDGE('',*,*,#118,.F.);
#82=ORIENTED_EDGE('',*,*,#109,.F.);
#83=ORIENTED_EDGE('',*,*,#124,.F.);
#84=ORIENTED_EDGE('',*,*,#115,.F.);
#85=ORIENTED_EDGE('',*,*,#123,.F.);
#86=ORIENTED_EDGE('',*,*,#101,.F.);
#87=ORIENTED_EDGE('',*,*,#119,.F.);
#88=ORIENTED_EDGE('',*,*,#125,.T.);
#89=ORIENTED_EDGE('',*,*,#104,.F.);
#90=ORIENTED_EDGE('',*,*,#121,.F.);
#91=ORIENTED_EDGE('',*,*,#117,.F.);
#92=ORIENTED_EDGE('',*,*,#106,.F.);
#93=ORIENTED_EDGE('',*,*,#112,.F.);
#94=ORIENTED_EDGE('',*,*,#120,.F.);
#95=ORIENTED_EDGE('',*,*,#113,.T.);
#96=EDGE_CURVE('',#126,#127,#147,.T.);
#97=EDGE_CURVE('',#126,#128,#148,.F.);
#98=EDGE_CURVE('',#128,#129,#149,.T.);
#99=EDGE_CURVE('',#129,#127,#150,.T.);
#100=EDGE_CURVE('',#130,#127,#151,.T.);
#101=EDGE_CURVE('',#130,#131,#22,.F.);
#102=EDGE_CURVE('',#131,#126,#19,.T.);
#103=EDGE_CURVE('',#132,#133,#152,.T.);
#104=EDGE_CURVE('',#132,#134,#23,.T.);
#105=EDGE_CURVE('',#134,#133,#24,.T.);
#106=EDGE_CURVE('',#135,#135,#15,.T.);
#107=EDGE_CURVE('',#136,#136,#20,.T.);
#108=EDGE_CURVE('',#128,#137,#21,.F.);
#109=EDGE_CURVE('',#137,#138,#25,.T.);
#110=EDGE_CURVE('',#138,#129,#153,.T.);
#111=EDGE_CURVE('',#139,#140,#154,.T.);
#112=EDGE_CURVE('',#139,#141,#26,.T.);
#113=EDGE_CURVE('',#142,#141,#155,.T.);
#114=EDGE_CURVE('',#143,#142,#156,.T.);
#115=EDGE_CURVE('',#143,#144,#27,.T.);
#116=EDGE_CURVE('',#144,#145,#157,.T.);
#117=EDGE_CURVE('',#145,#140,#28,.T.);
#118=EDGE_CURVE('',#138,#146,#29,.T.);
#119=EDGE_CURVE('',#146,#130,#30,.T.);
#120=EDGE_CURVE('',#142,#139,#16,.T.);
#121=EDGE_CURVE('',#140,#132,#31,.T.);
#122=EDGE_CURVE('',#133,#143,#32,.F.);
#123=EDGE_CURVE('',#131,#145,#33,.T.);
#124=EDGE_CURVE('',#144,#137,#34,.T.);
#125=EDGE_CURVE('',#146,#134,#35,.F.);
#126=VERTEX_POINT('',#289);
#127=VERTEX_POINT('',#290);
#128=VERTEX_POINT('',#292);
#129=VERTEX_POINT('',#294);
#130=VERTEX_POINT('',#298);
#131=VERTEX_POINT('',#318);
#132=VERTEX_POINT('',#322);
#133=VERTEX_POINT('',#323);
#134=VERTEX_POINT('',#338);
#135=VERTEX_POINT('',#365);
#136=VERTEX_POINT('',#367);
#137=VERTEX_POINT('',#370);
#138=VERTEX_POINT('',#390);
#139=VERTEX_POINT('',#394);
#140=VERTEX_POINT('',#395);
#141=VERTEX_POINT('',#409);
#142=VERTEX_POINT('',#411);
#143=VERTEX_POINT('',#413);
#144=VERTEX_POINT('',#419);
#145=VERTEX_POINT('',#421);
#146=VERTEX_POINT('',#454);
#147=LINE('',#288,#158);
#148=LINE('',#291,#159);
#149=LINE('',#293,#160);
#150=LINE('',#295,#161);
#151=LINE('',#297,#162);
#152=LINE('',#321,#163);
#153=LINE('',#391,#164);
#154=LINE('',#393,#165);
#155=LINE('',#410,#166);
#156=LINE('',#412,#167);
#157=LINE('',#420,#168);
#158=VECTOR('',#249,1.);
#159=VECTOR('',#250,1.);
#160=VECTOR('',#251,1.);
#161=VECTOR('',#252,1.);
#162=VECTOR('',#255,1.);
#163=VECTOR('',#260,1.);
#164=VECTOR('',#271,1.);
#165=VECTOR('',#274,1.);
#166=VECTOR('',#275,1.);
#167=VECTOR('',#276,1.);
#168=VECTOR('',#277,1.);
#169=EDGE_LOOP('',(#36,#37,#38,#39));
#170=EDGE_LOOP('',(#40,#41,#42,#43));
#171=EDGE_LOOP('',(#44,#45,#46));
#172=EDGE_LOOP('',(#47));
#173=EDGE_LOOP('',(#48));
#174=EDGE_LOOP('',(#49,#50,#51,#52));
#175=EDGE_LOOP('',(#53,#54,#55,#56,#57,#58,#59));
#176=EDGE_LOOP('',(#60));
#177=EDGE_LOOP('',(#61,#62,#63,#64,#65));
#178=EDGE_LOOP('',(#66,#67,#68,#69,#70,#71));
#179=EDGE_LOOP('',(#72,#73,#74,#75,#76,#77));
#180=EDGE_LOOP('',(#78,#79,#80,#81,#82,#83,#84));
#181=EDGE_LOOP('',(#85,#86,#87,#88,#89,#90,#91));
#182=EDGE_LOOP('',(#92));
#183=EDGE_LOOP('',(#93,#94,#95));
#184=FACE_BOUND('',#169,.T.);
#185=FACE_BOUND('',#170,.T.);
#186=FACE_BOUND('',#171,.T.);
#187=FACE_BOUND('',#172,.T.);
#188=FACE_BOUND('',#173,.T.);
#189=FACE_BOUND('',#174,.T.);
#190=FACE_BOUND('',#175,.T.);
#191=FACE_BOUND('',#176,.T.);
#192=FACE_BOUND('',#177,.T.);
#193=FACE_BOUND('',#178,.T.);
#194=FACE_BOUND('',#179,.T.);
#195=FACE_BOUND('',#180,.T.);
#196=FACE_BOUND('',#181,.T.);
#197=FACE_BOUND('',#182,.T.);
#198=FACE_BOUND('',#183,.T.);
#199=PLANE('',#231);
#200=PLANE('',#232);
#201=PLANE('',#234);
#202=PLANE('',#238);
#203=PLANE('',#240);
#204=PLANE('',#241);
#205=PLANE('',#242);
#206=ADVANCED_FACE('',(#184),#199,.F.);
#207=ADVANCED_FACE('',(#185),#200,.T.);
#208=ADVANCED_FACE('',(#186),#201,.T.);
#209=ADVANCED_FACE('',(#187,#188),#17,.F.);
#210=ADVANCED_FACE('',(#189),#202,.F.);
#211=ADVANCED_FACE('',(#190),#203,.T.);
#212=ADVANCED_FACE('',(#191,#192),#204,.F.);
#213=ADVANCED_FACE('',(#193),#205,.F.);
#214=ADVANCED_FACE('',(#194),#18,.T.);
#215=ADVANCED_FACE('',(#195),#12,.T.);
#216=ADVANCED_FACE('',(#196),#13,.T.);
#217=ADVANCED_FACE('',(#197,#198),#14,.T.);
#218=CLOSED_SHELL('',(#206,#207,#208,#209,#210,#211,#212,#213,#214,#215,
#216,#217));
#219=STYLED_ITEM('',(#220),#227);
#220=PRESENTATION_STYLE_ASSIGNMENT((#221));
#221=SURFACE_STYLE_USAGE(.BOTH.,#222);
#222=SURFACE_SIDE_STYLE('',(#223));
#223=SURFACE_STYLE_FILL_AREA(#224);
#224=FILL_AREA_STYLE('',(#225));
#225=FILL_AREA_STYLE_COLOUR('',#226);
#226=COLOUR_RGB('',0.498039215686275,0.498039215686275,0.498039215686275);
#227=MANIFOLD_SOLID_BREP('camera protector',#218);
#228=SHAPE_DEFINITION_REPRESENTATION(#671,#229);
#229=SHAPE_REPRESENTATION('camera protector',(#230),#666);
#230=AXIS2_PLACEMENT_3D('',#286,#245,#246);
#231=AXIS2_PLACEMENT_3D('',#287,#247,#248);
#232=AXIS2_PLACEMENT_3D('',#296,#253,#254);
#233=AXIS2_PLACEMENT_3D('',#319,#256,#257);
#234=AXIS2_PLACEMENT_3D('',#320,#258,#259);
#235=AXIS2_PLACEMENT_3D('',#363,#261,#262);
#236=AXIS2_PLACEMENT_3D('',#364,#263,#264);
#237=AXIS2_PLACEMENT_3D('',#366,#265,#266);
#238=AXIS2_PLACEMENT_3D('',#368,#267,#268);
#239=AXIS2_PLACEMENT_3D('',#369,#269,#270);
#240=AXIS2_PLACEMENT_3D('',#392,#272,#273);
#241=AXIS2_PLACEMENT_3D('',#427,#278,#279);
#242=AXIS2_PLACEMENT_3D('',#471,#280,#281);
#243=AXIS2_PLACEMENT_3D('',#472,#282,#283);
#244=AXIS2_PLACEMENT_3D('',#511,#284,#285);
#245=DIRECTION('',(0.,0.,1.));
#246=DIRECTION('',(1.,0.,0.));
#247=DIRECTION('',(0.,-1.,0.));
#248=DIRECTION('',(0.,0.,-1.));
#249=DIRECTION('',(0.,0.,-1.));
#250=DIRECTION('',(-1.,0.,0.));
#251=DIRECTION('',(0.,0.,-1.));
#252=DIRECTION('',(-1.,0.,0.));
#253=DIRECTION('',(-1.,0.,0.));
#254=DIRECTION('',(0.,0.,1.));
#255=DIRECTION('',(0.,1.,0.));
#256=DIRECTION('',(-1.,0.,0.));
#257=DIRECTION('',(0.,0.,1.));
#258=DIRECTION('',(0.,-1.,0.));
#259=DIRECTION('',(0.,0.,-1.));
#260=DIRECTION('',(1.,0.,0.));
#261=DIRECTION('',(0.,0.,-1.));
#262=DIRECTION('',(-1.,0.,0.));
#263=DIRECTION('',(0.,-0.194576516513049,0.980887342777777));
#264=DIRECTION('',(0.,-0.980887342777777,-0.194576516513049));
#265=DIRECTION('',(0.,0.,1.));
#266=DIRECTION('',(1.,0.,0.));
#267=DIRECTION('',(-1.,0.,0.));
#268=DIRECTION('',(0.,0.,1.));
#269=DIRECTION('',(-1.,0.,0.));
#270=DIRECTION('',(0.,0.,1.));
#271=DIRECTION('',(0.,1.,0.));
#272=DIRECTION('',(0.,0.,1.));
#273=DIRECTION('',(1.,0.,0.));
#274=DIRECTION('',(-1.,0.,0.));
#275=DIRECTION('',(-1.,0.,0.));
#276=DIRECTION('',(-1.,0.,0.));
#277=DIRECTION('',(-1.,0.,0.));
#278=DIRECTION('',(0.,0.,1.));
#279=DIRECTION('',(1.,0.,0.));
#280=DIRECTION('',(0.,0.17364817766693,-0.984807753012208));
#281=DIRECTION('',(1.,0.,0.));
#282=DIRECTION('',(0.,0.17364817766693,-0.984807753012208));
#283=DIRECTION('',(0.,-0.984807753012208,-0.17364817766693));
#284=DIRECTION('',(1.,0.,0.));
#285=DIRECTION('',(0.,0.,-1.));
#286=CARTESIAN_POINT('',(0.,0.,0.));
#287=CARTESIAN_POINT('',(0.231,0.09499,0.0063));
#288=CARTESIAN_POINT('',(0.2186,0.09499,0.0063));
#289=CARTESIAN_POINT('',(0.2186,0.09499,0.0023));
#290=CARTESIAN_POINT('',(0.2186,0.09499,0.0018));
#291=CARTESIAN_POINT('',(0.2434,0.09499,0.0023));
#292=CARTESIAN_POINT('',(0.2434,0.09499,0.0023));
#293=CARTESIAN_POINT('',(0.2434,0.09499,0.0063));
#294=CARTESIAN_POINT('',(0.2434,0.09499,0.0018));
#295=CARTESIAN_POINT('',(0.231,0.09499,0.0018));
#296=CARTESIAN_POINT('',(0.2186,0.08259,0.0063));
#297=CARTESIAN_POINT('',(0.2186,0.08259,0.0018));
#298=CARTESIAN_POINT('',(0.2186,0.0704147475319706,0.0018));
#299=CARTESIAN_POINT('',(0.2186,0.144704051910806,0.00157908762320433));
#300=CARTESIAN_POINT('',(0.2186,0.128729532301019,0.0020995336860778));
#301=CARTESIAN_POINT('',(0.2186,0.112755012691233,0.00261997974895128));
#302=CARTESIAN_POINT('',(0.2186,0.0967804930814465,0.00314042581182476));
#303=CARTESIAN_POINT('',(0.2186,0.0946815323537989,0.00320880945487096));
#304=CARTESIAN_POINT('',(0.2186,0.0925825716261514,0.00327719309791717));
#305=CARTESIAN_POINT('',(0.2186,0.0904836108985038,0.00334557674096337));
#306=CARTESIAN_POINT('',(0.2186,0.0836786737699726,0.00356727997981857));
#307=CARTESIAN_POINT('',(0.2186,0.0768737366414414,0.00378898321867377));
#308=CARTESIAN_POINT('',(0.2186,0.0703119069616439,0.00263195560331189));
#309=CARTESIAN_POINT('',(0.2186,0.0702828478529404,0.00262683169841213));
#310=CARTESIAN_POINT('',(0.2186,0.0704968961929707,0.00124297693929528));
#311=CARTESIAN_POINT('',(0.2186,0.0707109445330009,-0.000140877819821574));
#312=CARTESIAN_POINT('',(0.2186,0.0755657692934536,-0.0315280511493682));
#313=CARTESIAN_POINT('',(0.2186,0.0804205940539064,-0.0629152244789147));
#314=CARTESIAN_POINT('',(0.2186,0.0852754188143591,-0.0943023978084613));
#315=CARTESIAN_POINT('',(0.2186,0.19836779914356,-0.825461671065652));
#316=CARTESIAN_POINT('',(0.2186,0.311460179472761,-1.55662094432285));
#317=CARTESIAN_POINT('',(0.2186,0.424552559801962,-2.28778021758004));
#318=CARTESIAN_POINT('',(0.2186,0.0948869455555754,0.00320211714144069));
#319=CARTESIAN_POINT('',(0.2186,0.09099,0.0023));
#320=CARTESIAN_POINT('',(0.231,0.07019,0.0063));
#321=CARTESIAN_POINT('',(0.231,0.07019,0.00281354543921504));
#322=CARTESIAN_POINT('',(0.2216,0.07019,0.00281354543921504));
#323=CARTESIAN_POINT('',(0.2404,0.07019,0.00281354543921504));
#324=CARTESIAN_POINT('',(0.2216,0.07019,0.00281354543921505));
#325=CARTESIAN_POINT('',(0.221574205887638,0.07019,0.00281354543921505));
#326=CARTESIAN_POINT('',(0.221520036298426,0.07019,0.00281225568259436));
#327=CARTESIAN_POINT('',(0.221465396689296,0.0701900000000001,0.00281053975180317));
#328=CARTESIAN_POINT('',(0.221395168397655,0.0701900000000001,0.00279488415744689));
#329=CARTESIAN_POINT('',(0.221447035021682,0.0701899999999999,0.00275020026420964));
#330=CARTESIAN_POINT('',(0.221525993949973,0.0701900000000001,0.00272783490368611));
#331=CARTESIAN_POINT('',(0.221651401338232,0.07019,0.00268356269174757));
#332=CARTESIAN_POINT('',(0.221848212723186,0.0701900000000001,0.00262979042628498));
#333=CARTESIAN_POINT('',(0.222097370881042,0.0701899999999999,0.00256361354911661));
#334=CARTESIAN_POINT('',(0.222496053252922,0.07019,0.00246383146533179));
#335=CARTESIAN_POINT('',(0.222995744404701,0.07019,0.00234237167470168));
#336=CARTESIAN_POINT('',(0.223395773413666,0.07019,0.00224703796417553));
#337=CARTESIAN_POINT('',(0.223595857616627,0.07019,0.00219957305967551));
#338=CARTESIAN_POINT('',(0.223595857616628,0.07019,0.00219957305967636));
#339=CARTESIAN_POINT('',(0.223595857616628,0.0701899999999999,0.00219957305967635));
#340=CARTESIAN_POINT('',(0.22429949832494,0.0701899999999999,0.0022247869531913));
#341=CARTESIAN_POINT('',(0.225706779614855,0.0701900000000001,0.00227521827465214));
#342=CARTESIAN_POINT('',(0.227817701001668,0.0701899999999999,0.00235088053778893));
#343=CARTESIAN_POINT('',(0.229928621553468,0.0701900000000001,0.0024265661015056));
#344=CARTESIAN_POINT('',(0.231687720895683,0.07019,0.00248966853297519));
#345=CARTESIAN_POINT('',(0.23309499914895,0.07019,0.00254018460753031));
#346=CARTESIAN_POINT('',(0.23415045694774,0.0701900000000001,0.00257809626339527));
#347=CARTESIAN_POINT('',(0.235205913476602,0.0701899999999999,0.00261604396290656));
#348=CARTESIAN_POINT('',(0.236261367848412,0.07019,0.00265404882692619));
#349=CARTESIAN_POINT('',(0.237140910623455,0.0701900000000001,0.00268579871347417));
#350=CARTESIAN_POINT('',(0.237844540674134,0.07019,0.00271129434340499));
#351=CARTESIAN_POINT('',(0.238372262506758,0.07019,0.00273048784129031));
#352=CARTESIAN_POINT('',(0.23889997259887,0.07019,0.00274980531687978));
#353=CARTESIAN_POINT('',(0.239339747687675,0.07019,0.00276606180560611));
#354=CARTESIAN_POINT('',(0.239691507282034,0.07019,0.00277933724423626));
#355=CARTESIAN_POINT('',(0.239911467052492,0.0701900000000001,0.00278773931149076));
#356=CARTESIAN_POINT('',(0.24008715758129,0.0701899999999999,0.00279483909243968));
#357=CARTESIAN_POINT('',(0.240219652003091,0.07019,0.00279993348122077));
#358=CARTESIAN_POINT('',(0.240327714658553,0.07019,0.00280585035413882));
#359=CARTESIAN_POINT('',(0.240407921480093,0.07019,0.00280788207763389));
#360=CARTESIAN_POINT('',(0.240446551984769,0.07019,0.00281412014609002));
#361=CARTESIAN_POINT('',(0.240410941371284,0.07019,0.00281354543921505));
#362=CARTESIAN_POINT('',(0.240400000000002,0.07019,0.00281354543921506));
#363=CARTESIAN_POINT('',(0.231,0.08259,0.0063));
#364=CARTESIAN_POINT('',(0.231,0.08259,0.00398457338811426));
#365=CARTESIAN_POINT('',(0.231,0.07459,0.00239763056173807));
#366=CARTESIAN_POINT('',(0.231,0.08259,0.0018));
#367=CARTESIAN_POINT('',(0.239,0.08259,0.0018));
#368=CARTESIAN_POINT('',(0.2434,0.08259,0.0063));
#369=CARTESIAN_POINT('',(0.2434,0.09099,0.0023));
#370=CARTESIAN_POINT('',(0.2434,0.0948862382898499,0.00320516693969007));
#371=CARTESIAN_POINT('',(0.2434,0.144696930599646,0.00161659066765482));
#372=CARTESIAN_POINT('',(0.2434,0.128724528879472,0.00212598688769276));
#373=CARTESIAN_POINT('',(0.2434,0.112752127159298,0.0026353831077307));
#374=CARTESIAN_POINT('',(0.2434,0.0967797254391247,0.00314477932776864));
#375=CARTESIAN_POINT('',(0.2434,0.094681020592251,0.00321171179883355));
#376=CARTESIAN_POINT('',(0.2434,0.0925823157453774,0.00327864426989846));
#377=CARTESIAN_POINT('',(0.2434,0.0904836108985038,0.00334557674096338));
#378=CARTESIAN_POINT('',(0.2434,0.0836562055500576,0.00356331822643908));
#379=CARTESIAN_POINT('',(0.2434,0.0768288002016114,0.00378105971191477));
#380=CARTESIAN_POINT('',(0.2434,0.0702445023018989,0.00262007034317338));
#381=CARTESIAN_POINT('',(0.2434,0.0702379114131105,0.00261890819165313));
#382=CARTESIAN_POINT('',(0.2434,0.0704744279730557,0.00123901518591578));
#383=CARTESIAN_POINT('',(0.2434,0.070710944533001,-0.000140877819821566));
#384=CARTESIAN_POINT('',(0.2434,0.0943626005276715,-0.138130178394411));
#385=CARTESIAN_POINT('',(0.2434,0.118014256522342,-0.276119478969));
#386=CARTESIAN_POINT('',(0.2434,0.141665912517012,-0.41410877954359));
#387=CARTESIAN_POINT('',(0.2434,0.692623591475013,-3.62852491948512));
#388=CARTESIAN_POINT('',(0.2434,1.24358127043301,-6.84294105942665));
#389=CARTESIAN_POINT('',(0.243400000000003,1.79453894939102,-10.0573571993682));
#390=CARTESIAN_POINT('',(0.2434,0.0703791966163887,0.0018));
#391=CARTESIAN_POINT('',(0.2434,0.08259,0.0018));
#392=CARTESIAN_POINT('',(0.231,-0.0156355,0.0063));
#393=CARTESIAN_POINT('',(0.231,0.089962666365503,0.0063));
#394=CARTESIAN_POINT('',(0.226095600259406,0.089962666365503,0.0063));
#395=CARTESIAN_POINT('',(0.2216,0.089962666365503,0.0063));
#396=CARTESIAN_POINT('',(0.226095600259406,0.089962666365503,0.0063));
#397=CARTESIAN_POINT('',(0.226308021388499,0.0899626663655029,0.0063));
#398=CARTESIAN_POINT('',(0.226707509224372,0.0900946515602145,0.0063));
#399=CARTESIAN_POINT('',(0.227506980694423,0.0903410539325938,0.0063));
#400=CARTESIAN_POINT('',(0.228511991896889,0.0906345010876953,0.0063));
#401=CARTESIAN_POINT('',(0.229752719874281,0.0908542611385577,0.0063));
#402=CARTESIAN_POINT('',(0.230991200755798,0.090929878598979,0.0063));
#403=CARTESIAN_POINT('',(0.232236340074234,0.0908558291319621,0.0063));
#404=CARTESIAN_POINT('',(0.233479228019095,0.0906365650370686,0.0063));
#405=CARTESIAN_POINT('',(0.234486959792731,0.090343142541123,0.0063));
#406=CARTESIAN_POINT('',(0.235285881761005,0.0900964527830592,0.0063));
#407=CARTESIAN_POINT('',(0.235691498505268,0.0899630878207161,0.0063));
#408=CARTESIAN_POINT('',(0.235903258301055,0.0899626675000927,0.0063));
#409=CARTESIAN_POINT('',(0.235903258279536,0.089962666365503,0.0063));
#410=CARTESIAN_POINT('',(0.231,0.089962666365503,0.0063));
#411=CARTESIAN_POINT('',(0.235904399740594,0.089962666365503,0.0063));
#412=CARTESIAN_POINT('',(0.231,0.089962666365503,0.0063));
#413=CARTESIAN_POINT('',(0.2404,0.089962666365503,0.0063));
#414=CARTESIAN_POINT('',(0.2404,0.089962666365503,0.0063));
#415=CARTESIAN_POINT('',(0.240639291335583,0.089962666365503,0.0063));
#416=CARTESIAN_POINT('',(0.241012740597216,0.0903308897551196,0.00630000000000001));
#417=CARTESIAN_POINT('',(0.2411703080557,0.0907661153450724,0.0063));
#418=CARTESIAN_POINT('',(0.241243671185132,0.09099,0.0063));
#419=CARTESIAN_POINT('',(0.241243671185131,0.09099,0.0063));
#420=CARTESIAN_POINT('',(0.2186,0.09099,0.0063));
#421=CARTESIAN_POINT('',(0.220756931620538,0.09099,0.0063));
#422=CARTESIAN_POINT('',(0.220756931620538,0.09099,0.00630000000000004));
#423=CARTESIAN_POINT('',(0.220830121485145,0.0907662826326473,0.00630000000000004));
#424=CARTESIAN_POINT('',(0.22098614318951,0.0903334094950465,0.00629999999999998));
#425=CARTESIAN_POINT('',(0.221360184661541,0.0899626663655031,0.0063));
#426=CARTESIAN_POINT('',(0.2216,0.0899626663655031,0.0063));
#427=CARTESIAN_POINT('',(0.231,-0.0156355,0.0018));
#428=CARTESIAN_POINT('',(0.2434,0.0703791966163885,0.00180000000000108));
#429=CARTESIAN_POINT('',(0.243399999999999,0.0703655875517806,0.00180000000000108));
#430=CARTESIAN_POINT('',(0.243354653178237,0.0703827168230056,0.00179999999999973));
#431=CARTESIAN_POINT('',(0.243311263914845,0.0703727381051995,0.00180000000000068));
#432=CARTESIAN_POINT('',(0.243240785997807,0.0703759929612222,0.00179999999999946));
#433=CARTESIAN_POINT('',(0.24316315843219,0.0703735335319026,0.00180000000000024));
#434=CARTESIAN_POINT('',(0.243057225739818,0.0703727200447428,0.00179999999999991));
#435=CARTESIAN_POINT('',(0.242925638738652,0.0703711098970412,0.00180000000000003));
#436=CARTESIAN_POINT('',(0.24271463297626,0.0703691856520136,0.00179999999999999));
#437=CARTESIAN_POINT('',(0.242451033095193,0.0703668541063531,0.00180000000000015));
#438=CARTESIAN_POINT('',(0.242134643482428,0.0703642949895229,0.00180000000000016));
#439=CARTESIAN_POINT('',(0.241818271171875,0.0703618411083395,0.00179999999999989));
#440=CARTESIAN_POINT('',(0.241396434168564,0.070358690379091,0.00180000000000006));
#441=CARTESIAN_POINT('',(0.240869138902376,0.0703549138082228,0.00179999999999982));
#442=CARTESIAN_POINT('',(0.240236382461006,0.0703505521318651,0.00180000000000016));
#443=CARTESIAN_POINT('',(0.239392706417112,0.0703449007785725,0.00179999999999982));
#444=CARTESIAN_POINT('',(0.238338109720271,0.0703380685115061,0.00179999999999998));
#445=CARTESIAN_POINT('',(0.237072592201199,0.0703301102806945,0.00180000000000005));
#446=CARTESIAN_POINT('',(0.235807073583575,0.0703223267957603,0.00179999999999998));
#447=CARTESIAN_POINT('',(0.234541554159619,0.070314676546792,0.00179999999999998));
#448=CARTESIAN_POINT('',(0.232854194073284,0.0703046181248544,0.00180000000000001));
#449=CARTESIAN_POINT('',(0.230744992690558,0.070292261563874,0.00180000000000002));
#450=CARTESIAN_POINT('',(0.228213949585531,0.0702776816617916,0.00180000000000001));
#451=CARTESIAN_POINT('',(0.225682905394111,0.0702632923259321,0.00179999999999999));
#452=CARTESIAN_POINT('',(0.223995542027172,0.0702538006880882,0.0018));
#453=CARTESIAN_POINT('',(0.223151860226805,0.0702490756821102,0.0018));
#454=CARTESIAN_POINT('',(0.223151860226804,0.0702490756821103,0.00180000000000003));
#455=CARTESIAN_POINT('',(0.223151860226804,0.0702490756821106,0.00180000000000005));
#456=CARTESIAN_POINT('',(0.222772309314067,0.0702598025387571,0.00180000000000005));
#457=CARTESIAN_POINT('',(0.222202990226409,0.070276146361075,0.00180000000000002));
#458=CARTESIAN_POINT('',(0.221443922639044,0.0702987280422834,0.00179999999999997));
#459=CARTESIAN_POINT('',(0.220874634744454,0.070316181655798,0.00179999999999999));
#460=CARTESIAN_POINT('',(0.220305378479822,0.0703343677491371,0.00180000000000004));
#461=CARTESIAN_POINT('',(0.219830996153687,0.0703503897043109,0.00179999999999998));
#462=CARTESIAN_POINT('',(0.21945159687702,0.0703642617239615,0.00180000000000003));
#463=CARTESIAN_POINT('',(0.219214329609449,0.070373428701526,0.00180000000000001));
#464=CARTESIAN_POINT('',(0.219024927394336,0.0703818143341291,0.00179999999999998));
#465=CARTESIAN_POINT('',(0.218881869799657,0.0703881026249131,0.0018));
#466=CARTESIAN_POINT('',(0.218766008815727,0.070396612238585,0.00180000000000003));
#467=CARTESIAN_POINT('',(0.218678520497044,0.0703996566798925,0.00179999999999995));
#468=CARTESIAN_POINT('',(0.218638754188174,0.0704095270791125,0.00180000000000003));
#469=CARTESIAN_POINT('',(0.218600000000001,0.070402684572936,0.00179999999999995));
#470=CARTESIAN_POINT('',(0.2186,0.0704147475319706,0.00179999999999995));
#471=CARTESIAN_POINT('',(0.231,0.08259,0.005));
#472=CARTESIAN_POINT('',(0.231,0.0824163518223331,0.00496938114112646));
#473=CARTESIAN_POINT('',(0.232754932952864,0.142246073598543,0.0155189753385531));
#474=CARTESIAN_POINT('',(0.229468447415777,0.126842246213201,0.0128028649643413));
#475=CARTESIAN_POINT('',(0.226181961878691,0.111438418827858,0.0100867545901295));
#476=CARTESIAN_POINT('',(0.222895476341605,0.0960345914425155,0.00737064421591763));
#477=CARTESIAN_POINT('',(0.222463650894403,0.0940106164168447,0.00701376281061175));
#478=CARTESIAN_POINT('',(0.222031825447201,0.0919866413911739,0.00665688140530588));
#479=CARTESIAN_POINT('',(0.2216,0.0899626663655031,0.0063));
#480=CARTESIAN_POINT('',(0.2202,0.0834008366857055,0.00514297238463811));
#481=CARTESIAN_POINT('',(0.2188,0.076839007005908,0.00398594476927622));
#482=CARTESIAN_POINT('',(0.2188,0.0702771773261105,0.00282891715391434));
#483=CARTESIAN_POINT('',(0.2188,0.070248118217407,0.00282379324901458));
#484=CARTESIAN_POINT('',(0.2202,0.0702190591087036,0.00281866934411481));
#485=CARTESIAN_POINT('',(0.2216,0.07019,0.00281354543921506));
#486=CARTESIAN_POINT('',(0.253353363112621,0.0695309111211507,0.00269733028718901));
#487=CARTESIAN_POINT('',(0.28510672622524,0.0688718222423012,0.00258111513516296));
#488=CARTESIAN_POINT('',(0.316860089337861,0.0682127333634518,0.0024648999831369));
#489=CARTESIAN_POINT('',(1.05654969608049,0.0528593614426412,-0.000242313731353751));
#490=CARTESIAN_POINT('',(1.79623930282313,0.0375059895218307,-0.0029495274458444));
#491=CARTESIAN_POINT('',(2.53592890956576,0.02215261760102,-0.00565674116033505));
#492=CARTESIAN_POINT('',(0.229283236938778,0.142245580419509,0.015518888377783));
#493=CARTESIAN_POINT('',(0.232558472737298,0.126841917427178,0.0128028069904945));
#494=CARTESIAN_POINT('',(0.23583370853582,0.111438254434847,0.0100867256032061));
#495=CARTESIAN_POINT('',(0.23910894433434,0.0960345914425155,0.00737064421591762));
#496=CARTESIAN_POINT('',(0.239539296222894,0.0940106164168446,0.00701376281061175));
#497=CARTESIAN_POINT('',(0.239969648111446,0.0919866413911738,0.00665688140530588));
#498=CARTESIAN_POINT('',(0.2404,0.089962666365503,0.0063));
#499=CARTESIAN_POINT('',(0.2418,0.0833783684657905,0.00513901063125861));
#500=CARTESIAN_POINT('',(0.2432,0.076794070566078,0.00397802126251721));
#501=CARTESIAN_POINT('',(0.2432,0.0702097726663656,0.00281703189377583));
#502=CARTESIAN_POINT('',(0.2432,0.0702031817775771,0.00281586974225557));
#503=CARTESIAN_POINT('',(0.2418,0.0701965908887886,0.00281470759073531));
#504=CARTESIAN_POINT('',(0.2404,0.07019,0.00281354543921506));
#505=CARTESIAN_POINT('',(0.100399999999133,0.0695309111211508,0.00269733028718902));
#506=CARTESIAN_POINT('',(-0.0396000000017349,0.0688718222423013,0.00258111513516297));
#507=CARTESIAN_POINT('',(-0.179600000002602,0.0682127333634519,0.00246489998313693));
#508=CARTESIAN_POINT('',(-3.44085473294725,0.0528594710379839,-0.000242294406737871));
#509=CARTESIAN_POINT('',(-6.7021094658919,0.0375062087125159,-0.00294948879661267));
#510=CARTESIAN_POINT('',(-9.96336419883655,0.0221529463870479,-0.00565668318648747));
#511=CARTESIAN_POINT('',(0.231,0.09099,0.0023));
#512=CARTESIAN_POINT('',(0.2186,0.0948869455555754,0.00320211714144069));
#513=CARTESIAN_POINT('',(0.2186,0.0947758200394595,0.003682154673426));
#514=CARTESIAN_POINT('',(0.218782129371694,0.0943769157966642,0.00457822429563045));
#515=CARTESIAN_POINT('',(0.219377429451647,0.09343228786182,0.00555675902577844));
#516=CARTESIAN_POINT('',(0.220098601776982,0.0922952638359538,0.00614858786727215));
#517=CARTESIAN_POINT('',(0.220603740569724,0.0914582547067736,0.00630000000000002));
#518=CARTESIAN_POINT('',(0.220756931620538,0.0909899999999999,0.0063));
#519=CARTESIAN_POINT('',(0.241243671185132,0.09099,0.00630000000000001));
#520=CARTESIAN_POINT('',(0.241397406680953,0.0914591596268976,0.00630000000000002));
#521=CARTESIAN_POINT('',(0.24190263924253,0.0922950729926326,0.00614797072754011));
#522=CARTESIAN_POINT('',(0.242620140658377,0.0934266202993815,0.00556060790048397));
#523=CARTESIAN_POINT('',(0.243217563901363,0.094374592198928,0.00458243463934184));
#524=CARTESIAN_POINT('',(0.2434,0.0947747130044362,0.00368522102503246));
#525=CARTESIAN_POINT('',(0.2434,0.0948862382898498,0.00320516693969006));
#526=CARTESIAN_POINT('',(0.2434,0.0950363922647028,0.00320037818790722));
#527=CARTESIAN_POINT('',(0.2434,0.0935187984759698,0.00324877770559261));
#528=CARTESIAN_POINT('',(0.2434,0.0920012046872368,0.00329717722327799));
#529=CARTESIAN_POINT('',(0.2434,0.0904836108985038,0.00334557674096338));
#530=CARTESIAN_POINT('',(0.2434,0.0836562055500576,0.00356331822643908));
#531=CARTESIAN_POINT('',(0.2434,0.0768288002016114,0.00378105971191477));
#532=CARTESIAN_POINT('',(0.2434,0.0702445023018989,0.00262007034317338));
#533=CARTESIAN_POINT('',(0.2434,0.0702379114131105,0.00261890819165313));
#534=CARTESIAN_POINT('',(0.2434,0.0704744279730557,0.00123901518591578));
#535=CARTESIAN_POINT('',(0.2434,0.070710944533001,-0.000140877819821566));
#536=CARTESIAN_POINT('',(0.2434,0.0738310528683622,-0.0183443206151359));
#537=CARTESIAN_POINT('',(0.2434,0.0769511612037234,-0.0365477634104501));
#538=CARTESIAN_POINT('',(0.2434,0.0800712695390846,-0.0547512062057644));
#539=CARTESIAN_POINT('',(0.2434,0.0943533341605734,0.00707419319559866));
#540=CARTESIAN_POINT('',(0.2434,0.0928897782288832,0.00681612879706577));
#541=CARTESIAN_POINT('',(0.2434,0.091426222297193,0.00655806439853289));
#542=CARTESIAN_POINT('',(0.2434,0.0899626663655029,0.0063));
#543=CARTESIAN_POINT('',(0.2434,0.0833783684657905,0.00513901063125861));
#544=CARTESIAN_POINT('',(0.2434,0.0767940705660779,0.00397802126251721));
#545=CARTESIAN_POINT('',(0.2434,0.0702097726663655,0.00281703189377582));
#546=CARTESIAN_POINT('',(0.2434,0.070203181777577,0.00281586974225557));
#547=CARTESIAN_POINT('',(0.2434,0.0701965908887886,0.00281470759073531));
#548=CARTESIAN_POINT('',(0.2434,0.0701900000000001,0.00281354543921506));
#549=CARTESIAN_POINT('',(0.2434,0.0701030535001395,0.00279821442541146));
#550=CARTESIAN_POINT('',(0.2434,0.0700161070002789,0.00278288341160787));
#551=CARTESIAN_POINT('',(0.2434,0.0699291605004183,0.00276755239780428));
#552=CARTESIAN_POINT('',(0.239466425151668,0.0943533341605734,0.00707419319559867));
#553=CARTESIAN_POINT('',(0.239777616767779,0.0928897782288833,0.00681612879706578));
#554=CARTESIAN_POINT('',(0.240088808383889,0.0914262222971931,0.00655806439853289));
#555=CARTESIAN_POINT('',(0.2404,0.089962666365503,0.0063));
#556=CARTESIAN_POINT('',(0.2418,0.0833783684657905,0.00513901063125861));
#557=CARTESIAN_POINT('',(0.2432,0.076794070566078,0.00397802126251721));
#558=CARTESIAN_POINT('',(0.2432,0.0702097726663656,0.00281703189377583));
#559=CARTESIAN_POINT('',(0.2432,0.0702031817775771,0.00281586974225557));
#560=CARTESIAN_POINT('',(0.2418,0.0701965908887886,0.00281470759073531));
#561=CARTESIAN_POINT('',(0.2404,0.07019,0.00281354543921506));
#562=CARTESIAN_POINT('',(0.221931307277101,0.0701030535001395,0.00279821442541148));
#563=CARTESIAN_POINT('',(0.203462614554203,0.070016107000279,0.00278288341160791));
#564=CARTESIAN_POINT('',(0.184993921831304,0.0699291605004185,0.00276755239780433));
#565=CARTESIAN_POINT('',(0.223595857616628,0.07019,0.00219957305967577));
#566=CARTESIAN_POINT('',(0.223439188235139,0.0702078398870566,0.00207624789498144));
#567=CARTESIAN_POINT('',(0.223291723884234,0.0702277620530349,0.00194178146538239));
#568=CARTESIAN_POINT('',(0.223151860226815,0.070249075682112,0.0017999999999888));
#569=CARTESIAN_POINT('',(0.222536806766396,0.0943534995397677,0.00707422235641265));
#570=CARTESIAN_POINT('',(0.222224537844264,0.0928898884816795,0.00681614823760843));
#571=CARTESIAN_POINT('',(0.221912268922132,0.0914262774235913,0.00655807411880422));
#572=CARTESIAN_POINT('',(0.2216,0.0899626663655031,0.0063));
#573=CARTESIAN_POINT('',(0.2202,0.0834008366857055,0.00514297238463811));
#574=CARTESIAN_POINT('',(0.2188,0.076839007005908,0.00398594476927622));
#575=CARTESIAN_POINT('',(0.2188,0.0702771773261105,0.00282891715391434));
#576=CARTESIAN_POINT('',(0.2188,0.070248118217407,0.00282379324901458));
#577=CARTESIAN_POINT('',(0.2202,0.0702190591087036,0.00281866934411481));
#578=CARTESIAN_POINT('',(0.2216,0.07019,0.00281354543921506));
#579=CARTESIAN_POINT('',(0.225788895170425,0.0701030531713538,0.0027982143674377));
#580=CARTESIAN_POINT('',(0.22997779034085,0.0700161063427076,0.00278288329566034));
#581=CARTESIAN_POINT('',(0.234166685511275,0.0699291595140615,0.00276755222388298));
#582=CARTESIAN_POINT('',(0.2186,0.0943534995397676,0.00707422235641263));
#583=CARTESIAN_POINT('',(0.2186,0.0928898884816794,0.00681614823760842));
#584=CARTESIAN_POINT('',(0.2186,0.0914262774235912,0.0065580741188042));
#585=CARTESIAN_POINT('',(0.2186,0.0899626663655029,0.00629999999999999));
#586=CARTESIAN_POINT('',(0.2186,0.0834008366857054,0.0051429723846381));
#587=CARTESIAN_POINT('',(0.2186,0.076839007005908,0.00398594476927621));
#588=CARTESIAN_POINT('',(0.2186,0.0702771773261104,0.00282891715391433));
#589=CARTESIAN_POINT('',(0.2186,0.070248118217407,0.00282379324901457));
#590=CARTESIAN_POINT('',(0.2186,0.0702190591087035,0.00281866934411481));
#591=CARTESIAN_POINT('',(0.2186,0.0701900000000001,0.00281354543921505));
#592=CARTESIAN_POINT('',(0.2186,0.0701030531713538,0.00279821436743767));
#593=CARTESIAN_POINT('',(0.2186,0.0700161063427076,0.0027828832956603));
#594=CARTESIAN_POINT('',(0.2186,0.0699291595140613,0.00276755222388292));
#595=CARTESIAN_POINT('',(0.2186,0.095037118860579,0.00319722453075523));
#596=CARTESIAN_POINT('',(0.2186,0.0935192828732206,0.00324667526749128));
#597=CARTESIAN_POINT('',(0.2186,0.0920014468858622,0.00329612600422732));
#598=CARTESIAN_POINT('',(0.2186,0.0904836108985038,0.00334557674096337));
#599=CARTESIAN_POINT('',(0.2186,0.0836786737699726,0.00356727997981857));
#600=CARTESIAN_POINT('',(0.2186,0.0768737366414414,0.00378898321867377));
#601=CARTESIAN_POINT('',(0.2186,0.0703119069616439,0.00263195560331189));
#602=CARTESIAN_POINT('',(0.2186,0.0702828478529404,0.00262683169841213));
#603=CARTESIAN_POINT('',(0.2186,0.0704968961929707,0.00124297693929528));
#604=CARTESIAN_POINT('',(0.2186,0.0707109445330009,-0.000140877819821574));
#605=CARTESIAN_POINT('',(0.2186,0.0713513917171367,-0.00428146533198899));
#606=CARTESIAN_POINT('',(0.2186,0.0719918389012726,-0.00842205284415641));
#607=CARTESIAN_POINT('',(0.2186,0.0726322860854084,-0.0125626403563238));
#608=CARTESIAN_POINT('',(0.231,0.07459,0.00239763056173807));
#609=CARTESIAN_POINT('',(0.231,0.07459,0.00358938415433228));
#610=CARTESIAN_POINT('',(0.231,0.0734163518223331,0.00338243831475028));
#611=CARTESIAN_POINT('',(0.229952943366893,0.07459,0.00239763056173807));
#612=CARTESIAN_POINT('',(0.229980097704909,0.07459,0.00358938415433229));
#613=CARTESIAN_POINT('',(0.229822061287755,0.073416351822333,0.00338243831475028));
#614=CARTESIAN_POINT('',(0.22785883010068,0.0750065450273436,0.00248025970461378));
#615=CARTESIAN_POINT('',(0.227957009033589,0.0749780747336263,0.00365781220040185));
#616=CARTESIAN_POINT('',(0.227466183863265,0.0738849649780946,0.00346506745762598));
#617=CARTESIAN_POINT('',(0.225195874843756,0.0767858748437555,0.00283322154060278));
#618=CARTESIAN_POINT('',(0.225327994426555,0.076664705503982,0.00395521071170866));
#619=CARTESIAN_POINT('',(0.224470359199225,0.075886711021558,0.00381802929361499));
#620=CARTESIAN_POINT('',(0.223416545027344,0.07944883010068,0.00336146625834493));
#621=CARTESIAN_POINT('',(0.223503396271953,0.0792477652267489,0.0044106738336138));
#622=CARTESIAN_POINT('',(0.222468613155762,0.0788825356855981,0.00434627401135714));
#623=CARTESIAN_POINT('',(0.222791727486328,0.08259,0.00398457338811425));
#624=CARTESIAN_POINT('',(0.222790768326119,0.0823695718795595,0.00496113257505949));
#625=CARTESIAN_POINT('',(0.221765693422119,0.0824163518223331,0.00496938114112646));
#626=CARTESIAN_POINT('',(0.223416545027344,0.08573116989932,0.00460768051788358));
#627=CARTESIAN_POINT('',(0.223339627370767,0.085556988915308,0.00552316019723174));
#628=CARTESIAN_POINT('',(0.222468613155762,0.085950167959068,0.00559248827089579));
#629=CARTESIAN_POINT('',(0.225195874843756,0.0883941251562445,0.00513592523562573));
#630=CARTESIAN_POINT('',(0.225093402112099,0.0883013311239667,0.00600706177291532));
#631=CARTESIAN_POINT('',(0.224470359199225,0.0889459926231081,0.00612073298863793));
#632=CARTESIAN_POINT('',(0.22785883010068,0.0901734549726563,0.00548888707161473));
#633=CARTESIAN_POINT('',(0.227788954131016,0.0901534647900474,0.00633364291012385));
#634=CARTESIAN_POINT('',(0.227466183863265,0.0909477386665715,0.00647369482462694));
#635=CARTESIAN_POINT('',(0.231,0.0907982725136718,0.0056128307859283));
#636=CARTESIAN_POINT('',(0.231,0.0908070125195358,0.00644888100801339));
#637=CARTESIAN_POINT('',(0.231,0.0916506584002139,0.0065976385389405));
#638=CARTESIAN_POINT('',(0.23414116989932,0.0901734549726564,0.00548888707161474));
#639=CARTESIAN_POINT('',(0.234211045868984,0.0901534647900474,0.00633364291012385));
#640=CARTESIAN_POINT('',(0.234533816136735,0.0909477386665715,0.00647369482462695));
#641=CARTESIAN_POINT('',(0.236804125156244,0.0883941251562445,0.00513592523562572));
#642=CARTESIAN_POINT('',(0.236906597887901,0.0883013311239666,0.00600706177291532));
#643=CARTESIAN_POINT('',(0.237529640800775,0.0889459926231081,0.00612073298863793));
#644=CARTESIAN_POINT('',(0.238583454972656,0.08573116989932,0.00460768051788359));
#645=CARTESIAN_POINT('',(0.238660372629233,0.085556988915308,0.00552316019723174));
#646=CARTESIAN_POINT('',(0.239531386844238,0.085950167959068,0.0055924882708958));
#647=CARTESIAN_POINT('',(0.239208272513672,0.08259,0.00398457338811425));
#648=CARTESIAN_POINT('',(0.239209231673881,0.0823695718795595,0.00496113257505948));
#649=CARTESIAN_POINT('',(0.240234306577881,0.082416351822333,0.00496938114112646));
#650=CARTESIAN_POINT('',(0.238583454972656,0.0794488301006801,0.00336146625834493));
#651=CARTESIAN_POINT('',(0.238496603728047,0.0792477652267489,0.0044106738336138));
#652=CARTESIAN_POINT('',(0.239531386844238,0.0788825356855982,0.00434627401135714));
#653=CARTESIAN_POINT('',(0.236804125156244,0.0767858748437555,0.00283322154060279));
#654=CARTESIAN_POINT('',(0.236672005573445,0.076664705503982,0.00395521071170867));
#655=CARTESIAN_POINT('',(0.237529640800775,0.075886711021558,0.003818029293615));
#656=CARTESIAN_POINT('',(0.23414116989932,0.0750065450273437,0.00248025970461378));
#657=CARTESIAN_POINT('',(0.234042990966411,0.0749780747336263,0.00365781220040182));
#658=CARTESIAN_POINT('',(0.234533816136735,0.0738849649780947,0.00346506745762598));
#659=CARTESIAN_POINT('',(0.232047056633107,0.07459,0.00239763056173807));
#660=CARTESIAN_POINT('',(0.232019902295091,0.07459,0.00358938415433228));
#661=CARTESIAN_POINT('',(0.232177938712245,0.0734163518223331,0.00338243831475028));
#662=CARTESIAN_POINT('',(0.231,0.07459,0.00239763056173807));
#663=CARTESIAN_POINT('',(0.231,0.07459,0.00358938415433228));
#664=CARTESIAN_POINT('',(0.231,0.0734163518223331,0.00338243831475028));
#665=MECHANICAL_DESIGN_GEOMETRIC_PRESENTATION_REPRESENTATION('',(#219),
#666);
#666=(
GEOMETRIC_REPRESENTATION_CONTEXT(3)
GLOBAL_UNCERTAINTY_ASSIGNED_CONTEXT((#667))
GLOBAL_UNIT_ASSIGNED_CONTEXT((#670,#669,#668))
REPRESENTATION_CONTEXT('camera protector','TOP_LEVEL_ASSEMBLY_PART')
);
#667=UNCERTAINTY_MEASURE_WITH_UNIT(LENGTH_MEASURE(2.E-5),#670,
'DISTANCE_ACCURACY_VALUE','Maximum Tolerance applied to model');
#668=(
NAMED_UNIT(*)
SI_UNIT($,.STERADIAN.)
SOLID_ANGLE_UNIT()
);
#669=(
NAMED_UNIT(*)
PLANE_ANGLE_UNIT()
SI_UNIT($,.RADIAN.)
);
#670=(
LENGTH_UNIT()
NAMED_UNIT(*)
SI_UNIT($,.METRE.)
);
#671=PRODUCT_DEFINITION_SHAPE('','',#672);
#672=PRODUCT_DEFINITION('','',#674,#673);
#673=PRODUCT_DEFINITION_CONTEXT('',#680,'design');
#674=PRODUCT_DEFINITION_FORMATION_WITH_SPECIFIED_SOURCE('','',#676,
 .NOT_KNOWN.);
#675=PRODUCT_RELATED_PRODUCT_CATEGORY('','',(#676));
#676=PRODUCT('camera protector','camera protector','camera protector',(#678));
#677=PRODUCT_CATEGORY('','');
#678=PRODUCT_CONTEXT('',#680,'mechanical');
#679=APPLICATION_PROTOCOL_DEFINITION('international standard',
'ap242_managed_model_based_3d_engineering',2020,#680);
#680=APPLICATION_CONTEXT('managed model based 3d engineering');
ENDSEC;
END-ISO-10303-21;
