ISO-10303-21;
HEADER;
/* Generated by software containing ST-Developer
 * from STEP Tools, Inc. (www.steptools.com) 
 */
/* OPTION: using custom renumber hook */

FILE_DESCRIPTION(
/* description */ ('STEP AP242 Edition 2',
'CAx-IF Rec.Pracs.---Representation and Presentation of Product Manufa
cturing Information (PMI)---4.0---2014-10-13',
'CAx-IF Rec.Pracs.---3D Tessellated Geometry---0.4---2014-09-14','2;1',
'CAx-IF Rec.Pracs.---User Defined Attributes---1.5---2016-08-15'),
/* implementation_level */ '2;1');

FILE_NAME(
/* name */ 'Open-Flight-Monitor-2 - battery hatch',
/* time_stamp */ '2026-09-14T06:14:40Z',
/* author */ (''),
/* organization */ (''),
/* preprocessor_version */ 'ST-DEVELOPER v20',
/* originating_system */ 'ONSHAPE BY PTC INC, 1.220',
/* authorisation */ '  ');

FILE_SCHEMA (('AP242_MANAGED_MODEL_BASED_3D_ENGINEERING_MIM_LF { 1 0 10303 442 3 1 4 }'));
ENDSEC;

DATA;
#10=SHAPE_REPRESENTATION_RELATIONSHIP('','',#437,#11);
#11=ADVANCED_BREP_SHAPE_REPRESENTATION('',(#435),#735);
#12=CONICAL_SURFACE('',#479,0.003,0.436332312998578);
#13=CONICAL_SURFACE('',#480,0.003,0.436332312998578);
#14=CONICAL_SURFACE('',#483,0.003,0.436332312998577);
#15=CONICAL_SURFACE('',#484,0.003,0.436332312998578);
#16=CIRCLE('',#441,0.0025);
#17=CIRCLE('',#442,0.0025);
#18=CIRCLE('',#445,0.0025);
#19=CIRCLE('',#446,0.0025);
#20=CIRCLE('',#449,0.00249999999999995);
#21=CIRCLE('',#450,0.00249999999999995);
#22=CIRCLE('',#453,0.00249999999999995);
#23=CIRCLE('',#454,0.00249999999999995);
#24=CIRCLE('',#457,0.001575);
#25=CIRCLE('',#458,0.001575);
#26=CIRCLE('',#460,0.001575);
#27=CIRCLE('',#461,0.001575);
#28=CIRCLE('',#463,0.001575);
#29=CIRCLE('',#464,0.001575);
#30=CIRCLE('',#466,0.001575);
#31=CIRCLE('',#467,0.001575);
#32=CIRCLE('',#469,0.00393261531631);
#33=CIRCLE('',#470,0.00393261531631);
#34=CIRCLE('',#471,0.00393261531631);
#35=CIRCLE('',#472,0.00393261531631);
#36=CIRCLE('',#474,0.003);
#37=CIRCLE('',#475,0.003);
#38=CIRCLE('',#476,0.003);
#39=CIRCLE('',#477,0.003);
#40=CYLINDRICAL_SURFACE('',#440,0.0025);
#41=CYLINDRICAL_SURFACE('',#444,0.0025);
#42=CYLINDRICAL_SURFACE('',#448,0.00249999999999995);
#43=CYLINDRICAL_SURFACE('',#452,0.00249999999999995);
#44=CYLINDRICAL_SURFACE('',#456,0.001575);
#45=CYLINDRICAL_SURFACE('',#459,0.001575);
#46=CYLINDRICAL_SURFACE('',#462,0.001575);
#47=CYLINDRICAL_SURFACE('',#465,0.001575);
#48=ORIENTED_EDGE('',*,*,#160,.T.);
#49=ORIENTED_EDGE('',*,*,#161,.T.);
#50=ORIENTED_EDGE('',*,*,#162,.F.);
#51=ORIENTED_EDGE('',*,*,#163,.F.);
#52=ORIENTED_EDGE('',*,*,#164,.T.);
#53=ORIENTED_EDGE('',*,*,#165,.T.);
#54=ORIENTED_EDGE('',*,*,#166,.F.);
#55=ORIENTED_EDGE('',*,*,#161,.F.);
#56=ORIENTED_EDGE('',*,*,#167,.T.);
#57=ORIENTED_EDGE('',*,*,#168,.T.);
#58=ORIENTED_EDGE('',*,*,#169,.F.);
#59=ORIENTED_EDGE('',*,*,#165,.F.);
#60=ORIENTED_EDGE('',*,*,#170,.T.);
#61=ORIENTED_EDGE('',*,*,#171,.T.);
#62=ORIENTED_EDGE('',*,*,#172,.F.);
#63=ORIENTED_EDGE('',*,*,#168,.F.);
#64=ORIENTED_EDGE('',*,*,#171,.F.);
#65=ORIENTED_EDGE('',*,*,#173,.F.);
#66=ORIENTED_EDGE('',*,*,#174,.T.);
#67=ORIENTED_EDGE('',*,*,#175,.T.);
#68=ORIENTED_EDGE('',*,*,#176,.T.);
#69=ORIENTED_EDGE('',*,*,#177,.T.);
#70=ORIENTED_EDGE('',*,*,#178,.F.);
#71=ORIENTED_EDGE('',*,*,#174,.F.);
#72=ORIENTED_EDGE('',*,*,#177,.F.);
#73=ORIENTED_EDGE('',*,*,#179,.F.);
#74=ORIENTED_EDGE('',*,*,#180,.T.);
#75=ORIENTED_EDGE('',*,*,#181,.T.);
#76=ORIENTED_EDGE('',*,*,#182,.T.);
#77=ORIENTED_EDGE('',*,*,#163,.T.);
#78=ORIENTED_EDGE('',*,*,#183,.F.);
#79=ORIENTED_EDGE('',*,*,#180,.F.);
#80=ORIENTED_EDGE('',*,*,#162,.T.);
#81=ORIENTED_EDGE('',*,*,#166,.T.);
#82=ORIENTED_EDGE('',*,*,#169,.T.);
#83=ORIENTED_EDGE('',*,*,#172,.T.);
#84=ORIENTED_EDGE('',*,*,#175,.F.);
#85=ORIENTED_EDGE('',*,*,#178,.T.);
#86=ORIENTED_EDGE('',*,*,#181,.F.);
#87=ORIENTED_EDGE('',*,*,#183,.T.);
#88=ORIENTED_EDGE('',*,*,#184,.F.);
#89=ORIENTED_EDGE('',*,*,#185,.T.);
#90=ORIENTED_EDGE('',*,*,#186,.F.);
#91=ORIENTED_EDGE('',*,*,#187,.T.);
#92=ORIENTED_EDGE('',*,*,#188,.F.);
#93=ORIENTED_EDGE('',*,*,#189,.T.);
#94=ORIENTED_EDGE('',*,*,#190,.F.);
#95=ORIENTED_EDGE('',*,*,#191,.T.);
#96=ORIENTED_EDGE('',*,*,#192,.T.);
#97=ORIENTED_EDGE('',*,*,#193,.T.);
#98=ORIENTED_EDGE('',*,*,#194,.T.);
#99=ORIENTED_EDGE('',*,*,#195,.T.);
#100=ORIENTED_EDGE('',*,*,#196,.T.);
#101=ORIENTED_EDGE('',*,*,#197,.T.);
#102=ORIENTED_EDGE('',*,*,#198,.T.);
#103=ORIENTED_EDGE('',*,*,#199,.T.);
#104=ORIENTED_EDGE('',*,*,#191,.F.);
#105=ORIENTED_EDGE('',*,*,#160,.F.);
#106=ORIENTED_EDGE('',*,*,#182,.F.);
#107=ORIENTED_EDGE('',*,*,#179,.T.);
#108=ORIENTED_EDGE('',*,*,#176,.F.);
#109=ORIENTED_EDGE('',*,*,#173,.T.);
#110=ORIENTED_EDGE('',*,*,#170,.F.);
#111=ORIENTED_EDGE('',*,*,#167,.F.);
#112=ORIENTED_EDGE('',*,*,#164,.F.);
#113=ORIENTED_EDGE('',*,*,#189,.F.);
#114=ORIENTED_EDGE('',*,*,#187,.F.);
#115=ORIENTED_EDGE('',*,*,#185,.F.);
#116=ORIENTED_EDGE('',*,*,#200,.T.);
#117=ORIENTED_EDGE('',*,*,#201,.T.);
#118=ORIENTED_EDGE('',*,*,#202,.T.);
#119=ORIENTED_EDGE('',*,*,#203,.T.);
#120=ORIENTED_EDGE('',*,*,#204,.T.);
#121=ORIENTED_EDGE('',*,*,#205,.T.);
#122=ORIENTED_EDGE('',*,*,#206,.T.);
#123=ORIENTED_EDGE('',*,*,#207,.T.);
#124=ORIENTED_EDGE('',*,*,#190,.T.);
#125=ORIENTED_EDGE('',*,*,#188,.T.);
#126=ORIENTED_EDGE('',*,*,#186,.T.);
#127=ORIENTED_EDGE('',*,*,#184,.T.);
#128=ORIENTED_EDGE('',*,*,#208,.F.);
#129=ORIENTED_EDGE('',*,*,#205,.F.);
#130=ORIENTED_EDGE('',*,*,#209,.F.);
#131=ORIENTED_EDGE('',*,*,#197,.F.);
#132=ORIENTED_EDGE('',*,*,#209,.T.);
#133=ORIENTED_EDGE('',*,*,#204,.F.);
#134=ORIENTED_EDGE('',*,*,#210,.F.);
#135=ORIENTED_EDGE('',*,*,#198,.F.);
#136=ORIENTED_EDGE('',*,*,#208,.T.);
#137=ORIENTED_EDGE('',*,*,#196,.F.);
#138=ORIENTED_EDGE('',*,*,#211,.F.);
#139=ORIENTED_EDGE('',*,*,#206,.F.);
#140=ORIENTED_EDGE('',*,*,#210,.T.);
#141=ORIENTED_EDGE('',*,*,#203,.F.);
#142=ORIENTED_EDGE('',*,*,#212,.F.);
#143=ORIENTED_EDGE('',*,*,#199,.F.);
#144=ORIENTED_EDGE('',*,*,#211,.T.);
#145=ORIENTED_EDGE('',*,*,#195,.F.);
#146=ORIENTED_EDGE('',*,*,#213,.F.);
#147=ORIENTED_EDGE('',*,*,#207,.F.);
#148=ORIENTED_EDGE('',*,*,#212,.T.);
#149=ORIENTED_EDGE('',*,*,#202,.F.);
#150=ORIENTED_EDGE('',*,*,#214,.F.);
#151=ORIENTED_EDGE('',*,*,#192,.F.);
#152=ORIENTED_EDGE('',*,*,#213,.T.);
#153=ORIENTED_EDGE('',*,*,#194,.F.);
#154=ORIENTED_EDGE('',*,*,#215,.F.);
#155=ORIENTED_EDGE('',*,*,#200,.F.);
#156=ORIENTED_EDGE('',*,*,#214,.T.);
#157=ORIENTED_EDGE('',*,*,#201,.F.);
#158=ORIENTED_EDGE('',*,*,#215,.T.);
#159=ORIENTED_EDGE('',*,*,#193,.F.);
#160=EDGE_CURVE('',#216,#217,#256,.T.);
#161=EDGE_CURVE('',#217,#218,#257,.T.);
#162=EDGE_CURVE('',#219,#218,#258,.T.);
#163=EDGE_CURVE('',#216,#219,#259,.T.);
#164=EDGE_CURVE('',#217,#220,#16,.T.);
#165=EDGE_CURVE('',#220,#221,#260,.T.);
#166=EDGE_CURVE('',#218,#221,#17,.T.);
#167=EDGE_CURVE('',#220,#222,#261,.T.);
#168=EDGE_CURVE('',#222,#223,#262,.T.);
#169=EDGE_CURVE('',#221,#223,#263,.T.);
#170=EDGE_CURVE('',#222,#224,#18,.T.);
#171=EDGE_CURVE('',#224,#225,#264,.T.);
#172=EDGE_CURVE('',#223,#225,#19,.T.);
#173=EDGE_CURVE('',#226,#224,#265,.T.);
#174=EDGE_CURVE('',#226,#227,#266,.T.);
#175=EDGE_CURVE('',#227,#225,#267,.T.);
#176=EDGE_CURVE('',#226,#228,#20,.T.);
#177=EDGE_CURVE('',#228,#229,#268,.T.);
#178=EDGE_CURVE('',#227,#229,#21,.T.);
#179=EDGE_CURVE('',#230,#228,#269,.T.);
#180=EDGE_CURVE('',#230,#231,#270,.T.);
#181=EDGE_CURVE('',#231,#229,#271,.T.);
#182=EDGE_CURVE('',#230,#216,#22,.T.);
#183=EDGE_CURVE('',#231,#219,#23,.T.);
#184=EDGE_CURVE('',#232,#232,#24,.T.);
#185=EDGE_CURVE('',#233,#233,#25,.T.);
#186=EDGE_CURVE('',#234,#234,#26,.T.);
#187=EDGE_CURVE('',#235,#235,#27,.T.);
#188=EDGE_CURVE('',#236,#236,#28,.T.);
#189=EDGE_CURVE('',#237,#237,#29,.T.);
#190=EDGE_CURVE('',#238,#238,#30,.T.);
#191=EDGE_CURVE('',#239,#239,#31,.T.);
#192=EDGE_CURVE('',#240,#241,#32,.T.);
#193=EDGE_CURVE('',#241,#242,#272,.T.);
#194=EDGE_CURVE('',#242,#243,#33,.T.);
#195=EDGE_CURVE('',#243,#244,#273,.F.);
#196=EDGE_CURVE('',#244,#245,#34,.T.);
#197=EDGE_CURVE('',#245,#246,#274,.F.);
#198=EDGE_CURVE('',#246,#247,#35,.T.);
#199=EDGE_CURVE('',#247,#240,#275,.T.);
#200=EDGE_CURVE('',#248,#249,#36,.F.);
#201=EDGE_CURVE('',#249,#250,#276,.T.);
#202=EDGE_CURVE('',#250,#251,#37,.F.);
#203=EDGE_CURVE('',#251,#252,#277,.T.);
#204=EDGE_CURVE('',#252,#253,#38,.F.);
#205=EDGE_CURVE('',#253,#254,#278,.T.);
#206=EDGE_CURVE('',#254,#255,#39,.F.);
#207=EDGE_CURVE('',#255,#248,#279,.T.);
#208=EDGE_CURVE('',#254,#245,#280,.T.);
#209=EDGE_CURVE('',#246,#253,#281,.T.);
#210=EDGE_CURVE('',#247,#252,#282,.T.);
#211=EDGE_CURVE('',#255,#244,#283,.T.);
#212=EDGE_CURVE('',#240,#251,#284,.T.);
#213=EDGE_CURVE('',#248,#243,#285,.T.);
#214=EDGE_CURVE('',#241,#250,#286,.T.);
#215=EDGE_CURVE('',#249,#242,#287,.T.);
#216=VERTEX_POINT('',#617);
#217=VERTEX_POINT('',#618);
#218=VERTEX_POINT('',#620);
#219=VERTEX_POINT('',#622);
#220=VERTEX_POINT('',#626);
#221=VERTEX_POINT('',#628);
#222=VERTEX_POINT('',#632);
#223=VERTEX_POINT('',#634);
#224=VERTEX_POINT('',#638);
#225=VERTEX_POINT('',#640);
#226=VERTEX_POINT('',#644);
#227=VERTEX_POINT('',#646);
#228=VERTEX_POINT('',#650);
#229=VERTEX_POINT('',#652);
#230=VERTEX_POINT('',#656);
#231=VERTEX_POINT('',#658);
#232=VERTEX_POINT('',#666);
#233=VERTEX_POINT('',#668);
#234=VERTEX_POINT('',#671);
#235=VERTEX_POINT('',#673);
#236=VERTEX_POINT('',#676);
#237=VERTEX_POINT('',#678);
#238=VERTEX_POINT('',#681);
#239=VERTEX_POINT('',#683);
#240=VERTEX_POINT('',#686);
#241=VERTEX_POINT('',#687);
#242=VERTEX_POINT('',#689);
#243=VERTEX_POINT('',#691);
#244=VERTEX_POINT('',#693);
#245=VERTEX_POINT('',#695);
#246=VERTEX_POINT('',#697);
#247=VERTEX_POINT('',#699);
#248=VERTEX_POINT('',#703);
#249=VERTEX_POINT('',#704);
#250=VERTEX_POINT('',#706);
#251=VERTEX_POINT('',#708);
#252=VERTEX_POINT('',#710);
#253=VERTEX_POINT('',#712);
#254=VERTEX_POINT('',#714);
#255=VERTEX_POINT('',#716);
#256=LINE('',#616,#288);
#257=LINE('',#619,#289);
#258=LINE('',#621,#290);
#259=LINE('',#623,#291);
#260=LINE('',#627,#292);
#261=LINE('',#631,#293);
#262=LINE('',#633,#294);
#263=LINE('',#635,#295);
#264=LINE('',#639,#296);
#265=LINE('',#643,#297);
#266=LINE('',#645,#298);
#267=LINE('',#647,#299);
#268=LINE('',#651,#300);
#269=LINE('',#655,#301);
#270=LINE('',#657,#302);
#271=LINE('',#659,#303);
#272=LINE('',#688,#304);
#273=LINE('',#692,#305);
#274=LINE('',#696,#306);
#275=LINE('',#700,#307);
#276=LINE('',#705,#308);
#277=LINE('',#709,#309);
#278=LINE('',#713,#310);
#279=LINE('',#717,#311);
#280=LINE('',#719,#312);
#281=LINE('',#720,#313);
#282=LINE('',#722,#314);
#283=LINE('',#724,#315);
#284=LINE('',#726,#316);
#285=LINE('',#728,#317);
#286=LINE('',#730,#318);
#287=LINE('',#732,#319);
#288=VECTOR('',#490,1.);
#289=VECTOR('',#491,1.);
#290=VECTOR('',#492,1.);
#291=VECTOR('',#493,1.);
#292=VECTOR('',#498,1.);
#293=VECTOR('',#503,1.);
#294=VECTOR('',#504,1.);
#295=VECTOR('',#505,1.);
#296=VECTOR('',#510,1.);
#297=VECTOR('',#515,1.);
#298=VECTOR('',#516,1.);
#299=VECTOR('',#517,1.);
#300=VECTOR('',#522,1.);
#301=VECTOR('',#527,1.);
#302=VECTOR('',#528,1.);
#303=VECTOR('',#529,1.);
#304=VECTOR('',#566,1.);
#305=VECTOR('',#569,1.);
#306=VECTOR('',#572,1.);
#307=VECTOR('',#575,1.);
#308=VECTOR('',#580,1.);
#309=VECTOR('',#583,1.);
#310=VECTOR('',#586,1.);
#311=VECTOR('',#589,1.);
#312=VECTOR('',#592,1.);
#313=VECTOR('',#593,1.);
#314=VECTOR('',#596,1.);
#315=VECTOR('',#599,1.);
#316=VECTOR('',#602,1.);
#317=VECTOR('',#605,1.);
#318=VECTOR('',#608,1.);
#319=VECTOR('',#611,1.);
#320=EDGE_LOOP('',(#48,#49,#50,#51));
#321=EDGE_LOOP('',(#52,#53,#54,#55));
#322=EDGE_LOOP('',(#56,#57,#58,#59));
#323=EDGE_LOOP('',(#60,#61,#62,#63));
#324=EDGE_LOOP('',(#64,#65,#66,#67));
#325=EDGE_LOOP('',(#68,#69,#70,#71));
#326=EDGE_LOOP('',(#72,#73,#74,#75));
#327=EDGE_LOOP('',(#76,#77,#78,#79));
#328=EDGE_LOOP('',(#80,#81,#82,#83,#84,#85,#86,#87));
#329=EDGE_LOOP('',(#88));
#330=EDGE_LOOP('',(#89));
#331=EDGE_LOOP('',(#90));
#332=EDGE_LOOP('',(#91));
#333=EDGE_LOOP('',(#92));
#334=EDGE_LOOP('',(#93));
#335=EDGE_LOOP('',(#94));
#336=EDGE_LOOP('',(#95));
#337=EDGE_LOOP('',(#96,#97,#98,#99,#100,#101,#102,#103));
#338=EDGE_LOOP('',(#104));
#339=EDGE_LOOP('',(#105,#106,#107,#108,#109,#110,#111,#112));
#340=EDGE_LOOP('',(#113));
#341=EDGE_LOOP('',(#114));
#342=EDGE_LOOP('',(#115));
#343=EDGE_LOOP('',(#116,#117,#118,#119,#120,#121,#122,#123));
#344=EDGE_LOOP('',(#124));
#345=EDGE_LOOP('',(#125));
#346=EDGE_LOOP('',(#126));
#347=EDGE_LOOP('',(#127));
#348=EDGE_LOOP('',(#128,#129,#130,#131));
#349=EDGE_LOOP('',(#132,#133,#134,#135));
#350=EDGE_LOOP('',(#136,#137,#138,#139));
#351=EDGE_LOOP('',(#140,#141,#142,#143));
#352=EDGE_LOOP('',(#144,#145,#146,#147));
#353=EDGE_LOOP('',(#148,#149,#150,#151));
#354=EDGE_LOOP('',(#152,#153,#154,#155));
#355=EDGE_LOOP('',(#156,#157,#158,#159));
#356=FACE_BOUND('',#320,.T.);
#357=FACE_BOUND('',#321,.T.);
#358=FACE_BOUND('',#322,.T.);
#359=FACE_BOUND('',#323,.T.);
#360=FACE_BOUND('',#324,.T.);
#361=FACE_BOUND('',#325,.T.);
#362=FACE_BOUND('',#326,.T.);
#363=FACE_BOUND('',#327,.T.);
#364=FACE_BOUND('',#328,.T.);
#365=FACE_BOUND('',#329,.T.);
#366=FACE_BOUND('',#330,.T.);
#367=FACE_BOUND('',#331,.T.);
#368=FACE_BOUND('',#332,.T.);
#369=FACE_BOUND('',#333,.T.);
#370=FACE_BOUND('',#334,.T.);
#371=FACE_BOUND('',#335,.T.);
#372=FACE_BOUND('',#336,.T.);
#373=FACE_BOUND('',#337,.T.);
#374=FACE_BOUND('',#338,.T.);
#375=FACE_BOUND('',#339,.T.);
#376=FACE_BOUND('',#340,.T.);
#377=FACE_BOUND('',#341,.T.);
#378=FACE_BOUND('',#342,.T.);
#379=FACE_BOUND('',#343,.T.);
#380=FACE_BOUND('',#344,.T.);
#381=FACE_BOUND('',#345,.T.);
#382=FACE_BOUND('',#346,.T.);
#383=FACE_BOUND('',#347,.T.);
#384=FACE_BOUND('',#348,.T.);
#385=FACE_BOUND('',#349,.T.);
#386=FACE_BOUND('',#350,.T.);
#387=FACE_BOUND('',#351,.T.);
#388=FACE_BOUND('',#352,.T.);
#389=FACE_BOUND('',#353,.T.);
#390=FACE_BOUND('',#354,.T.);
#391=FACE_BOUND('',#355,.T.);
#392=PLANE('',#439);
#393=PLANE('',#443);
#394=PLANE('',#447);
#395=PLANE('',#451);
#396=PLANE('',#455);
#397=PLANE('',#468);
#398=PLANE('',#473);
#399=PLANE('',#478);
#400=PLANE('',#481);
#401=PLANE('',#482);
#402=PLANE('',#485);
#403=ADVANCED_FACE('',(#356),#392,.T.);
#404=ADVANCED_FACE('',(#357),#40,.T.);
#405=ADVANCED_FACE('',(#358),#393,.T.);
#406=ADVANCED_FACE('',(#359),#41,.T.);
#407=ADVANCED_FACE('',(#360),#394,.F.);
#408=ADVANCED_FACE('',(#361),#42,.T.);
#409=ADVANCED_FACE('',(#362),#395,.F.);
#410=ADVANCED_FACE('',(#363),#43,.T.);
#411=ADVANCED_FACE('',(#364),#396,.T.);
#412=ADVANCED_FACE('',(#365,#366),#44,.F.);
#413=ADVANCED_FACE('',(#367,#368),#45,.F.);
#414=ADVANCED_FACE('',(#369,#370),#46,.F.);
#415=ADVANCED_FACE('',(#371,#372),#47,.F.);
#416=ADVANCED_FACE('',(#373,#374,#375,#376,#377,#378),#397,.T.);
#417=ADVANCED_FACE('',(#379,#380,#381,#382,#383),#398,.F.);
#418=ADVANCED_FACE('',(#384),#399,.F.);
#419=ADVANCED_FACE('',(#385),#12,.T.);
#420=ADVANCED_FACE('',(#386),#13,.T.);
#421=ADVANCED_FACE('',(#387),#400,.T.);
#422=ADVANCED_FACE('',(#388),#401,.F.);
#423=ADVANCED_FACE('',(#389),#14,.T.);
#424=ADVANCED_FACE('',(#390),#15,.T.);
#425=ADVANCED_FACE('',(#391),#402,.T.);
#426=CLOSED_SHELL('',(#403,#404,#405,#406,#407,#408,#409,#410,#411,#412,
#413,#414,#415,#416,#417,#418,#419,#420,#421,#422,#423,#424,#425));
#427=STYLED_ITEM('',(#428),#435);
#428=PRESENTATION_STYLE_ASSIGNMENT((#429));
#429=SURFACE_STYLE_USAGE(.BOTH.,#430);
#430=SURFACE_SIDE_STYLE('',(#431));
#431=SURFACE_STYLE_FILL_AREA(#432);
#432=FILL_AREA_STYLE('',(#433));
#433=FILL_AREA_STYLE_COLOUR('',#434);
#434=COLOUR_RGB('',0.615686274509804,0.811764705882353,0.929411764705882);
#435=MANIFOLD_SOLID_BREP('battery hatch',#426);
#436=SHAPE_DEFINITION_REPRESENTATION(#740,#437);
#437=SHAPE_REPRESENTATION('battery hatch',(#438),#735);
#438=AXIS2_PLACEMENT_3D('',#614,#486,#487);
#439=AXIS2_PLACEMENT_3D('',#615,#488,#489);
#440=AXIS2_PLACEMENT_3D('',#624,#494,#495);
#441=AXIS2_PLACEMENT_3D('',#625,#496,#497);
#442=AXIS2_PLACEMENT_3D('',#629,#499,#500);
#443=AXIS2_PLACEMENT_3D('',#630,#501,#502);
#444=AXIS2_PLACEMENT_3D('',#636,#506,#507);
#445=AXIS2_PLACEMENT_3D('',#637,#508,#509);
#446=AXIS2_PLACEMENT_3D('',#641,#511,#512);
#447=AXIS2_PLACEMENT_3D('',#642,#513,#514);
#448=AXIS2_PLACEMENT_3D('',#648,#518,#519);
#449=AXIS2_PLACEMENT_3D('',#649,#520,#521);
#450=AXIS2_PLACEMENT_3D('',#653,#523,#524);
#451=AXIS2_PLACEMENT_3D('',#654,#525,#526);
#452=AXIS2_PLACEMENT_3D('',#660,#530,#531);
#453=AXIS2_PLACEMENT_3D('',#661,#532,#533);
#454=AXIS2_PLACEMENT_3D('',#662,#534,#535);
#455=AXIS2_PLACEMENT_3D('',#663,#536,#537);
#456=AXIS2_PLACEMENT_3D('',#664,#538,#539);
#457=AXIS2_PLACEMENT_3D('',#665,#540,#541);
#458=AXIS2_PLACEMENT_3D('',#667,#542,#543);
#459=AXIS2_PLACEMENT_3D('',#669,#544,#545);
#460=AXIS2_PLACEMENT_3D('',#670,#546,#547);
#461=AXIS2_PLACEMENT_3D('',#672,#548,#549);
#462=AXIS2_PLACEMENT_3D('',#674,#550,#551);
#463=AXIS2_PLACEMENT_3D('',#675,#552,#553);
#464=AXIS2_PLACEMENT_3D('',#677,#554,#555);
#465=AXIS2_PLACEMENT_3D('',#679,#556,#557);
#466=AXIS2_PLACEMENT_3D('',#680,#558,#559);
#467=AXIS2_PLACEMENT_3D('',#682,#560,#561);
#468=AXIS2_PLACEMENT_3D('',#684,#562,#563);
#469=AXIS2_PLACEMENT_3D('',#685,#564,#565);
#470=AXIS2_PLACEMENT_3D('',#690,#567,#568);
#471=AXIS2_PLACEMENT_3D('',#694,#570,#571);
#472=AXIS2_PLACEMENT_3D('',#698,#573,#574);
#473=AXIS2_PLACEMENT_3D('',#701,#576,#577);
#474=AXIS2_PLACEMENT_3D('',#702,#578,#579);
#475=AXIS2_PLACEMENT_3D('',#707,#581,#582);
#476=AXIS2_PLACEMENT_3D('',#711,#584,#585);
#477=AXIS2_PLACEMENT_3D('',#715,#587,#588);
#478=AXIS2_PLACEMENT_3D('',#718,#590,#591);
#479=AXIS2_PLACEMENT_3D('',#721,#594,#595);
#480=AXIS2_PLACEMENT_3D('',#723,#597,#598);
#481=AXIS2_PLACEMENT_3D('',#725,#600,#601);
#482=AXIS2_PLACEMENT_3D('',#727,#603,#604);
#483=AXIS2_PLACEMENT_3D('',#729,#606,#607);
#484=AXIS2_PLACEMENT_3D('',#731,#609,#610);
#485=AXIS2_PLACEMENT_3D('',#733,#612,#613);
#486=DIRECTION('',(0.,0.,1.));
#487=DIRECTION('',(1.,0.,0.));
#488=DIRECTION('',(0.,-1.,0.));
#489=DIRECTION('',(0.,0.,-1.));
#490=DIRECTION('',(1.,0.,0.));
#491=DIRECTION('',(0.,0.,1.));
#492=DIRECTION('',(1.,0.,0.));
#493=DIRECTION('',(0.,0.,1.));
#494=DIRECTION('',(0.,0.,1.));
#495=DIRECTION('',(1.,0.,0.));
#496=DIRECTION('',(0.,0.,1.));
#497=DIRECTION('',(1.,0.,0.));
#498=DIRECTION('',(0.,0.,1.));
#499=DIRECTION('',(0.,0.,1.));
#500=DIRECTION('',(1.,0.,0.));
#501=DIRECTION('',(1.,0.,0.));
#502=DIRECTION('',(0.,0.,-1.));
#503=DIRECTION('',(0.,1.,0.));
#504=DIRECTION('',(0.,0.,1.));
#505=DIRECTION('',(0.,1.,0.));
#506=DIRECTION('',(0.,0.,1.));
#507=DIRECTION('',(1.,0.,0.));
#508=DIRECTION('',(0.,0.,1.));
#509=DIRECTION('',(1.,0.,0.));
#510=DIRECTION('',(0.,0.,1.));
#511=DIRECTION('',(0.,0.,1.));
#512=DIRECTION('',(1.,0.,0.));
#513=DIRECTION('',(0.,-1.,0.));
#514=DIRECTION('',(0.,0.,-1.));
#515=DIRECTION('',(1.,0.,0.));
#516=DIRECTION('',(0.,0.,1.));
#517=DIRECTION('',(1.,0.,0.));
#518=DIRECTION('',(0.,0.,1.));
#519=DIRECTION('',(1.,0.,0.));
#520=DIRECTION('',(0.,0.,1.));
#521=DIRECTION('',(1.,0.,0.));
#522=DIRECTION('',(0.,0.,1.));
#523=DIRECTION('',(0.,0.,1.));
#524=DIRECTION('',(1.,0.,0.));
#525=DIRECTION('',(1.,0.,0.));
#526=DIRECTION('',(0.,0.,-1.));
#527=DIRECTION('',(0.,1.,0.));
#528=DIRECTION('',(0.,0.,1.));
#529=DIRECTION('',(0.,1.,0.));
#530=DIRECTION('',(0.,0.,1.));
#531=DIRECTION('',(1.,0.,0.));
#532=DIRECTION('',(0.,0.,1.));
#533=DIRECTION('',(1.,0.,0.));
#534=DIRECTION('',(0.,0.,1.));
#535=DIRECTION('',(1.,0.,0.));
#536=DIRECTION('',(0.,0.,1.));
#537=DIRECTION('',(1.,0.,0.));
#538=DIRECTION('',(0.,0.,1.));
#539=DIRECTION('',(1.,0.,0.));
#540=DIRECTION('',(0.,0.,1.));
#541=DIRECTION('',(1.,0.,0.));
#542=DIRECTION('',(0.,0.,1.));
#543=DIRECTION('',(1.,0.,0.));
#544=DIRECTION('',(0.,0.,1.));
#545=DIRECTION('',(1.,0.,0.));
#546=DIRECTION('',(0.,0.,1.));
#547=DIRECTION('',(1.,0.,0.));
#548=DIRECTION('',(0.,0.,1.));
#549=DIRECTION('',(1.,0.,0.));
#550=DIRECTION('',(0.,0.,1.));
#551=DIRECTION('',(1.,0.,0.));
#552=DIRECTION('',(0.,0.,1.));
#553=DIRECTION('',(1.,0.,0.));
#554=DIRECTION('',(0.,0.,1.));
#555=DIRECTION('',(1.,0.,0.));
#556=DIRECTION('',(0.,0.,1.));
#557=DIRECTION('',(1.,0.,0.));
#558=DIRECTION('',(0.,0.,1.));
#559=DIRECTION('',(1.,0.,0.));
#560=DIRECTION('',(0.,0.,1.));
#561=DIRECTION('',(1.,0.,0.));
#562=DIRECTION('',(0.,0.,1.));
#563=DIRECTION('',(1.,0.,0.));
#564=DIRECTION('',(0.,0.,1.));
#565=DIRECTION('',(1.,0.,0.));
#566=DIRECTION('',(0.,1.,0.));
#567=DIRECTION('',(0.,0.,1.));
#568=DIRECTION('',(1.,0.,0.));
#569=DIRECTION('',(1.,2.05565870295054E-16,0.));
#570=DIRECTION('',(0.,0.,1.));
#571=DIRECTION('',(1.,0.,0.));
#572=DIRECTION('',(0.,1.,0.));
#573=DIRECTION('',(0.,0.,1.));
#574=DIRECTION('',(1.,0.,0.));
#575=DIRECTION('',(1.,4.79653697355126E-16,0.));
#576=DIRECTION('',(0.,0.,1.));
#577=DIRECTION('',(1.,0.,0.));
#578=DIRECTION('',(0.,0.,1.));
#579=DIRECTION('',(1.,0.,0.));
#580=DIRECTION('',(0.,-1.,0.));
#581=DIRECTION('',(0.,0.,1.));
#582=DIRECTION('',(1.,0.,0.));
#583=DIRECTION('',(-1.,-4.79653697355126E-16,0.));
#584=DIRECTION('',(0.,0.,1.));
#585=DIRECTION('',(1.,0.,0.));
#586=DIRECTION('',(0.,1.,0.));
#587=DIRECTION('',(0.,0.,1.));
#588=DIRECTION('',(1.,0.,0.));
#589=DIRECTION('',(1.,2.05565870295054E-16,0.));
#590=DIRECTION('',(0.90630778703665,0.,0.422618261740699));
#591=DIRECTION('',(0.,1.,0.));
#592=DIRECTION('',(-0.422618261740699,0.,0.90630778703665));
#593=DIRECTION('',(0.422618261740699,0.,-0.90630778703665));
#594=DIRECTION('',(0.,0.,1.));
#595=DIRECTION('',(1.,0.,0.));
#596=DIRECTION('',(0.,0.422618261740699,-0.90630778703665));
#597=DIRECTION('',(0.,0.,1.));
#598=DIRECTION('',(1.,0.,0.));
#599=DIRECTION('',(0.,0.422618261740697,0.906307787036651));
#600=DIRECTION('',(4.34713880993872E-16,-0.90630778703665,-0.422618261740699));
#601=DIRECTION('',(-1.,-4.79653697355126E-16,0.));
#602=DIRECTION('',(0.,0.422618261740699,-0.90630778703665));
#603=DIRECTION('',(1.86305948997373E-16,-0.90630778703665,0.4226182617407));
#604=DIRECTION('',(1.,2.05565870295054E-16,0.));
#605=DIRECTION('',(0.,0.422618261740699,0.90630778703665));
#606=DIRECTION('',(0.,0.,1.));
#607=DIRECTION('',(1.,0.,0.));
#608=DIRECTION('',(-0.422618261740699,0.,-0.90630778703665));
#609=DIRECTION('',(0.,0.,1.));
#610=DIRECTION('',(1.,0.,0.));
#611=DIRECTION('',(0.422618261740699,0.,0.90630778703665));
#612=DIRECTION('',(0.90630778703665,0.,-0.422618261740699));
#613=DIRECTION('',(0.,-1.,0.));
#614=CARTESIAN_POINT('',(0.,0.,0.));
#615=CARTESIAN_POINT('',(0.340493,-0.04371,-0.04828));
#616=CARTESIAN_POINT('',(0.340493,-0.04371,-0.04628));
#617=CARTESIAN_POINT('',(0.300993,-0.04371,-0.04628));
#618=CARTESIAN_POINT('',(0.379993,-0.04371,-0.04628));
#619=CARTESIAN_POINT('',(0.379993,-0.04371,-0.04828));
#620=CARTESIAN_POINT('',(0.379993,-0.04371,-0.04478));
#621=CARTESIAN_POINT('',(0.340493,-0.04371,-0.04478));
#622=CARTESIAN_POINT('',(0.300993,-0.04371,-0.04478));
#623=CARTESIAN_POINT('',(0.300993,-0.04371,-0.04828));
#624=CARTESIAN_POINT('',(0.379993,-0.04121,-0.04828));
#625=CARTESIAN_POINT('',(0.379993,-0.04121,-0.04628));
#626=CARTESIAN_POINT('',(0.382493,-0.04121,-0.04628));
#627=CARTESIAN_POINT('',(0.382493,-0.04121,-0.04828));
#628=CARTESIAN_POINT('',(0.382493,-0.04121,-0.04478));
#629=CARTESIAN_POINT('',(0.379993,-0.04121,-0.04478));
#630=CARTESIAN_POINT('',(0.382493,-0.00321,-0.04828));
#631=CARTESIAN_POINT('',(0.382493,-0.00321,-0.04628));
#632=CARTESIAN_POINT('',(0.382493,0.03479,-0.04628));
#633=CARTESIAN_POINT('',(0.382493,0.03479,-0.04828));
#634=CARTESIAN_POINT('',(0.382493,0.03479,-0.04478));
#635=CARTESIAN_POINT('',(0.382493,-0.00321,-0.04478));
#636=CARTESIAN_POINT('',(0.379993,0.03479,-0.04828));
#637=CARTESIAN_POINT('',(0.379993,0.03479,-0.04628));
#638=CARTESIAN_POINT('',(0.379993,0.03729,-0.04628));
#639=CARTESIAN_POINT('',(0.379993,0.03729,-0.04828));
#640=CARTESIAN_POINT('',(0.379993,0.03729,-0.04478));
#641=CARTESIAN_POINT('',(0.379993,0.03479,-0.04478));
#642=CARTESIAN_POINT('',(0.340493,0.03729,-0.04828));
#643=CARTESIAN_POINT('',(0.340493,0.03729,-0.04628));
#644=CARTESIAN_POINT('',(0.300993,0.03729,-0.04628));
#645=CARTESIAN_POINT('',(0.300993,0.03729,-0.04828));
#646=CARTESIAN_POINT('',(0.300993,0.03729,-0.04478));
#647=CARTESIAN_POINT('',(0.340493,0.03729,-0.04478));
#648=CARTESIAN_POINT('',(0.300993,0.03479,-0.04828));
#649=CARTESIAN_POINT('',(0.300993,0.03479,-0.04628));
#650=CARTESIAN_POINT('',(0.298493,0.03479,-0.04628));
#651=CARTESIAN_POINT('',(0.298493,0.03479,-0.04828));
#652=CARTESIAN_POINT('',(0.298493,0.03479,-0.04478));
#653=CARTESIAN_POINT('',(0.300993,0.03479,-0.04478));
#654=CARTESIAN_POINT('',(0.298493,-0.00321,-0.04828));
#655=CARTESIAN_POINT('',(0.298493,-0.00321,-0.04628));
#656=CARTESIAN_POINT('',(0.298493,-0.04121,-0.04628));
#657=CARTESIAN_POINT('',(0.298493,-0.04121,-0.04828));
#658=CARTESIAN_POINT('',(0.298493,-0.04121,-0.04478));
#659=CARTESIAN_POINT('',(0.298493,-0.00321,-0.04478));
#660=CARTESIAN_POINT('',(0.300993,-0.04121,-0.04828));
#661=CARTESIAN_POINT('',(0.300993,-0.04121,-0.04628));
#662=CARTESIAN_POINT('',(0.300993,-0.04121,-0.04478));
#663=CARTESIAN_POINT('',(0.314,-0.0120441230485261,-0.04478));
#664=CARTESIAN_POINT('',(0.295227738009559,0.040336327990804,-0.04828));
#665=CARTESIAN_POINT('',(0.295227738009559,0.040336327990804,-0.04828));
#666=CARTESIAN_POINT('',(0.296802738009559,0.040336327990804,-0.04828));
#667=CARTESIAN_POINT('',(0.295227738009559,0.040336327990804,-0.04628));
#668=CARTESIAN_POINT('',(0.296802738009559,0.040336327990804,-0.04628));
#669=CARTESIAN_POINT('',(0.380993,0.04129,-0.04828));
#670=CARTESIAN_POINT('',(0.380993,0.04129,-0.04828));
#671=CARTESIAN_POINT('',(0.382568,0.04129,-0.04828));
#672=CARTESIAN_POINT('',(0.380993,0.04129,-0.04628));
#673=CARTESIAN_POINT('',(0.382568,0.04129,-0.04628));
#674=CARTESIAN_POINT('',(0.380993,-0.04771,-0.04828));
#675=CARTESIAN_POINT('',(0.380993,-0.04771,-0.04828));
#676=CARTESIAN_POINT('',(0.382568,-0.04771,-0.04828));
#677=CARTESIAN_POINT('',(0.380993,-0.04771,-0.04628));
#678=CARTESIAN_POINT('',(0.382568,-0.04771,-0.04628));
#679=CARTESIAN_POINT('',(0.295227738009559,-0.046756327990804,-0.04828));
#680=CARTESIAN_POINT('',(0.295227738009559,-0.046756327990804,-0.04828));
#681=CARTESIAN_POINT('',(0.296802738009559,-0.046756327990804,-0.04828));
#682=CARTESIAN_POINT('',(0.295227738009559,-0.046756327990804,-0.04628));
#683=CARTESIAN_POINT('',(0.296802738009559,-0.046756327990804,-0.04628));
#684=CARTESIAN_POINT('',(0.314,-0.0120441230485261,-0.04628));
#685=CARTESIAN_POINT('',(0.386993,-0.0482563279908039,-0.04628));
#686=CARTESIAN_POINT('',(0.386993,-0.0521889433071139,-0.04628));
#687=CARTESIAN_POINT('',(0.39092561531631,-0.0482563279908039,-0.04628));
#688=CARTESIAN_POINT('',(0.39092561531631,-0.0120441230485261,-0.04628));
#689=CARTESIAN_POINT('',(0.39092561531631,0.041836327990804,-0.04628));
#690=CARTESIAN_POINT('',(0.386993,0.041836327990804,-0.04628));
#691=CARTESIAN_POINT('',(0.386993,0.045768943307114,-0.04628));
#692=CARTESIAN_POINT('',(0.314,0.045768943307114,-0.04628));
#693=CARTESIAN_POINT('',(0.293727738009559,0.045768943307114,-0.04628));
#694=CARTESIAN_POINT('',(0.293727738009559,0.041836327990804,-0.04628));
#695=CARTESIAN_POINT('',(0.289795122693249,0.041836327990804,-0.04628));
#696=CARTESIAN_POINT('',(0.289795122693249,-0.0120441230485261,-0.04628));
#697=CARTESIAN_POINT('',(0.289795122693249,-0.048256327990804,-0.04628));
#698=CARTESIAN_POINT('',(0.293727738009559,-0.048256327990804,-0.04628));
#699=CARTESIAN_POINT('',(0.293727738009559,-0.052188943307114,-0.04628));
#700=CARTESIAN_POINT('',(0.314,-0.052188943307114,-0.04628));
#701=CARTESIAN_POINT('',(0.314,-0.0120441230485261,-0.04828));
#702=CARTESIAN_POINT('',(0.386993,0.041836327990804,-0.04828));
#703=CARTESIAN_POINT('',(0.386993,0.0448363279908041,-0.04828));
#704=CARTESIAN_POINT('',(0.389993,0.041836327990804,-0.04828));
#705=CARTESIAN_POINT('',(0.389993,-0.0482563279908039,-0.04828));
#706=CARTESIAN_POINT('',(0.389993,-0.0482563279908039,-0.04828));
#707=CARTESIAN_POINT('',(0.386993,-0.0482563279908039,-0.04828));
#708=CARTESIAN_POINT('',(0.386993,-0.051256327990804,-0.04828));
#709=CARTESIAN_POINT('',(0.293727738009559,-0.051256327990804,-0.04828));
#710=CARTESIAN_POINT('',(0.293727738009559,-0.051256327990804,-0.04828));
#711=CARTESIAN_POINT('',(0.293727738009559,-0.048256327990804,-0.04828));
#712=CARTESIAN_POINT('',(0.290727738009559,-0.048256327990804,-0.04828));
#713=CARTESIAN_POINT('',(0.290727738009559,-0.0120441230485261,-0.04828));
#714=CARTESIAN_POINT('',(0.290727738009559,0.041836327990804,-0.04828));
#715=CARTESIAN_POINT('',(0.293727738009559,0.041836327990804,-0.04828));
#716=CARTESIAN_POINT('',(0.293727738009559,0.044836327990804,-0.04828));
#717=CARTESIAN_POINT('',(0.314,0.044836327990804,-0.04828));
#718=CARTESIAN_POINT('',(0.290727738009559,-0.0120441230485261,-0.04828));
#719=CARTESIAN_POINT('',(0.290727738009559,0.041836327990804,-0.04828));
#720=CARTESIAN_POINT('',(0.289727738009559,-0.048256327990804,-0.0461354930794904));
#721=CARTESIAN_POINT('',(0.293727738009559,-0.048256327990804,-0.04828));
#722=CARTESIAN_POINT('',(0.293727738009559,-0.052256327990804,-0.0461354930794904));
#723=CARTESIAN_POINT('',(0.293727738009559,0.041836327990804,-0.04828));
#724=CARTESIAN_POINT('',(0.293727738009559,0.044836327990804,-0.04828));
#725=CARTESIAN_POINT('',(0.34036036900478,-0.052256327990804,-0.0461354930794904));
#726=CARTESIAN_POINT('',(0.386993,-0.0522563279908039,-0.0461354930794904));
#727=CARTESIAN_POINT('',(0.314,0.044836327990804,-0.04828));
#728=CARTESIAN_POINT('',(0.386993,0.0448363279908041,-0.04828));
#729=CARTESIAN_POINT('',(0.386993,-0.0482563279908039,-0.04828));
#730=CARTESIAN_POINT('',(0.390993,-0.0482563279908039,-0.0461354930794904));
#731=CARTESIAN_POINT('',(0.386993,0.041836327990804,-0.04828));
#732=CARTESIAN_POINT('',(0.389993,0.041836327990804,-0.04828));
#733=CARTESIAN_POINT('',(0.390993,-0.00320999999999995,-0.0461354930794904));
#734=MECHANICAL_DESIGN_GEOMETRIC_PRESENTATION_REPRESENTATION('',(#427),
#735);
#735=(
GEOMETRIC_REPRESENTATION_CONTEXT(3)
GLOBAL_UNCERTAINTY_ASSIGNED_CONTEXT((#736))
GLOBAL_UNIT_ASSIGNED_CONTEXT((#739,#738,#737))
REPRESENTATION_CONTEXT('battery hatch','TOP_LEVEL_ASSEMBLY_PART')
);
#736=UNCERTAINTY_MEASURE_WITH_UNIT(LENGTH_MEASURE(1.E-8),#739,
'DISTANCE_ACCURACY_VALUE','Maximum Tolerance applied to model');
#737=(
NAMED_UNIT(*)
SI_UNIT($,.STERADIAN.)
SOLID_ANGLE_UNIT()
);
#738=(
NAMED_UNIT(*)
PLANE_ANGLE_UNIT()
SI_UNIT($,.RADIAN.)
);
#739=(
LENGTH_UNIT()
NAMED_UNIT(*)
SI_UNIT($,.METRE.)
);
#740=PRODUCT_DEFINITION_SHAPE('','',#741);
#741=PRODUCT_DEFINITION('','',#743,#742);
#742=PRODUCT_DEFINITION_CONTEXT('',#749,'design');
#743=PRODUCT_DEFINITION_FORMATION_WITH_SPECIFIED_SOURCE('','',#745,
 .NOT_KNOWN.);
#744=PRODUCT_RELATED_PRODUCT_CATEGORY('','',(#745));
#745=PRODUCT('battery hatch','battery hatch','battery hatch',(#747));
#746=PRODUCT_CATEGORY('','');
#747=PRODUCT_CONTEXT('',#749,'mechanical');
#748=APPLICATION_PROTOCOL_DEFINITION('international standard',
'ap242_managed_model_based_3d_engineering',2020,#749);
#749=APPLICATION_CONTEXT('managed model based 3d engineering');
ENDSEC;
END-ISO-10303-21;
