ISO-10303-21;
HEADER;
/* Generated by software containing ST-Developer
 * from STEP Tools, Inc. (www.steptools.com) 
 */
/* OPTION: using custom renumber hook */

FILE_DESCRIPTION(
/* description */ ('STEP AP242 Edition 2',
'CAx-IF Rec.Pracs.---Representation and Presentation of Product Manufa
cturing Information (PMI)---4.0---2014-10-13',
'CAx-IF Rec.Pracs.---3D Tessellated Geometry---0.4---2014-09-14','2;1',
'CAx-IF Rec.Pracs.---User Defined Attributes---1.5---2016-08-15'),
/* implementation_level */ '2;1');

FILE_NAME(
/* name */ 
'Open-Flight-Monitor-2 - Kick-Stand__-_Master-Open-Flight-Monitor---Co
mbine2-',
/* time_stamp */ '2026-09-14T06:14:40Z',
/* author */ (''),
/* organization */ (''),
/* preprocessor_version */ 'ST-DEVELOPER v20',
/* originating_system */ 'ONSHAPE BY PTC INC, 1.220',
/* authorisation */ '  ');

FILE_SCHEMA (('AP242_MANAGED_MODEL_BASED_3D_ENGINEERING_MIM_LF { 1 0 10303 442 3 1 4 }'));
ENDSEC;

DATA;
#10=SHAPE_REPRESENTATION_RELATIONSHIP('','',#569,#11);
#11=ADVANCED_BREP_SHAPE_REPRESENTATION('',(#567),#995);
#12=PLANE('',#588);
#13=PLANE('',#597);
#14=PLANE('',#599);
#15=PLANE('',#603);
#16=PLANE('',#607);
#17=PLANE('',#608);
#18=PLANE('',#612);
#19=PLANE('',#613);
#20=PLANE('',#616);
#21=PLANE('',#619);
#22=PLANE('',#620);
#23=PLANE('',#621);
#24=PLANE('',#643);
#25=PLANE('',#644);
#26=LINE('',#852,#64);
#27=LINE('',#856,#65);
#28=LINE('',#866,#66);
#29=LINE('',#870,#67);
#30=LINE('',#872,#68);
#31=LINE('',#874,#69);
#32=LINE('',#876,#70);
#33=LINE('',#880,#71);
#34=LINE('',#885,#72);
#35=LINE('',#889,#73);
#36=LINE('',#894,#74);
#37=LINE('',#898,#75);
#38=LINE('',#899,#76);
#39=LINE('',#903,#77);
#40=LINE('',#905,#78);
#41=LINE('',#907,#79);
#42=LINE('',#909,#80);
#43=LINE('',#913,#81);
#44=LINE('',#917,#82);
#45=LINE('',#919,#83);
#46=LINE('',#921,#84);
#47=LINE('',#925,#85);
#48=LINE('',#929,#86);
#49=LINE('',#930,#87);
#50=LINE('',#932,#88);
#51=LINE('',#933,#89);
#52=LINE('',#936,#90);
#53=LINE('',#937,#91);
#54=LINE('',#939,#92);
#55=LINE('',#945,#93);
#56=LINE('',#946,#94);
#57=LINE('',#948,#95);
#58=LINE('',#952,#96);
#59=LINE('',#956,#97);
#60=LINE('',#961,#98);
#61=LINE('',#962,#99);
#62=LINE('',#966,#100);
#63=LINE('',#969,#101);
#64=VECTOR('',#667,1.);
#65=VECTOR('',#670,1.);
#66=VECTOR('',#681,1.);
#67=VECTOR('',#684,1.);
#68=VECTOR('',#687,1.);
#69=VECTOR('',#690,1.);
#70=VECTOR('',#691,1.);
#71=VECTOR('',#696,1.);
#72=VECTOR('',#699,1.);
#73=VECTOR('',#704,1.);
#74=VECTOR('',#707,1.);
#75=VECTOR('',#712,1.);
#76=VECTOR('',#713,1.);
#77=VECTOR('',#716,1.);
#78=VECTOR('',#719,1.);
#79=VECTOR('',#720,1.);
#80=VECTOR('',#721,1.);
#81=VECTOR('',#726,1.);
#82=VECTOR('',#731,1.);
#83=VECTOR('',#732,1.);
#84=VECTOR('',#733,1.);
#85=VECTOR('',#738,1.);
#86=VECTOR('',#743,1.);
#87=VECTOR('',#744,1.);
#88=VECTOR('',#747,1.);
#89=VECTOR('',#748,1.);
#90=VECTOR('',#749,1.);
#91=VECTOR('',#750,1.);
#92=VECTOR('',#753,1.);
#93=VECTOR('',#760,1.);
#94=VECTOR('',#761,1.);
#95=VECTOR('',#764,1.);
#96=VECTOR('',#767,1.);
#97=VECTOR('',#770,1.);
#98=VECTOR('',#775,1.);
#99=VECTOR('',#776,1.);
#100=VECTOR('',#779,1.);
#101=VECTOR('',#784,1.);
#102=CYLINDRICAL_SURFACE('',#576,0.0019500000000001);
#103=CYLINDRICAL_SURFACE('',#579,0.00315000000000005);
#104=CYLINDRICAL_SURFACE('',#582,0.00195);
#105=CYLINDRICAL_SURFACE('',#585,0.00315000000000005);
#106=CYLINDRICAL_SURFACE('',#589,0.01);
#107=CYLINDRICAL_SURFACE('',#591,0.01);
#108=CYLINDRICAL_SURFACE('',#594,0.009);
#109=CYLINDRICAL_SURFACE('',#600,0.015);
#110=CYLINDRICAL_SURFACE('',#604,0.015);
#111=CYLINDRICAL_SURFACE('',#609,0.009);
#112=CYLINDRICAL_SURFACE('',#625,0.0015);
#113=CYLINDRICAL_SURFACE('',#627,0.0015);
#114=CYLINDRICAL_SURFACE('',#633,0.0015);
#115=CYLINDRICAL_SURFACE('',#634,0.0015);
#116=CYLINDRICAL_SURFACE('',#638,0.0015);
#117=CYLINDRICAL_SURFACE('',#640,0.0015);
#118=ORIENTED_EDGE('',*,*,#270,.F.);
#119=ORIENTED_EDGE('',*,*,#271,.F.);
#120=ORIENTED_EDGE('',*,*,#272,.F.);
#121=ORIENTED_EDGE('',*,*,#273,.T.);
#122=ORIENTED_EDGE('',*,*,#274,.T.);
#123=ORIENTED_EDGE('',*,*,#275,.F.);
#124=ORIENTED_EDGE('',*,*,#276,.F.);
#125=ORIENTED_EDGE('',*,*,#277,.T.);
#126=ORIENTED_EDGE('',*,*,#278,.T.);
#127=ORIENTED_EDGE('',*,*,#279,.F.);
#128=ORIENTED_EDGE('',*,*,#280,.T.);
#129=ORIENTED_EDGE('',*,*,#281,.F.);
#130=ORIENTED_EDGE('',*,*,#282,.F.);
#131=ORIENTED_EDGE('',*,*,#283,.F.);
#132=ORIENTED_EDGE('',*,*,#284,.F.);
#133=ORIENTED_EDGE('',*,*,#285,.T.);
#134=ORIENTED_EDGE('',*,*,#280,.F.);
#135=ORIENTED_EDGE('',*,*,#286,.F.);
#136=ORIENTED_EDGE('',*,*,#282,.T.);
#137=ORIENTED_EDGE('',*,*,#287,.F.);
#138=ORIENTED_EDGE('',*,*,#272,.T.);
#139=ORIENTED_EDGE('',*,*,#288,.F.);
#140=ORIENTED_EDGE('',*,*,#289,.F.);
#141=ORIENTED_EDGE('',*,*,#290,.F.);
#142=ORIENTED_EDGE('',*,*,#291,.T.);
#143=ORIENTED_EDGE('',*,*,#292,.F.);
#144=ORIENTED_EDGE('',*,*,#293,.F.);
#145=ORIENTED_EDGE('',*,*,#294,.T.);
#146=ORIENTED_EDGE('',*,*,#295,.T.);
#147=ORIENTED_EDGE('',*,*,#296,.F.);
#148=ORIENTED_EDGE('',*,*,#297,.T.);
#149=ORIENTED_EDGE('',*,*,#298,.T.);
#150=ORIENTED_EDGE('',*,*,#276,.T.);
#151=ORIENTED_EDGE('',*,*,#296,.T.);
#152=ORIENTED_EDGE('',*,*,#299,.T.);
#153=ORIENTED_EDGE('',*,*,#300,.T.);
#154=ORIENTED_EDGE('',*,*,#301,.T.);
#155=ORIENTED_EDGE('',*,*,#302,.F.);
#156=ORIENTED_EDGE('',*,*,#293,.T.);
#157=ORIENTED_EDGE('',*,*,#303,.T.);
#158=ORIENTED_EDGE('',*,*,#304,.F.);
#159=ORIENTED_EDGE('',*,*,#305,.T.);
#160=ORIENTED_EDGE('',*,*,#306,.F.);
#161=ORIENTED_EDGE('',*,*,#307,.F.);
#162=ORIENTED_EDGE('',*,*,#304,.T.);
#163=ORIENTED_EDGE('',*,*,#308,.T.);
#164=ORIENTED_EDGE('',*,*,#309,.F.);
#165=ORIENTED_EDGE('',*,*,#310,.F.);
#166=ORIENTED_EDGE('',*,*,#306,.T.);
#167=ORIENTED_EDGE('',*,*,#311,.T.);
#168=ORIENTED_EDGE('',*,*,#312,.F.);
#169=ORIENTED_EDGE('',*,*,#313,.F.);
#170=ORIENTED_EDGE('',*,*,#309,.T.);
#171=ORIENTED_EDGE('',*,*,#314,.T.);
#172=ORIENTED_EDGE('',*,*,#289,.T.);
#173=ORIENTED_EDGE('',*,*,#315,.F.);
#174=ORIENTED_EDGE('',*,*,#312,.T.);
#175=ORIENTED_EDGE('',*,*,#284,.T.);
#176=ORIENTED_EDGE('',*,*,#316,.F.);
#177=ORIENTED_EDGE('',*,*,#317,.F.);
#178=ORIENTED_EDGE('',*,*,#318,.T.);
#179=ORIENTED_EDGE('',*,*,#270,.T.);
#180=ORIENTED_EDGE('',*,*,#319,.T.);
#181=ORIENTED_EDGE('',*,*,#320,.F.);
#182=ORIENTED_EDGE('',*,*,#321,.T.);
#183=ORIENTED_EDGE('',*,*,#317,.T.);
#184=ORIENTED_EDGE('',*,*,#322,.T.);
#185=ORIENTED_EDGE('',*,*,#320,.T.);
#186=ORIENTED_EDGE('',*,*,#323,.T.);
#187=ORIENTED_EDGE('',*,*,#294,.F.);
#188=ORIENTED_EDGE('',*,*,#324,.T.);
#189=ORIENTED_EDGE('',*,*,#288,.T.);
#190=ORIENTED_EDGE('',*,*,#325,.T.);
#191=ORIENTED_EDGE('',*,*,#326,.T.);
#192=ORIENTED_EDGE('',*,*,#327,.T.);
#193=ORIENTED_EDGE('',*,*,#328,.T.);
#194=ORIENTED_EDGE('',*,*,#329,.T.);
#195=ORIENTED_EDGE('',*,*,#290,.T.);
#196=ORIENTED_EDGE('',*,*,#302,.T.);
#197=ORIENTED_EDGE('',*,*,#307,.T.);
#198=ORIENTED_EDGE('',*,*,#310,.T.);
#199=ORIENTED_EDGE('',*,*,#313,.T.);
#200=ORIENTED_EDGE('',*,*,#315,.T.);
#201=ORIENTED_EDGE('',*,*,#330,.T.);
#202=ORIENTED_EDGE('',*,*,#331,.T.);
#203=ORIENTED_EDGE('',*,*,#287,.T.);
#204=ORIENTED_EDGE('',*,*,#314,.F.);
#205=ORIENTED_EDGE('',*,*,#311,.F.);
#206=ORIENTED_EDGE('',*,*,#308,.F.);
#207=ORIENTED_EDGE('',*,*,#305,.F.);
#208=ORIENTED_EDGE('',*,*,#303,.F.);
#209=ORIENTED_EDGE('',*,*,#292,.T.);
#210=ORIENTED_EDGE('',*,*,#332,.T.);
#211=ORIENTED_EDGE('',*,*,#333,.T.);
#212=ORIENTED_EDGE('',*,*,#334,.T.);
#213=ORIENTED_EDGE('',*,*,#281,.T.);
#214=ORIENTED_EDGE('',*,*,#278,.F.);
#215=ORIENTED_EDGE('',*,*,#335,.T.);
#216=ORIENTED_EDGE('',*,*,#275,.T.);
#217=ORIENTED_EDGE('',*,*,#274,.F.);
#218=ORIENTED_EDGE('',*,*,#336,.F.);
#219=ORIENTED_EDGE('',*,*,#295,.F.);
#220=ORIENTED_EDGE('',*,*,#337,.F.);
#221=ORIENTED_EDGE('',*,*,#333,.F.);
#222=ORIENTED_EDGE('',*,*,#337,.T.);
#223=ORIENTED_EDGE('',*,*,#323,.F.);
#224=ORIENTED_EDGE('',*,*,#338,.F.);
#225=ORIENTED_EDGE('',*,*,#334,.F.);
#226=ORIENTED_EDGE('',*,*,#336,.T.);
#227=ORIENTED_EDGE('',*,*,#332,.F.);
#228=ORIENTED_EDGE('',*,*,#339,.F.);
#229=ORIENTED_EDGE('',*,*,#299,.F.);
#230=ORIENTED_EDGE('',*,*,#338,.T.);
#231=ORIENTED_EDGE('',*,*,#322,.F.);
#232=ORIENTED_EDGE('',*,*,#340,.F.);
#233=ORIENTED_EDGE('',*,*,#330,.F.);
#234=ORIENTED_EDGE('',*,*,#339,.T.);
#235=ORIENTED_EDGE('',*,*,#291,.F.);
#236=ORIENTED_EDGE('',*,*,#341,.F.);
#237=ORIENTED_EDGE('',*,*,#300,.F.);
#238=ORIENTED_EDGE('',*,*,#340,.T.);
#239=ORIENTED_EDGE('',*,*,#319,.F.);
#240=ORIENTED_EDGE('',*,*,#273,.F.);
#241=ORIENTED_EDGE('',*,*,#331,.F.);
#242=ORIENTED_EDGE('',*,*,#341,.T.);
#243=ORIENTED_EDGE('',*,*,#329,.F.);
#244=ORIENTED_EDGE('',*,*,#342,.F.);
#245=ORIENTED_EDGE('',*,*,#301,.F.);
#246=ORIENTED_EDGE('',*,*,#342,.T.);
#247=ORIENTED_EDGE('',*,*,#328,.F.);
#248=ORIENTED_EDGE('',*,*,#343,.F.);
#249=ORIENTED_EDGE('',*,*,#297,.F.);
#250=ORIENTED_EDGE('',*,*,#271,.T.);
#251=ORIENTED_EDGE('',*,*,#318,.F.);
#252=ORIENTED_EDGE('',*,*,#344,.F.);
#253=ORIENTED_EDGE('',*,*,#325,.F.);
#254=ORIENTED_EDGE('',*,*,#343,.T.);
#255=ORIENTED_EDGE('',*,*,#327,.F.);
#256=ORIENTED_EDGE('',*,*,#345,.F.);
#257=ORIENTED_EDGE('',*,*,#324,.F.);
#258=ORIENTED_EDGE('',*,*,#344,.T.);
#259=ORIENTED_EDGE('',*,*,#321,.F.);
#260=ORIENTED_EDGE('',*,*,#345,.T.);
#261=ORIENTED_EDGE('',*,*,#326,.F.);
#262=ORIENTED_EDGE('',*,*,#279,.T.);
#263=ORIENTED_EDGE('',*,*,#335,.F.);
#264=ORIENTED_EDGE('',*,*,#277,.F.);
#265=ORIENTED_EDGE('',*,*,#298,.F.);
#266=ORIENTED_EDGE('',*,*,#285,.F.);
#267=ORIENTED_EDGE('',*,*,#316,.T.);
#268=ORIENTED_EDGE('',*,*,#283,.T.);
#269=ORIENTED_EDGE('',*,*,#286,.T.);
#270=EDGE_CURVE('NONE',#346,#347,#394,.F.);
#271=EDGE_CURVE('NONE',#348,#346,#395,.F.);
#272=EDGE_CURVE('NONE',#349,#348,#396,.F.);
#273=EDGE_CURVE('NONE',#349,#347,#397,.F.);
#274=EDGE_CURVE('NONE',#350,#350,#398,.T.);
#275=EDGE_CURVE('NONE',#351,#351,#399,.T.);
#276=EDGE_CURVE('NONE',#352,#353,#400,.T.);
#277=EDGE_CURVE('NONE',#352,#354,#26,.T.);
#278=EDGE_CURVE('NONE',#354,#355,#401,.T.);
#279=EDGE_CURVE('NONE',#353,#355,#27,.F.);
#280=EDGE_CURVE('NONE',#356,#356,#402,.T.);
#281=EDGE_CURVE('NONE',#357,#357,#403,.T.);
#282=EDGE_CURVE('NONE',#358,#359,#404,.T.);
#283=EDGE_CURVE('NONE',#360,#358,#28,.F.);
#284=EDGE_CURVE('NONE',#361,#360,#405,.F.);
#285=EDGE_CURVE('NONE',#361,#359,#29,.F.);
#286=EDGE_CURVE('NONE',#358,#359,#30,.T.);
#287=EDGE_CURVE('NONE',#349,#362,#31,.T.);
#288=EDGE_CURVE('NONE',#363,#348,#32,.F.);
#289=EDGE_CURVE('NONE',#362,#363,#406,.F.);
#290=EDGE_CURVE('NONE',#364,#365,#33,.F.);
#291=EDGE_CURVE('NONE',#364,#366,#407,.T.);
#292=EDGE_CURVE('NONE',#367,#366,#34,.T.);
#293=EDGE_CURVE('NONE',#365,#367,#408,.T.);
#294=EDGE_CURVE('NONE',#368,#369,#35,.T.);
#295=EDGE_CURVE('NONE',#369,#370,#409,.T.);
#296=EDGE_CURVE('NONE',#371,#370,#36,.F.);
#297=EDGE_CURVE('NONE',#371,#368,#410,.F.);
#298=EDGE_CURVE('NONE',#353,#352,#37,.F.);
#299=EDGE_CURVE('NONE',#370,#372,#38,.T.);
#300=EDGE_CURVE('NONE',#372,#373,#411,.F.);
#301=EDGE_CURVE('NONE',#373,#371,#39,.F.);
#302=EDGE_CURVE('NONE',#365,#374,#40,.F.);
#303=EDGE_CURVE('NONE',#367,#375,#41,.F.);
#304=EDGE_CURVE('NONE',#374,#375,#42,.T.);
#305=EDGE_CURVE('NONE',#375,#376,#412,.F.);
#306=EDGE_CURVE('NONE',#377,#376,#43,.F.);
#307=EDGE_CURVE('NONE',#374,#377,#413,.F.);
#308=EDGE_CURVE('NONE',#376,#378,#44,.T.);
#309=EDGE_CURVE('NONE',#379,#378,#45,.T.);
#310=EDGE_CURVE('NONE',#377,#379,#46,.T.);
#311=EDGE_CURVE('NONE',#378,#380,#414,.F.);
#312=EDGE_CURVE('NONE',#381,#380,#47,.F.);
#313=EDGE_CURVE('NONE',#379,#381,#415,.F.);
#314=EDGE_CURVE('NONE',#380,#362,#48,.F.);
#315=EDGE_CURVE('NONE',#381,#363,#49,.T.);
#316=EDGE_CURVE('NONE',#361,#360,#50,.F.);
#317=EDGE_CURVE('NONE',#382,#383,#51,.T.);
#318=EDGE_CURVE('NONE',#382,#346,#52,.T.);
#319=EDGE_CURVE('NONE',#347,#383,#53,.F.);
#320=EDGE_CURVE('NONE',#384,#385,#54,.T.);
#321=EDGE_CURVE('NONE',#384,#382,#416,.F.);
#322=EDGE_CURVE('NONE',#383,#385,#417,.T.);
#323=EDGE_CURVE('NONE',#385,#369,#55,.F.);
#324=EDGE_CURVE('NONE',#368,#384,#56,.T.);
#325=EDGE_CURVE('NONE',#348,#386,#57,.F.);
#326=EDGE_CURVE('NONE',#386,#387,#418,.F.);
#327=EDGE_CURVE('NONE',#387,#388,#58,.F.);
#328=EDGE_CURVE('NONE',#388,#389,#419,.F.);
#329=EDGE_CURVE('NONE',#389,#364,#59,.T.);
#330=EDGE_CURVE('NONE',#390,#391,#420,.T.);
#331=EDGE_CURVE('NONE',#391,#349,#60,.T.);
#332=EDGE_CURVE('NONE',#366,#392,#61,.F.);
#333=EDGE_CURVE('NONE',#392,#393,#421,.T.);
#334=EDGE_CURVE('NONE',#393,#390,#62,.T.);
#335=EDGE_CURVE('NONE',#354,#355,#63,.T.);
#336=EDGE_CURVE('NONE',#370,#392,#422,.T.);
#337=EDGE_CURVE('NONE',#393,#369,#423,.F.);
#338=EDGE_CURVE('NONE',#390,#385,#424,.F.);
#339=EDGE_CURVE('NONE',#372,#366,#425,.T.);
#340=EDGE_CURVE('NONE',#391,#383,#426,.F.);
#341=EDGE_CURVE('NONE',#373,#364,#427,.T.);
#342=EDGE_CURVE('NONE',#371,#389,#428,.F.);
#343=EDGE_CURVE('NONE',#368,#388,#429,.T.);
#344=EDGE_CURVE('NONE',#386,#382,#430,.T.);
#345=EDGE_CURVE('NONE',#384,#387,#431,.F.);
#346=VERTEX_POINT('',#836);
#347=VERTEX_POINT('',#837);
#348=VERTEX_POINT('',#839);
#349=VERTEX_POINT('',#841);
#350=VERTEX_POINT('',#845);
#351=VERTEX_POINT('',#847);
#352=VERTEX_POINT('',#850);
#353=VERTEX_POINT('',#851);
#354=VERTEX_POINT('',#853);
#355=VERTEX_POINT('',#855);
#356=VERTEX_POINT('',#859);
#357=VERTEX_POINT('',#861);
#358=VERTEX_POINT('',#864);
#359=VERTEX_POINT('',#865);
#360=VERTEX_POINT('',#867);
#361=VERTEX_POINT('',#869);
#362=VERTEX_POINT('',#875);
#363=VERTEX_POINT('',#877);
#364=VERTEX_POINT('',#881);
#365=VERTEX_POINT('',#882);
#366=VERTEX_POINT('',#884);
#367=VERTEX_POINT('',#886);
#368=VERTEX_POINT('',#890);
#369=VERTEX_POINT('',#891);
#370=VERTEX_POINT('',#893);
#371=VERTEX_POINT('',#895);
#372=VERTEX_POINT('',#900);
#373=VERTEX_POINT('',#902);
#374=VERTEX_POINT('',#906);
#375=VERTEX_POINT('',#908);
#376=VERTEX_POINT('',#912);
#377=VERTEX_POINT('',#914);
#378=VERTEX_POINT('',#918);
#379=VERTEX_POINT('',#920);
#380=VERTEX_POINT('',#924);
#381=VERTEX_POINT('',#926);
#382=VERTEX_POINT('',#934);
#383=VERTEX_POINT('',#935);
#384=VERTEX_POINT('',#940);
#385=VERTEX_POINT('',#941);
#386=VERTEX_POINT('',#949);
#387=VERTEX_POINT('',#951);
#388=VERTEX_POINT('',#953);
#389=VERTEX_POINT('',#955);
#390=VERTEX_POINT('',#959);
#391=VERTEX_POINT('',#960);
#392=VERTEX_POINT('',#963);
#393=VERTEX_POINT('',#965);
#394=CIRCLE('',#572,0.0085);
#395=CIRCLE('',#573,0.0015);
#396=CIRCLE('',#574,0.01);
#397=CIRCLE('',#575,0.0015);
#398=CIRCLE('',#577,0.0019500000000001);
#399=CIRCLE('',#578,0.0019500000000001);
#400=CIRCLE('',#580,0.00315000000000005);
#401=CIRCLE('',#581,0.00315000000000005);
#402=CIRCLE('',#583,0.00195);
#403=CIRCLE('',#584,0.00195);
#404=CIRCLE('',#586,0.00315000000000005);
#405=CIRCLE('',#587,0.00315000000000005);
#406=CIRCLE('',#590,0.01);
#407=CIRCLE('',#592,0.01);
#408=CIRCLE('',#593,0.01);
#409=CIRCLE('',#595,0.009);
#410=CIRCLE('',#596,0.009);
#411=CIRCLE('',#598,0.0085);
#412=CIRCLE('',#601,0.015);
#413=CIRCLE('',#602,0.015);
#414=CIRCLE('',#605,0.015);
#415=CIRCLE('',#606,0.015);
#416=CIRCLE('',#610,0.009);
#417=CIRCLE('',#611,0.009);
#418=CIRCLE('',#614,0.0105);
#419=CIRCLE('',#615,0.0105);
#420=CIRCLE('',#617,0.0105);
#421=CIRCLE('',#618,0.0105);
#422=CIRCLE('',#623,0.0015);
#423=CIRCLE('',#624,0.0015);
#424=CIRCLE('',#626,0.0015);
#425=CIRCLE('',#628,0.0015);
#426=CIRCLE('',#630,0.0015);
#427=CIRCLE('',#632,0.0015);
#428=CIRCLE('',#635,0.0015);
#429=CIRCLE('',#637,0.0015);
#430=CIRCLE('',#639,0.0015);
#431=CIRCLE('',#641,0.0015);
#432=EDGE_LOOP('',(#118,#119,#120,#121));
#433=EDGE_LOOP('',(#122));
#434=EDGE_LOOP('',(#123));
#435=EDGE_LOOP('',(#124,#125,#126,#127));
#436=EDGE_LOOP('',(#128));
#437=EDGE_LOOP('',(#129));
#438=EDGE_LOOP('',(#130,#131,#132,#133));
#439=EDGE_LOOP('',(#134));
#440=EDGE_LOOP('',(#135,#136));
#441=EDGE_LOOP('',(#137,#138,#139,#140));
#442=EDGE_LOOP('',(#141,#142,#143,#144));
#443=EDGE_LOOP('',(#145,#146,#147,#148));
#444=EDGE_LOOP('',(#149,#150));
#445=EDGE_LOOP('',(#151,#152,#153,#154));
#446=EDGE_LOOP('',(#155,#156,#157,#158));
#447=EDGE_LOOP('',(#159,#160,#161,#162));
#448=EDGE_LOOP('',(#163,#164,#165,#166));
#449=EDGE_LOOP('',(#167,#168,#169,#170));
#450=EDGE_LOOP('',(#171,#172,#173,#174));
#451=EDGE_LOOP('',(#175,#176));
#452=EDGE_LOOP('',(#177,#178,#179,#180));
#453=EDGE_LOOP('',(#181,#182,#183,#184));
#454=EDGE_LOOP('',(#185,#186,#187,#188));
#455=EDGE_LOOP('',(#189,#190,#191,#192,#193,#194,#195,#196,#197,#198,#199,
#200));
#456=EDGE_LOOP('',(#201,#202,#203,#204,#205,#206,#207,#208,#209,#210,#211,
#212));
#457=EDGE_LOOP('',(#213));
#458=EDGE_LOOP('',(#214,#215));
#459=EDGE_LOOP('',(#216));
#460=EDGE_LOOP('',(#217));
#461=EDGE_LOOP('',(#218,#219,#220,#221));
#462=EDGE_LOOP('',(#222,#223,#224,#225));
#463=EDGE_LOOP('',(#226,#227,#228,#229));
#464=EDGE_LOOP('',(#230,#231,#232,#233));
#465=EDGE_LOOP('',(#234,#235,#236,#237));
#466=EDGE_LOOP('',(#238,#239,#240,#241));
#467=EDGE_LOOP('',(#242,#243,#244,#245));
#468=EDGE_LOOP('',(#246,#247,#248,#249));
#469=EDGE_LOOP('',(#250,#251,#252,#253));
#470=EDGE_LOOP('',(#254,#255,#256,#257));
#471=EDGE_LOOP('',(#258,#259,#260,#261));
#472=EDGE_LOOP('',(#262,#263,#264,#265));
#473=EDGE_LOOP('',(#266,#267,#268,#269));
#474=FACE_BOUND('',#432,.T.);
#475=FACE_BOUND('',#433,.T.);
#476=FACE_BOUND('',#434,.T.);
#477=FACE_BOUND('',#435,.T.);
#478=FACE_BOUND('',#436,.T.);
#479=FACE_BOUND('',#437,.T.);
#480=FACE_BOUND('',#438,.T.);
#481=FACE_BOUND('',#439,.T.);
#482=FACE_BOUND('',#440,.T.);
#483=FACE_BOUND('',#441,.T.);
#484=FACE_BOUND('',#442,.T.);
#485=FACE_BOUND('',#443,.T.);
#486=FACE_BOUND('',#444,.T.);
#487=FACE_BOUND('',#445,.T.);
#488=FACE_BOUND('',#446,.T.);
#489=FACE_BOUND('',#447,.T.);
#490=FACE_BOUND('',#448,.T.);
#491=FACE_BOUND('',#449,.T.);
#492=FACE_BOUND('',#450,.T.);
#493=FACE_BOUND('',#451,.T.);
#494=FACE_BOUND('',#452,.T.);
#495=FACE_BOUND('',#453,.T.);
#496=FACE_BOUND('',#454,.T.);
#497=FACE_BOUND('',#455,.T.);
#498=FACE_BOUND('',#456,.T.);
#499=FACE_BOUND('',#457,.T.);
#500=FACE_BOUND('',#458,.T.);
#501=FACE_BOUND('',#459,.T.);
#502=FACE_BOUND('',#460,.T.);
#503=FACE_BOUND('',#461,.T.);
#504=FACE_BOUND('',#462,.T.);
#505=FACE_BOUND('',#463,.T.);
#506=FACE_BOUND('',#464,.T.);
#507=FACE_BOUND('',#465,.T.);
#508=FACE_BOUND('',#466,.T.);
#509=FACE_BOUND('',#467,.T.);
#510=FACE_BOUND('',#468,.T.);
#511=FACE_BOUND('',#469,.T.);
#512=FACE_BOUND('',#470,.T.);
#513=FACE_BOUND('',#471,.T.);
#514=FACE_BOUND('',#472,.T.);
#515=FACE_BOUND('',#473,.T.);
#516=TOROIDAL_SURFACE('',#571,0.0085,0.0015);
#517=TOROIDAL_SURFACE('',#622,0.0105,0.0015);
#518=TOROIDAL_SURFACE('',#629,0.0105,0.0015);
#519=TOROIDAL_SURFACE('',#631,0.0085,0.0015);
#520=TOROIDAL_SURFACE('',#636,0.0105,0.0015);
#521=TOROIDAL_SURFACE('',#642,0.0105,0.0015);
#522=ADVANCED_FACE('NONE',(#474),#516,.T.);
#523=ADVANCED_FACE('NONE',(#475,#476),#102,.F.);
#524=ADVANCED_FACE('NONE',(#477),#103,.F.);
#525=ADVANCED_FACE('NONE',(#478,#479),#104,.F.);
#526=ADVANCED_FACE('NONE',(#480),#105,.F.);
#527=ADVANCED_FACE('NONE',(#481,#482),#12,.F.);
#528=ADVANCED_FACE('NONE',(#483),#106,.T.);
#529=ADVANCED_FACE('NONE',(#484),#107,.T.);
#530=ADVANCED_FACE('NONE',(#485),#108,.F.);
#531=ADVANCED_FACE('NONE',(#486,#487),#13,.F.);
#532=ADVANCED_FACE('NONE',(#488),#14,.F.);
#533=ADVANCED_FACE('NONE',(#489),#109,.T.);
#534=ADVANCED_FACE('NONE',(#490),#15,.F.);
#535=ADVANCED_FACE('NONE',(#491),#110,.T.);
#536=ADVANCED_FACE('NONE',(#492),#16,.F.);
#537=ADVANCED_FACE('NONE',(#493,#494),#17,.F.);
#538=ADVANCED_FACE('NONE',(#495),#111,.F.);
#539=ADVANCED_FACE('NONE',(#496),#18,.F.);
#540=ADVANCED_FACE('NONE',(#497),#19,.T.);
#541=ADVANCED_FACE('NONE',(#498),#20,.F.);
#542=ADVANCED_FACE('NONE',(#499),#21,.F.);
#543=ADVANCED_FACE('NONE',(#500,#501),#22,.F.);
#544=ADVANCED_FACE('NONE',(#502),#23,.F.);
#545=ADVANCED_FACE('NONE',(#503),#517,.T.);
#546=ADVANCED_FACE('NONE',(#504),#112,.T.);
#547=ADVANCED_FACE('NONE',(#505),#113,.T.);
#548=ADVANCED_FACE('NONE',(#506),#518,.T.);
#549=ADVANCED_FACE('NONE',(#507),#519,.T.);
#550=ADVANCED_FACE('NONE',(#508),#114,.T.);
#551=ADVANCED_FACE('NONE',(#509),#115,.T.);
#552=ADVANCED_FACE('NONE',(#510),#520,.T.);
#553=ADVANCED_FACE('NONE',(#511),#116,.T.);
#554=ADVANCED_FACE('NONE',(#512),#117,.T.);
#555=ADVANCED_FACE('NONE',(#513),#521,.T.);
#556=ADVANCED_FACE('NONE',(#514),#24,.F.);
#557=ADVANCED_FACE('NONE',(#515),#25,.F.);
#558=CLOSED_SHELL('',(#522,#523,#524,#525,#526,#527,#528,#529,#530,#531,
#532,#533,#534,#535,#536,#537,#538,#539,#540,#541,#542,#543,#544,#545,#546,
#547,#548,#549,#550,#551,#552,#553,#554,#555,#556,#557));
#559=STYLED_ITEM('',(#560),#567);
#560=PRESENTATION_STYLE_ASSIGNMENT((#561));
#561=SURFACE_STYLE_USAGE(.BOTH.,#562);
#562=SURFACE_SIDE_STYLE('',(#563));
#563=SURFACE_STYLE_FILL_AREA(#564);
#564=FILL_AREA_STYLE('',(#565));
#565=FILL_AREA_STYLE_COLOUR('',#566);
#566=COLOUR_RGB('',0.792156862745098,0.819607843137255,0.933333333333333);
#567=MANIFOLD_SOLID_BREP(
'Kick-Stand__<_Master-Open-Flight-Monitor>-<Combine2>',#558);
#568=SHAPE_DEFINITION_REPRESENTATION(#1000,#569);
#569=SHAPE_REPRESENTATION(
'Kick-Stand__<_Master-Open-Flight-Monitor>-<Combine2>',(#570),#995);
#570=AXIS2_PLACEMENT_3D('',#833,#645,#646);
#571=AXIS2_PLACEMENT_3D('',#834,#647,#648);
#572=AXIS2_PLACEMENT_3D('',#835,#649,#650);
#573=AXIS2_PLACEMENT_3D('',#838,#651,#652);
#574=AXIS2_PLACEMENT_3D('',#840,#653,#654);
#575=AXIS2_PLACEMENT_3D('',#842,#655,#656);
#576=AXIS2_PLACEMENT_3D('',#843,#657,#658);
#577=AXIS2_PLACEMENT_3D('',#844,#659,#660);
#578=AXIS2_PLACEMENT_3D('',#846,#661,#662);
#579=AXIS2_PLACEMENT_3D('',#848,#663,#664);
#580=AXIS2_PLACEMENT_3D('',#849,#665,#666);
#581=AXIS2_PLACEMENT_3D('',#854,#668,#669);
#582=AXIS2_PLACEMENT_3D('',#857,#671,#672);
#583=AXIS2_PLACEMENT_3D('',#858,#673,#674);
#584=AXIS2_PLACEMENT_3D('',#860,#675,#676);
#585=AXIS2_PLACEMENT_3D('',#862,#677,#678);
#586=AXIS2_PLACEMENT_3D('',#863,#679,#680);
#587=AXIS2_PLACEMENT_3D('',#868,#682,#683);
#588=AXIS2_PLACEMENT_3D('',#871,#685,#686);
#589=AXIS2_PLACEMENT_3D('',#873,#688,#689);
#590=AXIS2_PLACEMENT_3D('',#878,#692,#693);
#591=AXIS2_PLACEMENT_3D('',#879,#694,#695);
#592=AXIS2_PLACEMENT_3D('',#883,#697,#698);
#593=AXIS2_PLACEMENT_3D('',#887,#700,#701);
#594=AXIS2_PLACEMENT_3D('',#888,#702,#703);
#595=AXIS2_PLACEMENT_3D('',#892,#705,#706);
#596=AXIS2_PLACEMENT_3D('',#896,#708,#709);
#597=AXIS2_PLACEMENT_3D('',#897,#710,#711);
#598=AXIS2_PLACEMENT_3D('',#901,#714,#715);
#599=AXIS2_PLACEMENT_3D('',#904,#717,#718);
#600=AXIS2_PLACEMENT_3D('',#910,#722,#723);
#601=AXIS2_PLACEMENT_3D('',#911,#724,#725);
#602=AXIS2_PLACEMENT_3D('',#915,#727,#728);
#603=AXIS2_PLACEMENT_3D('',#916,#729,#730);
#604=AXIS2_PLACEMENT_3D('',#922,#734,#735);
#605=AXIS2_PLACEMENT_3D('',#923,#736,#737);
#606=AXIS2_PLACEMENT_3D('',#927,#739,#740);
#607=AXIS2_PLACEMENT_3D('',#928,#741,#742);
#608=AXIS2_PLACEMENT_3D('',#931,#745,#746);
#609=AXIS2_PLACEMENT_3D('',#938,#751,#752);
#610=AXIS2_PLACEMENT_3D('',#942,#754,#755);
#611=AXIS2_PLACEMENT_3D('',#943,#756,#757);
#612=AXIS2_PLACEMENT_3D('',#944,#758,#759);
#613=AXIS2_PLACEMENT_3D('',#947,#762,#763);
#614=AXIS2_PLACEMENT_3D('',#950,#765,#766);
#615=AXIS2_PLACEMENT_3D('',#954,#768,#769);
#616=AXIS2_PLACEMENT_3D('',#957,#771,#772);
#617=AXIS2_PLACEMENT_3D('',#958,#773,#774);
#618=AXIS2_PLACEMENT_3D('',#964,#777,#778);
#619=AXIS2_PLACEMENT_3D('',#967,#780,#781);
#620=AXIS2_PLACEMENT_3D('',#968,#782,#783);
#621=AXIS2_PLACEMENT_3D('',#970,#785,#786);
#622=AXIS2_PLACEMENT_3D('',#971,#787,#788);
#623=AXIS2_PLACEMENT_3D('',#972,#789,#790);
#624=AXIS2_PLACEMENT_3D('',#973,#791,#792);
#625=AXIS2_PLACEMENT_3D('',#974,#793,#794);
#626=AXIS2_PLACEMENT_3D('',#975,#795,#796);
#627=AXIS2_PLACEMENT_3D('',#976,#797,#798);
#628=AXIS2_PLACEMENT_3D('',#977,#799,#800);
#629=AXIS2_PLACEMENT_3D('',#978,#801,#802);
#630=AXIS2_PLACEMENT_3D('',#979,#803,#804);
#631=AXIS2_PLACEMENT_3D('',#980,#805,#806);
#632=AXIS2_PLACEMENT_3D('',#981,#807,#808);
#633=AXIS2_PLACEMENT_3D('',#982,#809,#810);
#634=AXIS2_PLACEMENT_3D('',#983,#811,#812);
#635=AXIS2_PLACEMENT_3D('',#984,#813,#814);
#636=AXIS2_PLACEMENT_3D('',#985,#815,#816);
#637=AXIS2_PLACEMENT_3D('',#986,#817,#818);
#638=AXIS2_PLACEMENT_3D('',#987,#819,#820);
#639=AXIS2_PLACEMENT_3D('',#988,#821,#822);
#640=AXIS2_PLACEMENT_3D('',#989,#823,#824);
#641=AXIS2_PLACEMENT_3D('',#990,#825,#826);
#642=AXIS2_PLACEMENT_3D('',#991,#827,#828);
#643=AXIS2_PLACEMENT_3D('',#992,#829,#830);
#644=AXIS2_PLACEMENT_3D('',#993,#831,#832);
#645=DIRECTION('',(0.,0.,1.));
#646=DIRECTION('',(1.,0.,0.));
#647=DIRECTION('',(1.,-2.06267608115493E-16,0.));
#648=DIRECTION('',(2.06267608115493E-16,1.,0.));
#649=DIRECTION('',(1.,-2.06267608115493E-16,0.));
#650=DIRECTION('',(2.06267608115493E-16,1.,0.));
#651=DIRECTION('',(2.06267608115493E-16,1.,0.));
#652=DIRECTION('',(-1.,2.06267608115493E-16,0.));
#653=DIRECTION('',(-1.,0.,0.));
#654=DIRECTION('',(0.,0.,1.));
#655=DIRECTION('',(-2.06267608115493E-16,-1.,1.83697019872103E-16));
#656=DIRECTION('',(1.,-2.06267608115493E-16,0.));
#657=DIRECTION('',(-1.,-6.08674903851512E-16,0.));
#658=DIRECTION('',(6.08674903851512E-16,-1.,0.));
#659=DIRECTION('',(-1.,-6.08674903851512E-16,0.));
#660=DIRECTION('',(6.08674903851512E-16,-1.,0.));
#661=DIRECTION('',(-1.,-6.08674903851512E-16,0.));
#662=DIRECTION('',(6.08674903851512E-16,-1.,0.));
#663=DIRECTION('',(-1.,-6.08674903851512E-16,0.));
#664=DIRECTION('',(6.08674903851512E-16,-1.,0.));
#665=DIRECTION('',(-1.,-6.08674903851512E-16,0.));
#666=DIRECTION('',(6.08674903851512E-16,-1.,0.));
#667=DIRECTION('',(-1.,-6.08674903851512E-16,0.));
#668=DIRECTION('',(-1.,-6.08674903851512E-16,0.));
#669=DIRECTION('',(6.08674903851512E-16,-1.,0.));
#670=DIRECTION('',(1.,-6.08674903851512E-16,0.));
#671=DIRECTION('',(-1.,-6.08674903851512E-16,0.));
#672=DIRECTION('',(6.08674903851512E-16,-1.,0.));
#673=DIRECTION('',(-1.,-6.08674903851512E-16,0.));
#674=DIRECTION('',(6.08674903851512E-16,-1.,0.));
#675=DIRECTION('',(-1.,-6.08674903851512E-16,0.));
#676=DIRECTION('',(6.08674903851512E-16,-1.,0.));
#677=DIRECTION('',(-1.,-6.08674903851512E-16,0.));
#678=DIRECTION('',(6.08674903851512E-16,-1.,0.));
#679=DIRECTION('',(-1.,-6.08674903851512E-16,0.));
#680=DIRECTION('',(6.08674903851512E-16,-1.,0.));
#681=DIRECTION('',(-1.,-6.08674903851512E-16,0.));
#682=DIRECTION('',(-1.,-6.08674903851512E-16,0.));
#683=DIRECTION('',(6.08674903851512E-16,-1.,0.));
#684=DIRECTION('',(-1.,-6.08674903851512E-16,0.));
#685=DIRECTION('',(1.,6.08674903851512E-16,0.));
#686=DIRECTION('',(-6.08674903851512E-16,1.,0.));
#687=DIRECTION('',(0.,0.,1.));
#688=DIRECTION('',(-1.,0.,0.));
#689=DIRECTION('',(0.,0.,1.));
#690=DIRECTION('',(1.,0.,0.));
#691=DIRECTION('',(1.,0.,0.));
#692=DIRECTION('',(-1.,0.,0.));
#693=DIRECTION('',(0.,0.,1.));
#694=DIRECTION('',(-1.,0.,0.));
#695=DIRECTION('',(0.,0.,1.));
#696=DIRECTION('',(1.,0.,0.));
#697=DIRECTION('',(-1.,0.,0.));
#698=DIRECTION('',(0.,0.,1.));
#699=DIRECTION('',(1.,0.,0.));
#700=DIRECTION('',(-1.,0.,0.));
#701=DIRECTION('',(0.,0.,1.));
#702=DIRECTION('',(0.,0.,-1.));
#703=DIRECTION('',(-1.,0.,0.));
#704=DIRECTION('',(0.,0.,-1.));
#705=DIRECTION('',(0.,0.,-1.));
#706=DIRECTION('',(-1.,0.,0.));
#707=DIRECTION('',(0.,0.,1.));
#708=DIRECTION('',(0.,0.,-1.));
#709=DIRECTION('',(-1.,0.,0.));
#710=DIRECTION('',(-1.,0.,0.));
#711=DIRECTION('',(0.,0.,1.));
#712=DIRECTION('',(0.,0.,1.));
#713=DIRECTION('',(0.,1.,0.));
#714=DIRECTION('',(-1.,0.,0.));
#715=DIRECTION('',(0.,0.,1.));
#716=DIRECTION('',(0.,1.,0.));
#717=DIRECTION('',(1.,0.,0.));
#718=DIRECTION('',(0.,0.,-1.));
#719=DIRECTION('',(0.,1.,0.));
#720=DIRECTION('',(0.,1.,0.));
#721=DIRECTION('',(0.,0.,-1.));
#722=DIRECTION('',(0.,0.,-1.));
#723=DIRECTION('',(-1.,0.,0.));
#724=DIRECTION('',(0.,0.,-1.));
#725=DIRECTION('',(-1.,0.,0.));
#726=DIRECTION('',(0.,0.,1.));
#727=DIRECTION('',(0.,0.,-1.));
#728=DIRECTION('',(-1.,0.,0.));
#729=DIRECTION('',(0.,1.,0.));
#730=DIRECTION('',(0.,0.,1.));
#731=DIRECTION('',(1.,0.,0.));
#732=DIRECTION('',(0.,0.,-1.));
#733=DIRECTION('',(1.,0.,0.));
#734=DIRECTION('',(0.,0.,-1.));
#735=DIRECTION('',(-1.,0.,0.));
#736=DIRECTION('',(0.,0.,-1.));
#737=DIRECTION('',(-1.,0.,0.));
#738=DIRECTION('',(0.,0.,1.));
#739=DIRECTION('',(0.,0.,-1.));
#740=DIRECTION('',(-1.,0.,0.));
#741=DIRECTION('',(-1.,2.06267608115493E-16,0.));
#742=DIRECTION('',(-2.06267608115493E-16,-1.,0.));
#743=DIRECTION('',(-2.06267608115493E-16,-1.,0.));
#744=DIRECTION('',(0.,1.,0.));
#745=DIRECTION('',(1.,-2.06267608115493E-16,0.));
#746=DIRECTION('',(2.06267608115493E-16,1.,0.));
#747=DIRECTION('',(0.,0.,1.));
#748=DIRECTION('',(0.,0.,-1.));
#749=DIRECTION('',(2.06267608115493E-16,1.,0.));
#750=DIRECTION('',(2.06267608115493E-16,1.,0.));
#751=DIRECTION('',(0.,0.,-1.));
#752=DIRECTION('',(-1.,0.,0.));
#753=DIRECTION('',(0.,0.,-1.));
#754=DIRECTION('',(0.,0.,-1.));
#755=DIRECTION('',(-1.,0.,0.));
#756=DIRECTION('',(0.,0.,-1.));
#757=DIRECTION('',(-1.,0.,0.));
#758=DIRECTION('',(0.,-1.,0.));
#759=DIRECTION('',(0.,0.,-1.));
#760=DIRECTION('',(1.,0.,0.));
#761=DIRECTION('',(1.,0.,0.));
#762=DIRECTION('',(0.,0.,1.));
#763=DIRECTION('',(1.,0.,0.));
#764=DIRECTION('',(0.,1.,0.));
#765=DIRECTION('',(0.,0.,1.));
#766=DIRECTION('',(1.,0.,0.));
#767=DIRECTION('',(1.,0.,0.));
#768=DIRECTION('',(0.,0.,1.));
#769=DIRECTION('',(1.,0.,0.));
#770=DIRECTION('',(0.,1.,0.));
#771=DIRECTION('',(0.,0.,1.));
#772=DIRECTION('',(1.,0.,0.));
#773=DIRECTION('',(0.,0.,1.));
#774=DIRECTION('',(1.,0.,0.));
#775=DIRECTION('',(0.,1.,0.));
#776=DIRECTION('',(0.,1.,0.));
#777=DIRECTION('',(0.,0.,1.));
#778=DIRECTION('',(1.,0.,0.));
#779=DIRECTION('',(1.,0.,0.));
#780=DIRECTION('',(1.,6.08674903851512E-16,0.));
#781=DIRECTION('',(-6.08674903851512E-16,1.,0.));
#782=DIRECTION('',(-1.,-6.08674903851512E-16,0.));
#783=DIRECTION('',(6.08674903851512E-16,-1.,0.));
#784=DIRECTION('',(0.,0.,1.));
#785=DIRECTION('',(-1.,-6.08674903851512E-16,0.));
#786=DIRECTION('',(6.08674903851512E-16,-1.,0.));
#787=DIRECTION('',(0.,0.,1.));
#788=DIRECTION('',(1.,0.,0.));
#789=DIRECTION('',(0.,1.,0.));
#790=DIRECTION('',(0.,0.,1.));
#791=DIRECTION('',(-1.,0.,0.));
#792=DIRECTION('',(0.,0.,1.));
#793=DIRECTION('',(-1.,0.,0.));
#794=DIRECTION('',(0.,0.,1.));
#795=DIRECTION('',(-1.,1.83697019872103E-16,0.));
#796=DIRECTION('',(-1.83697019872103E-16,-1.,0.));
#797=DIRECTION('',(0.,1.,0.));
#798=DIRECTION('',(0.,0.,1.));
#799=DIRECTION('',(0.,1.,1.01064309961486E-15));
#800=DIRECTION('',(0.,-1.01064309961486E-15,1.));
#801=DIRECTION('',(0.,0.,1.));
#802=DIRECTION('',(1.,0.,0.));
#803=DIRECTION('',(-2.06267608115493E-16,-1.,0.));
#804=DIRECTION('',(1.,-2.06267608115493E-16,0.));
#805=DIRECTION('',(-1.,0.,0.));
#806=DIRECTION('',(0.,0.,1.));
#807=DIRECTION('',(0.,-1.,0.));
#808=DIRECTION('',(0.,0.,-1.));
#809=DIRECTION('',(-2.06267608115493E-16,-1.,0.));
#810=DIRECTION('',(1.,-2.06267608115493E-16,0.));
#811=DIRECTION('',(0.,-1.,0.));
#812=DIRECTION('',(0.,0.,-1.));
#813=DIRECTION('',(1.22464679914735E-16,1.,0.));
#814=DIRECTION('',(-1.,1.22464679914735E-16,0.));
#815=DIRECTION('',(0.,0.,1.));
#816=DIRECTION('',(1.,0.,0.));
#817=DIRECTION('',(1.,0.,0.));
#818=DIRECTION('',(0.,0.,-1.));
#819=DIRECTION('',(2.06267608115493E-16,1.,0.));
#820=DIRECTION('',(-1.,2.06267608115493E-16,0.));
#821=DIRECTION('',(0.,-1.,0.));
#822=DIRECTION('',(0.,0.,-1.));
#823=DIRECTION('',(1.,0.,0.));
#824=DIRECTION('',(0.,0.,-1.));
#825=DIRECTION('',(-1.,1.83697019872103E-16,0.));
#826=DIRECTION('',(-1.83697019872103E-16,-1.,0.));
#827=DIRECTION('',(0.,0.,1.));
#828=DIRECTION('',(1.,0.,0.));
#829=DIRECTION('',(6.08674903851512E-16,1.,0.));
#830=DIRECTION('',(1.,-6.08674903851512E-16,0.));
#831=DIRECTION('',(-6.08674903851512E-16,1.,0.));
#832=DIRECTION('',(-1.,-6.08674903851512E-16,0.));
#833=CARTESIAN_POINT('',(0.,0.,0.));
#834=CARTESIAN_POINT('',(0.092793,1.04083408558608E-17,-0.03628));
#835=CARTESIAN_POINT('',(0.091293,1.07177422680341E-17,-0.03628));
#836=CARTESIAN_POINT('',(0.091293,5.51357184010366E-18,-0.02778));
#837=CARTESIAN_POINT('',(0.091293,9.78232922749102E-18,-0.04478));
#838=CARTESIAN_POINT('',(0.092793,0.,-0.02778));
#839=CARTESIAN_POINT('',(0.092793,5.20417042793042E-18,-0.02628));
#840=CARTESIAN_POINT('',(0.092793,1.04083408558608E-17,-0.03628));
#841=CARTESIAN_POINT('',(0.092793,4.42345809347398E-18,-0.04628));
#842=CARTESIAN_POINT('',(0.092793,8.84691618694796E-18,-0.04478));
#843=CARTESIAN_POINT('',(0.097293,1.04083408558608E-17,-0.03628));
#844=CARTESIAN_POINT('',(-0.095893,-1.07179129119597E-16,-0.03628));
#845=CARTESIAN_POINT('',(-0.095893,-0.00195000000000021,-0.03628));
#846=CARTESIAN_POINT('',(-0.092093,-1.04866164484962E-16,-0.03628));
#847=CARTESIAN_POINT('',(-0.092093,-0.00195000000000021,-0.03628));
#848=CARTESIAN_POINT('',(0.097293,1.04083408558608E-17,-0.03628));
#849=CARTESIAN_POINT('',(-0.091293,-1.0437922456188E-16,-0.03628));
#850=CARTESIAN_POINT('',(-0.091293,0.0027,-0.0379024980739587));
#851=CARTESIAN_POINT('',(-0.091293,0.0027,-0.0346575019260413));
#852=CARTESIAN_POINT('',(0.097293,0.00270000000000013,-0.0379024980739587));
#853=CARTESIAN_POINT('',(-0.092093,0.00270000000000004,-0.0379024980739587));
#854=CARTESIAN_POINT('',(-0.092093,-1.04866164484962E-16,-0.03628));
#855=CARTESIAN_POINT('',(-0.092093,0.00270000000000006,-0.0346575019260413));
#856=CARTESIAN_POINT('',(-0.088016950549824,0.00270000000000005,-0.0346575019260413));
#857=CARTESIAN_POINT('',(0.097293,1.04083408558608E-17,-0.03628));
#858=CARTESIAN_POINT('',(0.092093,7.24323135583299E-18,-0.03628));
#859=CARTESIAN_POINT('',(0.092093,-0.00194999999999999,-0.03628));
#860=CARTESIAN_POINT('',(0.095893,9.55619599046872E-18,-0.03628));
#861=CARTESIAN_POINT('',(0.095893,-0.00194999999999999,-0.03628));
#862=CARTESIAN_POINT('',(0.097293,1.04083408558608E-17,-0.03628));
#863=CARTESIAN_POINT('',(0.092093,7.24323135583298E-18,-0.03628));
#864=CARTESIAN_POINT('',(0.092093,0.00270000000000005,-0.0379024980739587));
#865=CARTESIAN_POINT('',(0.092093,0.00270000000000008,-0.0346575019260413));
#866=CARTESIAN_POINT('',(0.088016950549824,0.00270000000000005,-0.0379024980739587));
#867=CARTESIAN_POINT('',(0.091293,0.00270000000000005,-0.0379024980739587));
#868=CARTESIAN_POINT('',(0.091293,6.75629143275177E-18,-0.03628));
#869=CARTESIAN_POINT('',(0.091293,0.00270000000000008,-0.0346575019260413));
#870=CARTESIAN_POINT('',(0.097293,0.00270000000000011,-0.0346575019260413));
#871=CARTESIAN_POINT('',(0.092093,0.00315,-0.03628));
#872=CARTESIAN_POINT('',(0.092093,0.00270000000000005,-0.0379024980739587));
#873=CARTESIAN_POINT('',(0.091293,1.04083408558608E-17,-0.03628));
#874=CARTESIAN_POINT('',(-0.082293,0.,-0.04628));
#875=CARTESIAN_POINT('',(0.097293,5.20417042793042E-18,-0.04628));
#876=CARTESIAN_POINT('',(-0.082293,0.,-0.02628));
#877=CARTESIAN_POINT('',(0.097293,5.20417042793042E-18,-0.02628));
#878=CARTESIAN_POINT('',(0.097293,1.04083408558608E-17,-0.03628));
#879=CARTESIAN_POINT('',(-0.097293,1.04083408558608E-17,-0.03628));
#880=CARTESIAN_POINT('',(-0.082293,0.,-0.02628));
#881=CARTESIAN_POINT('',(-0.092793,0.,-0.02628));
#882=CARTESIAN_POINT('',(-0.097293,5.20417042793042E-18,-0.02628));
#883=CARTESIAN_POINT('',(-0.092793,1.04083408558608E-17,-0.03628));
#884=CARTESIAN_POINT('',(-0.092793,1.02573859260047E-17,-0.04628));
#885=CARTESIAN_POINT('',(-0.082293,0.,-0.04628));
#886=CARTESIAN_POINT('',(-0.097293,5.20417042793042E-18,-0.04628));
#887=CARTESIAN_POINT('',(-0.097293,1.04083408558608E-17,-0.03628));
#888=CARTESIAN_POINT('',(-0.082293,-0.124561,-0.02628));
#889=CARTESIAN_POINT('',(-0.082293,-0.133561,-0.02628));
#890=CARTESIAN_POINT('',(-0.082293,-0.133561,-0.02778));
#891=CARTESIAN_POINT('',(-0.082293,-0.133561,-0.04478));
#892=CARTESIAN_POINT('',(-0.082293,-0.124561,-0.04478));
#893=CARTESIAN_POINT('',(-0.091293,-0.124561,-0.04478));
#894=CARTESIAN_POINT('',(-0.091293,-0.124561,-0.02628));
#895=CARTESIAN_POINT('',(-0.091293,-0.124561,-0.02778));
#896=CARTESIAN_POINT('',(-0.082293,-0.124561,-0.02778));
#897=CARTESIAN_POINT('',(-0.091293,-0.124561,-0.02628));
#898=CARTESIAN_POINT('',(-0.091293,0.0027,-0.02628));
#899=CARTESIAN_POINT('',(-0.091293,-0.124561,-0.04478));
#900=CARTESIAN_POINT('',(-0.091293,1.4703574029224E-17,-0.04478));
#901=CARTESIAN_POINT('',(-0.091293,1.04083408558608E-17,-0.03628));
#902=CARTESIAN_POINT('',(-0.091293,5.20417042793042E-18,-0.02778));
#903=CARTESIAN_POINT('',(-0.091293,-0.124561,-0.02778));
#904=CARTESIAN_POINT('',(-0.097293,0.01,-0.02628));
#905=CARTESIAN_POINT('',(-0.097293,-0.124561,-0.02628));
#906=CARTESIAN_POINT('',(-0.097293,-0.124561,-0.02628));
#907=CARTESIAN_POINT('',(-0.097293,0.01,-0.04628));
#908=CARTESIAN_POINT('',(-0.097293,-0.124561,-0.04628));
#909=CARTESIAN_POINT('',(-0.097293,-0.124561,-0.02628));
#910=CARTESIAN_POINT('',(-0.082293,-0.124561,-0.02628));
#911=CARTESIAN_POINT('',(-0.082293,-0.124561,-0.04628));
#912=CARTESIAN_POINT('',(-0.082293,-0.139561,-0.04628));
#913=CARTESIAN_POINT('',(-0.082293,-0.139561,-0.02628));
#914=CARTESIAN_POINT('',(-0.082293,-0.139561,-0.02628));
#915=CARTESIAN_POINT('',(-0.082293,-0.124561,-0.02628));
#916=CARTESIAN_POINT('',(-0.082293,-0.139561,-0.02628));
#917=CARTESIAN_POINT('',(-0.082293,-0.139561,-0.04628));
#918=CARTESIAN_POINT('',(0.082293,-0.139561,-0.04628));
#919=CARTESIAN_POINT('',(0.082293,-0.139561,-0.02628));
#920=CARTESIAN_POINT('',(0.082293,-0.139561,-0.02628));
#921=CARTESIAN_POINT('',(-0.082293,-0.139561,-0.02628));
#922=CARTESIAN_POINT('',(0.082293,-0.124561,-0.02628));
#923=CARTESIAN_POINT('',(0.082293,-0.124561,-0.04628));
#924=CARTESIAN_POINT('',(0.097293,-0.124561,-0.04628));
#925=CARTESIAN_POINT('',(0.097293,-0.124561,-0.02628));
#926=CARTESIAN_POINT('',(0.097293,-0.124561,-0.02628));
#927=CARTESIAN_POINT('',(0.082293,-0.124561,-0.02628));
#928=CARTESIAN_POINT('',(0.097293,-0.124561,-0.02628));
#929=CARTESIAN_POINT('',(0.097293,-0.124561,-0.04628));
#930=CARTESIAN_POINT('',(0.097293,-0.124561,-0.02628));
#931=CARTESIAN_POINT('',(0.091293,0.01,-0.02628));
#932=CARTESIAN_POINT('',(0.091293,0.00270000000000005,-0.0379024980739587));
#933=CARTESIAN_POINT('',(0.091293,-0.124561,-0.02628));
#934=CARTESIAN_POINT('',(0.091293,-0.124561,-0.02778));
#935=CARTESIAN_POINT('',(0.091293,-0.124561,-0.04478));
#936=CARTESIAN_POINT('',(0.091293,0.01,-0.02778));
#937=CARTESIAN_POINT('',(0.091293,0.01,-0.04478));
#938=CARTESIAN_POINT('',(0.082293,-0.124561,-0.02628));
#939=CARTESIAN_POINT('',(0.082293,-0.133561,-0.02628));
#940=CARTESIAN_POINT('',(0.082293,-0.133561,-0.02778));
#941=CARTESIAN_POINT('',(0.082293,-0.133561,-0.04478));
#942=CARTESIAN_POINT('',(0.082293,-0.124561,-0.02778));
#943=CARTESIAN_POINT('',(0.082293,-0.124561,-0.04478));
#944=CARTESIAN_POINT('',(0.082293,-0.133561,-0.02628));
#945=CARTESIAN_POINT('',(0.082293,-0.133561,-0.04478));
#946=CARTESIAN_POINT('',(0.082293,-0.133561,-0.02778));
#947=CARTESIAN_POINT('',(-0.082293,-0.124561,-0.02628));
#948=CARTESIAN_POINT('',(0.092793,-0.124561,-0.02628));
#949=CARTESIAN_POINT('',(0.092793,-0.124561,-0.02628));
#950=CARTESIAN_POINT('',(0.082293,-0.124561,-0.02628));
#951=CARTESIAN_POINT('',(0.082293,-0.135061,-0.02628));
#952=CARTESIAN_POINT('',(-0.082293,-0.135061,-0.02628));
#953=CARTESIAN_POINT('',(-0.082293,-0.135061,-0.02628));
#954=CARTESIAN_POINT('',(-0.082293,-0.124561,-0.02628));
#955=CARTESIAN_POINT('',(-0.092793,-0.124561,-0.02628));
#956=CARTESIAN_POINT('',(-0.092793,-0.124561,-0.02628));
#957=CARTESIAN_POINT('',(-0.082293,-0.124561,-0.04628));
#958=CARTESIAN_POINT('',(0.082293,-0.124561,-0.04628));
#959=CARTESIAN_POINT('',(0.082293,-0.135061,-0.04628));
#960=CARTESIAN_POINT('',(0.092793,-0.124561,-0.04628));
#961=CARTESIAN_POINT('',(0.092793,-0.124561,-0.04628));
#962=CARTESIAN_POINT('',(-0.092793,-0.124561,-0.04628));
#963=CARTESIAN_POINT('',(-0.092793,-0.124561,-0.04628));
#964=CARTESIAN_POINT('',(-0.082293,-0.124561,-0.04628));
#965=CARTESIAN_POINT('',(-0.082293,-0.135061,-0.04628));
#966=CARTESIAN_POINT('',(-0.082293,-0.135061,-0.04628));
#967=CARTESIAN_POINT('',(0.095893,0.00195,-0.03628));
#968=CARTESIAN_POINT('',(-0.092093,0.00315,-0.03628));
#969=CARTESIAN_POINT('',(-0.092093,0.00270000000000006,-0.03628));
#970=CARTESIAN_POINT('',(-0.095893,0.00195,-0.03628));
#971=CARTESIAN_POINT('',(-0.082293,-0.124561,-0.04478));
#972=CARTESIAN_POINT('',(-0.092793,-0.124561,-0.04478));
#973=CARTESIAN_POINT('',(-0.082293,-0.135061,-0.04478));
#974=CARTESIAN_POINT('',(0.082293,-0.135061,-0.04478));
#975=CARTESIAN_POINT('',(0.082293,-0.135061,-0.04478));
#976=CARTESIAN_POINT('',(-0.092793,-0.124561,-0.04478));
#977=CARTESIAN_POINT('',(-0.092793,1.89988072025871E-17,-0.04478));
#978=CARTESIAN_POINT('',(0.082293,-0.124561,-0.04478));
#979=CARTESIAN_POINT('',(0.092793,-0.124561,-0.04478));
#980=CARTESIAN_POINT('',(-0.092793,1.04083408558608E-17,-0.03628));
#981=CARTESIAN_POINT('',(-0.092793,0.,-0.02778));
#982=CARTESIAN_POINT('',(0.092793,0.01,-0.04478));
#983=CARTESIAN_POINT('',(-0.092793,-0.124561,-0.02778));
#984=CARTESIAN_POINT('',(-0.092793,-0.124561,-0.02778));
#985=CARTESIAN_POINT('',(-0.082293,-0.124561,-0.02778));
#986=CARTESIAN_POINT('',(-0.082293,-0.135061,-0.02778));
#987=CARTESIAN_POINT('',(0.092793,-0.124561,-0.02778));
#988=CARTESIAN_POINT('',(0.092793,-0.124561,-0.02778));
#989=CARTESIAN_POINT('',(-0.082293,-0.135061,-0.02778));
#990=CARTESIAN_POINT('',(0.082293,-0.135061,-0.02778));
#991=CARTESIAN_POINT('',(0.082293,-0.124561,-0.02778));
#992=CARTESIAN_POINT('',(-0.088016950549824,0.00270000000000005,-0.0379024980739587));
#993=CARTESIAN_POINT('',(0.088016950549824,0.00270000000000005,-0.0379024980739587));
#994=MECHANICAL_DESIGN_GEOMETRIC_PRESENTATION_REPRESENTATION('',(#559),
#995);
#995=(
GEOMETRIC_REPRESENTATION_CONTEXT(3)
GLOBAL_UNCERTAINTY_ASSIGNED_CONTEXT((#996))
GLOBAL_UNIT_ASSIGNED_CONTEXT((#999,#998,#997))
REPRESENTATION_CONTEXT(
'Kick-Stand__<_Master-Open-Flight-Monitor>-<Combine2>',
'TOP_LEVEL_ASSEMBLY_PART')
);
#996=UNCERTAINTY_MEASURE_WITH_UNIT(LENGTH_MEASURE(1.E-8),#999,
'DISTANCE_ACCURACY_VALUE','Maximum Tolerance applied to model');
#997=(
NAMED_UNIT(*)
SI_UNIT($,.STERADIAN.)
SOLID_ANGLE_UNIT()
);
#998=(
NAMED_UNIT(*)
PLANE_ANGLE_UNIT()
SI_UNIT($,.RADIAN.)
);
#999=(
LENGTH_UNIT()
NAMED_UNIT(*)
SI_UNIT($,.METRE.)
);
#1000=PRODUCT_DEFINITION_SHAPE('','',#1001);
#1001=PRODUCT_DEFINITION('','',#1003,#1002);
#1002=PRODUCT_DEFINITION_CONTEXT('',#1009,'design');
#1003=PRODUCT_DEFINITION_FORMATION_WITH_SPECIFIED_SOURCE('','',#1005,
 .NOT_KNOWN.);
#1004=PRODUCT_RELATED_PRODUCT_CATEGORY('','',(#1005));
#1005=PRODUCT('Kick-Stand__<_Master-Open-Flight-Monitor>-<Combine2>',
'Kick-Stand__<_Master-Open-Flight-Monitor>-<Combine2>',
'Kick-Stand__<_Master-Open-Flight-Monitor>-<Combine2>',(#1007));
#1006=PRODUCT_CATEGORY('','');
#1007=PRODUCT_CONTEXT('',#1009,'mechanical');
#1008=APPLICATION_PROTOCOL_DEFINITION('international standard',
'ap242_managed_model_based_3d_engineering',2020,#1009);
#1009=APPLICATION_CONTEXT('managed model based 3d engineering');
ENDSEC;
END-ISO-10303-21;
