ISO-10303-21;
HEADER;
/* Generated by software containing ST-Developer
 * from STEP Tools, Inc. (www.steptools.com) 
 */
/* OPTION: using custom renumber hook */

FILE_DESCRIPTION(
/* description */ ('STEP AP242 Edition 2',
'CAx-IF Rec.Pracs.---Representation and Presentation of Product Manufa
cturing Information (PMI)---4.0---2014-10-13',
'CAx-IF Rec.Pracs.---3D Tessellated Geometry---0.4---2014-09-14','2;1',
'CAx-IF Rec.Pracs.---User Defined Attributes---1.5---2016-08-15'),
/* implementation_level */ '2;1');

FILE_NAME(
/* name */ 
'Open-Flight-Monitor-2 - Kick-Stand-Peg__-_Master-Open-Flight-Monitor-
--Cut-Extrude28-',
/* time_stamp */ '2026-09-14T06:14:40Z',
/* author */ (''),
/* organization */ (''),
/* preprocessor_version */ 'ST-DEVELOPER v20',
/* originating_system */ 'ONSHAPE BY PTC INC, 1.220',
/* authorisation */ '  ');

FILE_SCHEMA (('AP242_MANAGED_MODEL_BASED_3D_ENGINEERING_MIM_LF { 1 0 10303 442 3 1 4 }'));
ENDSEC;

DATA;
#10=SHAPE_REPRESENTATION_RELATIONSHIP('','',#457,#11);
#11=ADVANCED_BREP_SHAPE_REPRESENTATION('',(#455),#801);
#12=CONICAL_SURFACE('',#478,0.00194641016151379,1.04719755119659);
#13=CONICAL_SURFACE('',#481,0.00324641016151378,1.0471975511966);
#14=CYLINDRICAL_SURFACE('',#472,0.007);
#15=CYLINDRICAL_SURFACE('',#474,0.0003);
#16=CYLINDRICAL_SURFACE('',#476,0.0003);
#17=CYLINDRICAL_SURFACE('',#483,0.00155);
#18=CYLINDRICAL_SURFACE('',#486,0.0019);
#19=CYLINDRICAL_SURFACE('',#489,0.0016);
#20=CYLINDRICAL_SURFACE('',#491,0.0029);
#21=CYLINDRICAL_SURFACE('',#493,0.003);
#22=CYLINDRICAL_SURFACE('',#497,0.007);
#23=CYLINDRICAL_SURFACE('',#508,0.0044);
#24=CYLINDRICAL_SURFACE('',#510,0.0031);
#25=CYLINDRICAL_SURFACE('',#513,0.001);
#26=CYLINDRICAL_SURFACE('',#514,0.001);
#27=CYLINDRICAL_SURFACE('',#517,0.00439892522314223);
#28=CYLINDRICAL_SURFACE('',#519,0.0003);
#29=CYLINDRICAL_SURFACE('',#520,0.0003);
#30=LINE('',#680,#54);
#31=LINE('',#686,#55);
#32=LINE('',#692,#56);
#33=LINE('',#707,#57);
#34=LINE('',#708,#58);
#35=LINE('',#710,#59);
#36=LINE('',#714,#60);
#37=LINE('',#719,#61);
#38=LINE('',#720,#62);
#39=LINE('',#749,#63);
#40=LINE('',#753,#64);
#41=LINE('',#755,#65);
#42=LINE('',#759,#66);
#43=LINE('',#761,#67);
#44=LINE('',#770,#68);
#45=LINE('',#773,#69);
#46=LINE('',#778,#70);
#47=LINE('',#781,#71);
#48=LINE('',#784,#72);
#49=LINE('',#785,#73);
#50=LINE('',#792,#74);
#51=LINE('',#794,#75);
#52=LINE('',#796,#76);
#53=LINE('',#797,#77);
#54=VECTOR('',#531,1.);
#55=VECTOR('',#536,1.);
#56=VECTOR('',#541,1.);
#57=VECTOR('',#556,1.);
#58=VECTOR('',#557,1.);
#59=VECTOR('',#560,1.);
#60=VECTOR('',#563,1.);
#61=VECTOR('',#568,1.);
#62=VECTOR('',#569,1.);
#63=VECTOR('',#604,1.);
#64=VECTOR('',#607,1.);
#65=VECTOR('',#610,1.);
#66=VECTOR('',#615,1.);
#67=VECTOR('',#618,1.);
#68=VECTOR('',#627,1.);
#69=VECTOR('',#630,1.);
#70=VECTOR('',#635,1.);
#71=VECTOR('',#640,1.);
#72=VECTOR('',#645,1.);
#73=VECTOR('',#646,1.);
#74=VECTOR('',#659,1.);
#75=VECTOR('',#662,1.);
#76=VECTOR('',#665,1.);
#77=VECTOR('',#666,1.);
#78=ORIENTED_EDGE('',*,*,#194,.T.);
#79=ORIENTED_EDGE('',*,*,#195,.F.);
#80=ORIENTED_EDGE('',*,*,#196,.T.);
#81=ORIENTED_EDGE('',*,*,#197,.F.);
#82=ORIENTED_EDGE('',*,*,#198,.T.);
#83=ORIENTED_EDGE('',*,*,#199,.T.);
#84=ORIENTED_EDGE('',*,*,#200,.T.);
#85=ORIENTED_EDGE('',*,*,#201,.F.);
#86=ORIENTED_EDGE('',*,*,#202,.T.);
#87=ORIENTED_EDGE('',*,*,#203,.F.);
#88=ORIENTED_EDGE('',*,*,#204,.T.);
#89=ORIENTED_EDGE('',*,*,#205,.F.);
#90=ORIENTED_EDGE('',*,*,#206,.T.);
#91=ORIENTED_EDGE('',*,*,#207,.T.);
#92=ORIENTED_EDGE('',*,*,#208,.T.);
#93=ORIENTED_EDGE('',*,*,#209,.F.);
#94=ORIENTED_EDGE('',*,*,#210,.T.);
#95=ORIENTED_EDGE('',*,*,#195,.T.);
#96=ORIENTED_EDGE('',*,*,#211,.T.);
#97=ORIENTED_EDGE('',*,*,#204,.F.);
#98=ORIENTED_EDGE('',*,*,#212,.F.);
#99=ORIENTED_EDGE('',*,*,#213,.F.);
#100=ORIENTED_EDGE('',*,*,#214,.F.);
#101=ORIENTED_EDGE('',*,*,#215,.F.);
#102=ORIENTED_EDGE('',*,*,#216,.F.);
#103=ORIENTED_EDGE('',*,*,#202,.F.);
#104=ORIENTED_EDGE('',*,*,#217,.F.);
#105=ORIENTED_EDGE('',*,*,#218,.F.);
#106=ORIENTED_EDGE('',*,*,#219,.F.);
#107=ORIENTED_EDGE('',*,*,#194,.F.);
#108=ORIENTED_EDGE('',*,*,#220,.F.);
#109=ORIENTED_EDGE('',*,*,#221,.T.);
#110=ORIENTED_EDGE('',*,*,#222,.F.);
#111=ORIENTED_EDGE('',*,*,#223,.T.);
#112=ORIENTED_EDGE('',*,*,#224,.F.);
#113=ORIENTED_EDGE('',*,*,#225,.T.);
#114=ORIENTED_EDGE('',*,*,#219,.T.);
#115=ORIENTED_EDGE('',*,*,#226,.T.);
#116=ORIENTED_EDGE('',*,*,#220,.T.);
#117=ORIENTED_EDGE('',*,*,#227,.T.);
#118=ORIENTED_EDGE('',*,*,#228,.T.);
#119=ORIENTED_EDGE('',*,*,#229,.F.);
#120=ORIENTED_EDGE('',*,*,#230,.F.);
#121=ORIENTED_EDGE('',*,*,#225,.F.);
#122=ORIENTED_EDGE('',*,*,#231,.F.);
#123=ORIENTED_EDGE('',*,*,#229,.T.);
#124=ORIENTED_EDGE('',*,*,#232,.F.);
#125=ORIENTED_EDGE('',*,*,#233,.T.);
#126=ORIENTED_EDGE('',*,*,#205,.T.);
#127=ORIENTED_EDGE('',*,*,#214,.T.);
#128=ORIENTED_EDGE('',*,*,#234,.T.);
#129=ORIENTED_EDGE('',*,*,#235,.T.);
#130=ORIENTED_EDGE('',*,*,#209,.T.);
#131=ORIENTED_EDGE('',*,*,#236,.T.);
#132=ORIENTED_EDGE('',*,*,#237,.T.);
#133=ORIENTED_EDGE('',*,*,#238,.T.);
#134=ORIENTED_EDGE('',*,*,#232,.T.);
#135=ORIENTED_EDGE('',*,*,#213,.T.);
#136=ORIENTED_EDGE('',*,*,#239,.T.);
#137=ORIENTED_EDGE('',*,*,#215,.T.);
#138=ORIENTED_EDGE('',*,*,#240,.T.);
#139=ORIENTED_EDGE('',*,*,#241,.F.);
#140=ORIENTED_EDGE('',*,*,#242,.F.);
#141=ORIENTED_EDGE('',*,*,#243,.T.);
#142=ORIENTED_EDGE('',*,*,#223,.F.);
#143=ORIENTED_EDGE('',*,*,#227,.F.);
#144=ORIENTED_EDGE('',*,*,#244,.T.);
#145=ORIENTED_EDGE('',*,*,#218,.T.);
#146=ORIENTED_EDGE('',*,*,#226,.F.);
#147=ORIENTED_EDGE('',*,*,#245,.F.);
#148=ORIENTED_EDGE('',*,*,#240,.F.);
#149=ORIENTED_EDGE('',*,*,#217,.T.);
#150=ORIENTED_EDGE('',*,*,#201,.T.);
#151=ORIENTED_EDGE('',*,*,#203,.T.);
#152=ORIENTED_EDGE('',*,*,#216,.T.);
#153=ORIENTED_EDGE('',*,*,#239,.F.);
#154=ORIENTED_EDGE('',*,*,#212,.T.);
#155=ORIENTED_EDGE('',*,*,#237,.F.);
#156=ORIENTED_EDGE('',*,*,#246,.T.);
#157=ORIENTED_EDGE('',*,*,#207,.F.);
#158=ORIENTED_EDGE('',*,*,#247,.T.);
#159=ORIENTED_EDGE('',*,*,#221,.F.);
#160=ORIENTED_EDGE('',*,*,#224,.T.);
#161=ORIENTED_EDGE('',*,*,#222,.T.);
#162=ORIENTED_EDGE('',*,*,#208,.F.);
#163=ORIENTED_EDGE('',*,*,#246,.F.);
#164=ORIENTED_EDGE('',*,*,#236,.F.);
#165=ORIENTED_EDGE('',*,*,#211,.F.);
#166=ORIENTED_EDGE('',*,*,#238,.F.);
#167=ORIENTED_EDGE('',*,*,#247,.F.);
#168=ORIENTED_EDGE('',*,*,#206,.F.);
#169=ORIENTED_EDGE('',*,*,#233,.F.);
#170=ORIENTED_EDGE('',*,*,#230,.T.);
#171=ORIENTED_EDGE('',*,*,#231,.T.);
#172=ORIENTED_EDGE('',*,*,#228,.F.);
#173=ORIENTED_EDGE('',*,*,#244,.F.);
#174=ORIENTED_EDGE('',*,*,#241,.T.);
#175=ORIENTED_EDGE('',*,*,#245,.T.);
#176=ORIENTED_EDGE('',*,*,#200,.F.);
#177=ORIENTED_EDGE('',*,*,#248,.F.);
#178=ORIENTED_EDGE('',*,*,#199,.F.);
#179=ORIENTED_EDGE('',*,*,#249,.T.);
#180=ORIENTED_EDGE('',*,*,#242,.T.);
#181=ORIENTED_EDGE('',*,*,#248,.T.);
#182=ORIENTED_EDGE('',*,*,#197,.T.);
#183=ORIENTED_EDGE('',*,*,#250,.T.);
#184=ORIENTED_EDGE('',*,*,#234,.F.);
#185=ORIENTED_EDGE('',*,*,#251,.T.);
#186=ORIENTED_EDGE('',*,*,#235,.F.);
#187=ORIENTED_EDGE('',*,*,#250,.F.);
#188=ORIENTED_EDGE('',*,*,#196,.F.);
#189=ORIENTED_EDGE('',*,*,#210,.F.);
#190=ORIENTED_EDGE('',*,*,#243,.F.);
#191=ORIENTED_EDGE('',*,*,#249,.F.);
#192=ORIENTED_EDGE('',*,*,#198,.F.);
#193=ORIENTED_EDGE('',*,*,#251,.F.);
#194=EDGE_CURVE('NONE',#252,#252,#294,.F.);
#195=EDGE_CURVE('',#253,#254,#295,.T.);
#196=EDGE_CURVE('',#253,#255,#296,.F.);
#197=EDGE_CURVE('',#256,#255,#30,.T.);
#198=EDGE_CURVE('',#256,#257,#297,.T.);
#199=EDGE_CURVE('',#257,#258,#298,.T.);
#200=EDGE_CURVE('',#258,#259,#31,.T.);
#201=EDGE_CURVE('NONE',#260,#259,#299,.F.);
#202=EDGE_CURVE('NONE',#260,#261,#300,.F.);
#203=EDGE_CURVE('NONE',#262,#261,#32,.F.);
#204=EDGE_CURVE('NONE',#262,#263,#301,.F.);
#205=EDGE_CURVE('NONE',#264,#263,#302,.T.);
#206=EDGE_CURVE('NONE',#264,#265,#303,.T.);
#207=EDGE_CURVE('NONE',#265,#266,#304,.F.);
#208=EDGE_CURVE('NONE',#266,#254,#305,.F.);
#209=EDGE_CURVE('',#267,#268,#306,.T.);
#210=EDGE_CURVE('',#267,#253,#33,.F.);
#211=EDGE_CURVE('NONE',#254,#268,#34,.T.);
#212=EDGE_CURVE('NONE',#269,#262,#35,.F.);
#213=EDGE_CURVE('NONE',#270,#269,#307,.T.);
#214=EDGE_CURVE('NONE',#263,#270,#36,.T.);
#215=EDGE_CURVE('NONE',#271,#272,#308,.T.);
#216=EDGE_CURVE('NONE',#261,#271,#37,.T.);
#217=EDGE_CURVE('NONE',#272,#260,#38,.T.);
#218=EDGE_CURVE('NONE',#273,#273,#309,.F.);
#219=EDGE_CURVE('NONE',#274,#274,#310,.F.);
#220=EDGE_CURVE('NONE',#275,#275,#311,.F.);
#221=EDGE_CURVE('NONE',#276,#276,#312,.T.);
#222=EDGE_CURVE('NONE',#277,#277,#313,.T.);
#223=EDGE_CURVE('NONE',#278,#278,#314,.T.);
#224=EDGE_CURVE('NONE',#279,#279,#315,.T.);
#225=EDGE_CURVE('NONE',#280,#280,#316,.T.);
#226=EDGE_CURVE('NONE',#281,#281,#317,.T.);
#227=EDGE_CURVE('NONE',#282,#283,#318,.T.);
#228=EDGE_CURVE('NONE',#283,#284,#39,.T.);
#229=EDGE_CURVE('NONE',#285,#284,#319,.T.);
#230=EDGE_CURVE('NONE',#282,#285,#40,.T.);
#231=EDGE_CURVE('NONE',#285,#284,#41,.T.);
#232=EDGE_CURVE('NONE',#286,#270,#320,.T.);
#233=EDGE_CURVE('NONE',#286,#264,#42,.F.);
#234=EDGE_CURVE('',#287,#288,#43,.T.);
#235=EDGE_CURVE('',#288,#267,#321,.F.);
#236=EDGE_CURVE('NONE',#268,#289,#322,.T.);
#237=EDGE_CURVE('NONE',#289,#290,#323,.T.);
#238=EDGE_CURVE('NONE',#290,#286,#324,.F.);
#239=EDGE_CURVE('NONE',#269,#271,#44,.T.);
#240=EDGE_CURVE('NONE',#272,#291,#325,.F.);
#241=EDGE_CURVE('',#292,#291,#45,.T.);
#242=EDGE_CURVE('',#293,#292,#326,.T.);
#243=EDGE_CURVE('',#293,#287,#327,.T.);
#244=EDGE_CURVE('NONE',#282,#283,#46,.F.);
#245=EDGE_CURVE('',#291,#259,#47,.T.);
#246=EDGE_CURVE('NONE',#289,#266,#48,.F.);
#247=EDGE_CURVE('NONE',#265,#290,#49,.T.);
#248=EDGE_CURVE('',#292,#258,#50,.T.);
#249=EDGE_CURVE('',#257,#293,#51,.F.);
#250=EDGE_CURVE('',#255,#288,#52,.F.);
#251=EDGE_CURVE('',#287,#256,#53,.T.);
#252=VERTEX_POINT('',#674);
#253=VERTEX_POINT('',#676);
#254=VERTEX_POINT('',#677);
#255=VERTEX_POINT('',#679);
#256=VERTEX_POINT('',#681);
#257=VERTEX_POINT('',#683);
#258=VERTEX_POINT('',#685);
#259=VERTEX_POINT('',#687);
#260=VERTEX_POINT('',#689);
#261=VERTEX_POINT('',#691);
#262=VERTEX_POINT('',#693);
#263=VERTEX_POINT('',#695);
#264=VERTEX_POINT('',#697);
#265=VERTEX_POINT('',#699);
#266=VERTEX_POINT('',#701);
#267=VERTEX_POINT('',#705);
#268=VERTEX_POINT('',#706);
#269=VERTEX_POINT('',#711);
#270=VERTEX_POINT('',#713);
#271=VERTEX_POINT('',#717);
#272=VERTEX_POINT('',#718);
#273=VERTEX_POINT('',#723);
#274=VERTEX_POINT('',#725);
#275=VERTEX_POINT('',#728);
#276=VERTEX_POINT('',#731);
#277=VERTEX_POINT('',#733);
#278=VERTEX_POINT('',#736);
#279=VERTEX_POINT('',#738);
#280=VERTEX_POINT('',#741);
#281=VERTEX_POINT('',#744);
#282=VERTEX_POINT('',#747);
#283=VERTEX_POINT('',#748);
#284=VERTEX_POINT('',#750);
#285=VERTEX_POINT('',#752);
#286=VERTEX_POINT('',#758);
#287=VERTEX_POINT('',#762);
#288=VERTEX_POINT('',#763);
#289=VERTEX_POINT('',#766);
#290=VERTEX_POINT('',#768);
#291=VERTEX_POINT('',#772);
#292=VERTEX_POINT('',#774);
#293=VERTEX_POINT('',#776);
#294=CIRCLE('',#460,0.00324641016151378);
#295=CIRCLE('',#461,0.007);
#296=CIRCLE('',#462,0.0003);
#297=CIRCLE('',#463,0.0003);
#298=CIRCLE('',#464,0.00439892522314223);
#299=CIRCLE('',#465,0.0044);
#300=CIRCLE('',#466,0.0003);
#301=CIRCLE('',#467,0.0003);
#302=CIRCLE('',#468,0.007);
#303=CIRCLE('',#469,0.001);
#304=CIRCLE('',#470,0.0031);
#305=CIRCLE('',#471,0.001);
#306=CIRCLE('',#473,0.007);
#307=CIRCLE('',#475,0.0003);
#308=CIRCLE('',#477,0.0003);
#309=CIRCLE('',#479,0.00194641016151379);
#310=CIRCLE('',#480,0.0016);
#311=CIRCLE('',#482,0.0029);
#312=CIRCLE('',#484,0.00155);
#313=CIRCLE('',#485,0.00155);
#314=CIRCLE('',#487,0.0019);
#315=CIRCLE('',#488,0.0019);
#316=CIRCLE('',#490,0.0016);
#317=CIRCLE('',#492,0.0029);
#318=CIRCLE('',#494,0.003);
#319=CIRCLE('',#495,0.003);
#320=CIRCLE('',#498,0.007);
#321=CIRCLE('',#500,0.0003);
#322=CIRCLE('',#501,0.001);
#323=CIRCLE('',#502,0.0031);
#324=CIRCLE('',#503,0.001);
#325=CIRCLE('',#504,0.0044);
#326=CIRCLE('',#505,0.00439892522314223);
#327=CIRCLE('',#506,0.0003);
#328=EDGE_LOOP('',(#78));
#329=EDGE_LOOP('',(#79,#80,#81,#82,#83,#84,#85,#86,#87,#88,#89,#90,#91,
#92));
#330=EDGE_LOOP('',(#93,#94,#95,#96));
#331=EDGE_LOOP('',(#97,#98,#99,#100));
#332=EDGE_LOOP('',(#101,#102,#103,#104));
#333=EDGE_LOOP('',(#105));
#334=EDGE_LOOP('',(#106));
#335=EDGE_LOOP('',(#107));
#336=EDGE_LOOP('',(#108));
#337=EDGE_LOOP('',(#109));
#338=EDGE_LOOP('',(#110));
#339=EDGE_LOOP('',(#111));
#340=EDGE_LOOP('',(#112));
#341=EDGE_LOOP('',(#113));
#342=EDGE_LOOP('',(#114));
#343=EDGE_LOOP('',(#115));
#344=EDGE_LOOP('',(#116));
#345=EDGE_LOOP('',(#117,#118,#119,#120));
#346=EDGE_LOOP('',(#121));
#347=EDGE_LOOP('',(#122,#123));
#348=EDGE_LOOP('',(#124,#125,#126,#127));
#349=EDGE_LOOP('',(#128,#129,#130,#131,#132,#133,#134,#135,#136,#137,#138,
#139,#140,#141));
#350=EDGE_LOOP('',(#142));
#351=EDGE_LOOP('',(#143,#144));
#352=EDGE_LOOP('',(#145));
#353=EDGE_LOOP('',(#146));
#354=EDGE_LOOP('',(#147,#148,#149,#150));
#355=EDGE_LOOP('',(#151,#152,#153,#154));
#356=EDGE_LOOP('',(#155,#156,#157,#158));
#357=EDGE_LOOP('',(#159));
#358=EDGE_LOOP('',(#160));
#359=EDGE_LOOP('',(#161));
#360=EDGE_LOOP('',(#162,#163,#164,#165));
#361=EDGE_LOOP('',(#166,#167,#168,#169));
#362=EDGE_LOOP('',(#170,#171,#172,#173));
#363=EDGE_LOOP('',(#174,#175,#176,#177));
#364=EDGE_LOOP('',(#178,#179,#180,#181));
#365=EDGE_LOOP('',(#182,#183,#184,#185));
#366=EDGE_LOOP('',(#186,#187,#188,#189));
#367=EDGE_LOOP('',(#190,#191,#192,#193));
#368=FACE_BOUND('',#328,.T.);
#369=FACE_BOUND('',#329,.T.);
#370=FACE_BOUND('',#330,.T.);
#371=FACE_BOUND('',#331,.T.);
#372=FACE_BOUND('',#332,.T.);
#373=FACE_BOUND('',#333,.T.);
#374=FACE_BOUND('',#334,.T.);
#375=FACE_BOUND('',#335,.T.);
#376=FACE_BOUND('',#336,.T.);
#377=FACE_BOUND('',#337,.T.);
#378=FACE_BOUND('',#338,.T.);
#379=FACE_BOUND('',#339,.T.);
#380=FACE_BOUND('',#340,.T.);
#381=FACE_BOUND('',#341,.T.);
#382=FACE_BOUND('',#342,.T.);
#383=FACE_BOUND('',#343,.T.);
#384=FACE_BOUND('',#344,.T.);
#385=FACE_BOUND('',#345,.T.);
#386=FACE_BOUND('',#346,.T.);
#387=FACE_BOUND('',#347,.T.);
#388=FACE_BOUND('',#348,.T.);
#389=FACE_BOUND('',#349,.T.);
#390=FACE_BOUND('',#350,.T.);
#391=FACE_BOUND('',#351,.T.);
#392=FACE_BOUND('',#352,.T.);
#393=FACE_BOUND('',#353,.T.);
#394=FACE_BOUND('',#354,.T.);
#395=FACE_BOUND('',#355,.T.);
#396=FACE_BOUND('',#356,.T.);
#397=FACE_BOUND('',#357,.T.);
#398=FACE_BOUND('',#358,.T.);
#399=FACE_BOUND('',#359,.T.);
#400=FACE_BOUND('',#360,.T.);
#401=FACE_BOUND('',#361,.T.);
#402=FACE_BOUND('',#362,.T.);
#403=FACE_BOUND('',#363,.T.);
#404=FACE_BOUND('',#364,.T.);
#405=FACE_BOUND('',#365,.T.);
#406=FACE_BOUND('',#366,.T.);
#407=FACE_BOUND('',#367,.T.);
#408=PLANE('',#459);
#409=PLANE('',#496);
#410=PLANE('',#499);
#411=PLANE('',#507);
#412=PLANE('',#509);
#413=PLANE('',#511);
#414=PLANE('',#512);
#415=PLANE('',#515);
#416=PLANE('',#516);
#417=PLANE('',#518);
#418=ADVANCED_FACE('',(#368,#369),#408,.F.);
#419=ADVANCED_FACE('',(#370),#14,.T.);
#420=ADVANCED_FACE('NONE',(#371),#15,.T.);
#421=ADVANCED_FACE('NONE',(#372),#16,.F.);
#422=ADVANCED_FACE('NONE',(#373,#374),#12,.F.);
#423=ADVANCED_FACE('NONE',(#375,#376),#13,.F.);
#424=ADVANCED_FACE('NONE',(#377,#378),#17,.F.);
#425=ADVANCED_FACE('NONE',(#379,#380),#18,.F.);
#426=ADVANCED_FACE('NONE',(#381,#382),#19,.F.);
#427=ADVANCED_FACE('NONE',(#383,#384),#20,.F.);
#428=ADVANCED_FACE('NONE',(#385),#21,.T.);
#429=ADVANCED_FACE('NONE',(#386,#387),#409,.F.);
#430=ADVANCED_FACE('NONE',(#388),#22,.T.);
#431=ADVANCED_FACE('NONE',(#389,#390,#391),#410,.F.);
#432=ADVANCED_FACE('NONE',(#392,#393),#411,.F.);
#433=ADVANCED_FACE('NONE',(#394),#23,.T.);
#434=ADVANCED_FACE('NONE',(#395),#412,.F.);
#435=ADVANCED_FACE('NONE',(#396),#24,.T.);
#436=ADVANCED_FACE('NONE',(#397,#398),#413,.T.);
#437=ADVANCED_FACE('NONE',(#399),#414,.T.);
#438=ADVANCED_FACE('NONE',(#400),#25,.F.);
#439=ADVANCED_FACE('NONE',(#401),#26,.F.);
#440=ADVANCED_FACE('NONE',(#402),#415,.F.);
#441=ADVANCED_FACE('',(#403),#416,.T.);
#442=ADVANCED_FACE('',(#404),#27,.T.);
#443=ADVANCED_FACE('',(#405),#417,.F.);
#444=ADVANCED_FACE('',(#406),#28,.T.);
#445=ADVANCED_FACE('',(#407),#29,.F.);
#446=CLOSED_SHELL('',(#418,#419,#420,#421,#422,#423,#424,#425,#426,#427,
#428,#429,#430,#431,#432,#433,#434,#435,#436,#437,#438,#439,#440,#441,#442,
#443,#444,#445));
#447=STYLED_ITEM('',(#448),#455);
#448=PRESENTATION_STYLE_ASSIGNMENT((#449));
#449=SURFACE_STYLE_USAGE(.BOTH.,#450);
#450=SURFACE_SIDE_STYLE('',(#451));
#451=SURFACE_STYLE_FILL_AREA(#452);
#452=FILL_AREA_STYLE('',(#453));
#453=FILL_AREA_STYLE_COLOUR('',#454);
#454=COLOUR_RGB('',0.792156862745098,0.819607843137255,0.933333333333333);
#455=MANIFOLD_SOLID_BREP(
'Kick-Stand-Peg__<_Master-Open-Flight-Monitor>-<Cut-Extrude28>',#446);
#456=SHAPE_DEFINITION_REPRESENTATION(#806,#457);
#457=SHAPE_REPRESENTATION(
'Kick-Stand-Peg__<_Master-Open-Flight-Monitor>-<Cut-Extrude28>',(#458),
#801);
#458=AXIS2_PLACEMENT_3D('',#671,#521,#522);
#459=AXIS2_PLACEMENT_3D('',#672,#523,#524);
#460=AXIS2_PLACEMENT_3D('',#673,#525,#526);
#461=AXIS2_PLACEMENT_3D('',#675,#527,#528);
#462=AXIS2_PLACEMENT_3D('',#678,#529,#530);
#463=AXIS2_PLACEMENT_3D('',#682,#532,#533);
#464=AXIS2_PLACEMENT_3D('',#684,#534,#535);
#465=AXIS2_PLACEMENT_3D('',#688,#537,#538);
#466=AXIS2_PLACEMENT_3D('',#690,#539,#540);
#467=AXIS2_PLACEMENT_3D('',#694,#542,#543);
#468=AXIS2_PLACEMENT_3D('',#696,#544,#545);
#469=AXIS2_PLACEMENT_3D('',#698,#546,#547);
#470=AXIS2_PLACEMENT_3D('',#700,#548,#549);
#471=AXIS2_PLACEMENT_3D('',#702,#550,#551);
#472=AXIS2_PLACEMENT_3D('',#703,#552,#553);
#473=AXIS2_PLACEMENT_3D('',#704,#554,#555);
#474=AXIS2_PLACEMENT_3D('',#709,#558,#559);
#475=AXIS2_PLACEMENT_3D('',#712,#561,#562);
#476=AXIS2_PLACEMENT_3D('',#715,#564,#565);
#477=AXIS2_PLACEMENT_3D('',#716,#566,#567);
#478=AXIS2_PLACEMENT_3D('',#721,#570,#571);
#479=AXIS2_PLACEMENT_3D('',#722,#572,#573);
#480=AXIS2_PLACEMENT_3D('',#724,#574,#575);
#481=AXIS2_PLACEMENT_3D('',#726,#576,#577);
#482=AXIS2_PLACEMENT_3D('',#727,#578,#579);
#483=AXIS2_PLACEMENT_3D('',#729,#580,#581);
#484=AXIS2_PLACEMENT_3D('',#730,#582,#583);
#485=AXIS2_PLACEMENT_3D('',#732,#584,#585);
#486=AXIS2_PLACEMENT_3D('',#734,#586,#587);
#487=AXIS2_PLACEMENT_3D('',#735,#588,#589);
#488=AXIS2_PLACEMENT_3D('',#737,#590,#591);
#489=AXIS2_PLACEMENT_3D('',#739,#592,#593);
#490=AXIS2_PLACEMENT_3D('',#740,#594,#595);
#491=AXIS2_PLACEMENT_3D('',#742,#596,#597);
#492=AXIS2_PLACEMENT_3D('',#743,#598,#599);
#493=AXIS2_PLACEMENT_3D('',#745,#600,#601);
#494=AXIS2_PLACEMENT_3D('',#746,#602,#603);
#495=AXIS2_PLACEMENT_3D('',#751,#605,#606);
#496=AXIS2_PLACEMENT_3D('',#754,#608,#609);
#497=AXIS2_PLACEMENT_3D('',#756,#611,#612);
#498=AXIS2_PLACEMENT_3D('',#757,#613,#614);
#499=AXIS2_PLACEMENT_3D('',#760,#616,#617);
#500=AXIS2_PLACEMENT_3D('',#764,#619,#620);
#501=AXIS2_PLACEMENT_3D('',#765,#621,#622);
#502=AXIS2_PLACEMENT_3D('',#767,#623,#624);
#503=AXIS2_PLACEMENT_3D('',#769,#625,#626);
#504=AXIS2_PLACEMENT_3D('',#771,#628,#629);
#505=AXIS2_PLACEMENT_3D('',#775,#631,#632);
#506=AXIS2_PLACEMENT_3D('',#777,#633,#634);
#507=AXIS2_PLACEMENT_3D('',#779,#636,#637);
#508=AXIS2_PLACEMENT_3D('',#780,#638,#639);
#509=AXIS2_PLACEMENT_3D('',#782,#641,#642);
#510=AXIS2_PLACEMENT_3D('',#783,#643,#644);
#511=AXIS2_PLACEMENT_3D('',#786,#647,#648);
#512=AXIS2_PLACEMENT_3D('',#787,#649,#650);
#513=AXIS2_PLACEMENT_3D('',#788,#651,#652);
#514=AXIS2_PLACEMENT_3D('',#789,#653,#654);
#515=AXIS2_PLACEMENT_3D('',#790,#655,#656);
#516=AXIS2_PLACEMENT_3D('',#791,#657,#658);
#517=AXIS2_PLACEMENT_3D('',#793,#660,#661);
#518=AXIS2_PLACEMENT_3D('',#795,#663,#664);
#519=AXIS2_PLACEMENT_3D('',#798,#667,#668);
#520=AXIS2_PLACEMENT_3D('',#799,#669,#670);
#521=DIRECTION('',(0.,0.,1.));
#522=DIRECTION('',(1.,0.,0.));
#523=DIRECTION('',(1.,0.,0.));
#524=DIRECTION('',(0.,0.,-1.));
#525=DIRECTION('',(-1.,0.,0.));
#526=DIRECTION('',(0.,0.,1.));
#527=DIRECTION('',(1.,0.,0.));
#528=DIRECTION('',(0.,0.,-1.));
#529=DIRECTION('',(1.,0.,0.));
#530=DIRECTION('',(0.,0.,-1.));
#531=DIRECTION('',(0.,0.392793759682387,-0.919626588542641));
#532=DIRECTION('',(1.,0.,0.));
#533=DIRECTION('',(0.,0.,-1.));
#534=DIRECTION('',(-1.,0.,0.));
#535=DIRECTION('',(0.,0.,1.));
#536=DIRECTION('',(0.,-0.0936140051350666,-0.995608566677975));
#537=DIRECTION('',(-1.,0.,0.));
#538=DIRECTION('',(0.,0.,1.));
#539=DIRECTION('',(-1.,0.,0.));
#540=DIRECTION('',(0.,0.,1.));
#541=DIRECTION('',(0.,-0.422618261740693,-0.906307787036653));
#542=DIRECTION('',(1.,0.,0.));
#543=DIRECTION('',(0.,0.,-1.));
#544=DIRECTION('',(1.,0.,0.));
#545=DIRECTION('',(0.,0.,-1.));
#546=DIRECTION('',(1.,0.,0.));
#547=DIRECTION('',(0.,0.,-1.));
#548=DIRECTION('',(1.,0.,0.));
#549=DIRECTION('',(0.,0.,-1.));
#550=DIRECTION('',(-1.,0.,0.));
#551=DIRECTION('',(0.,0.,1.));
#552=DIRECTION('',(1.,0.,0.));
#553=DIRECTION('',(0.,0.,-1.));
#554=DIRECTION('',(1.,0.,0.));
#555=DIRECTION('',(0.,0.,-1.));
#556=DIRECTION('',(1.,0.,0.));
#557=DIRECTION('',(1.,0.,0.));
#558=DIRECTION('',(1.,0.,0.));
#559=DIRECTION('',(0.,0.,-1.));
#560=DIRECTION('',(1.,0.,0.));
#561=DIRECTION('',(1.,0.,0.));
#562=DIRECTION('',(0.,0.,-1.));
#563=DIRECTION('',(1.,0.,0.));
#564=DIRECTION('',(-1.,0.,0.));
#565=DIRECTION('',(0.,0.,1.));
#566=DIRECTION('',(-1.,0.,0.));
#567=DIRECTION('',(0.,0.,1.));
#568=DIRECTION('',(1.,0.,0.));
#569=DIRECTION('',(-1.,0.,0.));
#570=DIRECTION('',(-1.,0.,0.));
#571=DIRECTION('',(0.,0.,1.));
#572=DIRECTION('',(-1.,0.,0.));
#573=DIRECTION('',(0.,0.,1.));
#574=DIRECTION('',(1.,0.,0.));
#575=DIRECTION('',(0.,0.,-1.));
#576=DIRECTION('',(-1.,0.,0.));
#577=DIRECTION('',(0.,0.,1.));
#578=DIRECTION('',(1.,0.,0.));
#579=DIRECTION('',(0.,0.,-1.));
#580=DIRECTION('',(1.,0.,0.));
#581=DIRECTION('',(0.,0.,-1.));
#582=DIRECTION('',(1.,0.,0.));
#583=DIRECTION('',(0.,0.,-1.));
#584=DIRECTION('',(1.,0.,0.));
#585=DIRECTION('',(0.,0.,-1.));
#586=DIRECTION('',(1.,0.,0.));
#587=DIRECTION('',(0.,0.,-1.));
#588=DIRECTION('',(1.,0.,0.));
#589=DIRECTION('',(0.,0.,-1.));
#590=DIRECTION('',(1.,0.,0.));
#591=DIRECTION('',(0.,0.,-1.));
#592=DIRECTION('',(1.,0.,0.));
#593=DIRECTION('',(0.,0.,-1.));
#594=DIRECTION('',(1.,0.,0.));
#595=DIRECTION('',(0.,0.,-1.));
#596=DIRECTION('',(1.,0.,0.));
#597=DIRECTION('',(0.,0.,-1.));
#598=DIRECTION('',(1.,0.,0.));
#599=DIRECTION('',(0.,0.,-1.));
#600=DIRECTION('',(1.,0.,0.));
#601=DIRECTION('',(0.,0.,-1.));
#602=DIRECTION('',(1.,0.,0.));
#603=DIRECTION('',(0.,0.,-1.));
#604=DIRECTION('',(1.,0.,0.));
#605=DIRECTION('',(1.,0.,0.));
#606=DIRECTION('',(0.,0.,-1.));
#607=DIRECTION('',(1.,0.,0.));
#608=DIRECTION('',(-1.,0.,0.));
#609=DIRECTION('',(0.,0.,1.));
#610=DIRECTION('',(0.,-1.44882609551313E-16,-1.));
#611=DIRECTION('',(1.,0.,0.));
#612=DIRECTION('',(0.,0.,-1.));
#613=DIRECTION('',(1.,0.,0.));
#614=DIRECTION('',(0.,0.,-1.));
#615=DIRECTION('',(1.,0.,0.));
#616=DIRECTION('',(-1.,0.,0.));
#617=DIRECTION('',(0.,0.,1.));
#618=DIRECTION('',(0.,0.392793759682387,-0.919626588542641));
#619=DIRECTION('',(-1.,0.,0.));
#620=DIRECTION('',(0.,0.,1.));
#621=DIRECTION('',(-1.,0.,0.));
#622=DIRECTION('',(0.,0.,1.));
#623=DIRECTION('',(1.,0.,0.));
#624=DIRECTION('',(0.,0.,-1.));
#625=DIRECTION('',(1.,0.,0.));
#626=DIRECTION('',(0.,0.,-1.));
#627=DIRECTION('',(0.,0.422618261740691,0.906307787036654));
#628=DIRECTION('',(-1.,0.,0.));
#629=DIRECTION('',(0.,0.,1.));
#630=DIRECTION('',(0.,-0.0936140051350666,-0.995608566677975));
#631=DIRECTION('',(-1.,0.,0.));
#632=DIRECTION('',(0.,0.,1.));
#633=DIRECTION('',(-1.,0.,0.));
#634=DIRECTION('',(0.,0.,1.));
#635=DIRECTION('',(0.,0.,1.));
#636=DIRECTION('',(1.,0.,0.));
#637=DIRECTION('',(0.,0.,-1.));
#638=DIRECTION('',(-1.,0.,0.));
#639=DIRECTION('',(0.,0.,1.));
#640=DIRECTION('',(-1.,0.,0.));
#641=DIRECTION('',(0.,-0.906307787036653,0.422618261740693));
#642=DIRECTION('',(0.,-0.422618261740693,-0.906307787036653));
#643=DIRECTION('',(1.,0.,0.));
#644=DIRECTION('',(0.,0.,-1.));
#645=DIRECTION('',(1.,0.,0.));
#646=DIRECTION('',(1.,0.,0.));
#647=DIRECTION('',(1.,0.,0.));
#648=DIRECTION('',(0.,0.,-1.));
#649=DIRECTION('',(1.,0.,0.));
#650=DIRECTION('',(0.,0.,-1.));
#651=DIRECTION('',(-1.,0.,0.));
#652=DIRECTION('',(0.,0.,1.));
#653=DIRECTION('',(1.,0.,0.));
#654=DIRECTION('',(0.,0.,-1.));
#655=DIRECTION('',(0.,-1.,1.44882609551313E-16));
#656=DIRECTION('',(0.,-1.44882609551313E-16,-1.));
#657=DIRECTION('',(0.,0.995608566677975,-0.0936140051350666));
#658=DIRECTION('',(0.,0.0936140051350666,0.995608566677975));
#659=DIRECTION('',(-1.,0.,0.));
#660=DIRECTION('',(-1.,0.,0.));
#661=DIRECTION('',(0.,0.,1.));
#662=DIRECTION('',(-1.,0.,0.));
#663=DIRECTION('',(0.,0.919626588542641,0.392793759682387));
#664=DIRECTION('',(0.,-0.392793759682387,0.919626588542641));
#665=DIRECTION('',(-1.,0.,0.));
#666=DIRECTION('',(-1.,0.,0.));
#667=DIRECTION('',(1.,0.,0.));
#668=DIRECTION('',(0.,0.,-1.));
#669=DIRECTION('',(-1.,0.,0.));
#670=DIRECTION('',(0.,0.,1.));
#671=CARTESIAN_POINT('',(0.,0.,0.));
#672=CARTESIAN_POINT('',(0.080193,0.0029,-0.03628));
#673=CARTESIAN_POINT('',(0.080193,1.04083408558608E-17,-0.03628));
#674=CARTESIAN_POINT('',(0.080193,1.04083408558608E-17,-0.0330335898384862));
#675=CARTESIAN_POINT('',(0.080193,1.04083408558608E-17,-0.03628));
#676=CARTESIAN_POINT('',(0.080193,0.00303503981048411,-0.042587815259563));
#677=CARTESIAN_POINT('',(0.080193,0.00400886750447836,-0.0305416220644213));
#678=CARTESIAN_POINT('',(0.080193,0.00290496667574908,-0.0423174803198675));
#679=CARTESIAN_POINT('',(0.080193,0.00262907869918628,-0.0424353184477722));
#680=CARTESIAN_POINT('',(0.080193,0.00233691178728881,-0.0417512840051411));
#681=CARTESIAN_POINT('',(0.080193,0.00184194301229456,-0.0405924406305642));
#682=CARTESIAN_POINT('',(0.080193,0.00156605503573176,-0.0407102787584689));
#683=CARTESIAN_POINT('',(0.080193,0.00146607121211063,-0.0404274303273011));
#684=CARTESIAN_POINT('',(0.080193,-6.15284732885524E-18,-0.03628));
#685=CARTESIAN_POINT('',(0.080193,-0.000411801008427995,-0.0406596076363362));
#686=CARTESIAN_POINT('',(0.080193,-0.000556953023470491,-0.0422033359432105));
#687=CARTESIAN_POINT('',(0.080193,-0.000411901622594282,-0.0406606776933831));
#688=CARTESIAN_POINT('',(0.080193,1.04083408558608E-17,-0.03628));
#689=CARTESIAN_POINT('',(0.080193,-0.0016011909115416,-0.0403783152227222));
#690=CARTESIAN_POINT('',(0.080193,-0.00171036301914672,-0.0406577458060896));
#691=CARTESIAN_POINT('',(0.080193,-0.00198225535525771,-0.0405309603275674));
#692=CARTESIAN_POINT('',(0.080193,-0.00185952035165903,-0.0402677542629612));
#693=CARTESIAN_POINT('',(0.080193,-0.00282870244865401,-0.042346171977201));
#694=CARTESIAN_POINT('',(0.080193,-0.003100594784765,-0.0422193864986788));
#695=CARTESIAN_POINT('',(0.080193,-0.00323942738706791,-0.0424853291777241));
#696=CARTESIAN_POINT('',(0.080193,1.04083408558608E-17,-0.03628));
#697=CARTESIAN_POINT('',(0.080193,-0.00295150492793169,-0.029932668382667));
#698=CARTESIAN_POINT('',(0.080193,-0.00337314848906479,-0.029025906723048));
#699=CARTESIAN_POINT('',(0.080193,-0.00242288435600365,-0.0293373518665606));
#700=CARTESIAN_POINT('',(0.080193,0.000522934456485915,-0.0303028318114495));
#701=CARTESIAN_POINT('',(0.080193,0.00359165349499878,-0.0298635557448708));
#702=CARTESIAN_POINT('',(0.080193,0.00458156286226099,-0.0297218537879099));
#703=CARTESIAN_POINT('',(0.097293,1.04083408558608E-17,-0.03628));
#704=CARTESIAN_POINT('',(0.088293,1.04083408558608E-17,-0.03628));
#705=CARTESIAN_POINT('',(0.088293,0.00303503981048411,-0.042587815259563));
#706=CARTESIAN_POINT('',(0.088293,0.00400886750447836,-0.0305416220644213));
#707=CARTESIAN_POINT('',(0.097293,0.00303503981048411,-0.042587815259563));
#708=CARTESIAN_POINT('',(0.097293,0.00400886750447837,-0.0305416220644213));
#709=CARTESIAN_POINT('',(0.097293,-0.003100594784765,-0.0422193864986788));
#710=CARTESIAN_POINT('',(0.097293,-0.00282870244865401,-0.042346171977201));
#711=CARTESIAN_POINT('',(0.088293,-0.00282870244865401,-0.042346171977201));
#712=CARTESIAN_POINT('',(0.088293,-0.003100594784765,-0.0422193864986788));
#713=CARTESIAN_POINT('',(0.088293,-0.00323942738706791,-0.0424853291777241));
#714=CARTESIAN_POINT('',(0.097293,-0.00323942738706792,-0.0424853291777241));
#715=CARTESIAN_POINT('',(0.097293,-0.00171036301914672,-0.0406577458060896));
#716=CARTESIAN_POINT('',(0.088293,-0.00171036301914672,-0.0406577458060896));
#717=CARTESIAN_POINT('',(0.088293,-0.00198225535525771,-0.0405309603275674));
#718=CARTESIAN_POINT('',(0.088293,-0.0016011909115416,-0.0403783152227222));
#719=CARTESIAN_POINT('',(0.097293,-0.00198225535525771,-0.0405309603275674));
#720=CARTESIAN_POINT('',(0.097293,-0.0016011909115416,-0.0403783152227222));
#721=CARTESIAN_POINT('',(0.083393,1.04083408558608E-17,-0.03628));
#722=CARTESIAN_POINT('',(0.083393,1.04083408558608E-17,-0.03628));
#723=CARTESIAN_POINT('',(0.083393,1.04083408558608E-17,-0.0343335898384862));
#724=CARTESIAN_POINT('',(0.083593,1.04083408558608E-17,-0.03628));
#725=CARTESIAN_POINT('',(0.083593,1.04083408558608E-17,-0.03788));
#726=CARTESIAN_POINT('',(0.080193,1.04083408558608E-17,-0.03628));
#727=CARTESIAN_POINT('',(0.080393,1.04083408558608E-17,-0.03628));
#728=CARTESIAN_POINT('',(0.080393,1.04083408558608E-17,-0.03918));
#729=CARTESIAN_POINT('',(0.084093,0.000522934456485915,-0.0303028318114495));
#730=CARTESIAN_POINT('',(0.087593,0.000522934456485915,-0.0303028318114495));
#731=CARTESIAN_POINT('',(0.087593,0.000522934456485915,-0.0318528318114496));
#732=CARTESIAN_POINT('',(0.084093,0.000522934456485915,-0.0303028318114495));
#733=CARTESIAN_POINT('',(0.084093,0.000522934456485915,-0.0318528318114496));
#734=CARTESIAN_POINT('',(0.087593,0.000522934456485915,-0.0303028318114495));
#735=CARTESIAN_POINT('',(0.088293,0.000522934456485915,-0.0303028318114495));
#736=CARTESIAN_POINT('',(0.088293,0.000522934456485915,-0.0322028318114495));
#737=CARTESIAN_POINT('',(0.087593,0.000522934456485915,-0.0303028318114495));
#738=CARTESIAN_POINT('',(0.087593,0.000522934456485915,-0.0322028318114495));
#739=CARTESIAN_POINT('',(0.097293,1.04083408558608E-17,-0.03628));
#740=CARTESIAN_POINT('',(0.092093,1.04083408558608E-17,-0.03628));
#741=CARTESIAN_POINT('',(0.092093,1.04083408558608E-17,-0.03788));
#742=CARTESIAN_POINT('',(0.097293,1.04083408558608E-17,-0.03628));
#743=CARTESIAN_POINT('',(0.083393,1.04083408558608E-17,-0.03628));
#744=CARTESIAN_POINT('',(0.083393,1.04083408558608E-17,-0.03918));
#745=CARTESIAN_POINT('',(0.097293,1.04083408558608E-17,-0.03628));
#746=CARTESIAN_POINT('',(0.088293,1.04083408558608E-17,-0.03628));
#747=CARTESIAN_POINT('',(0.088293,0.0026,-0.0347833370452904));
#748=CARTESIAN_POINT('',(0.088293,0.0026,-0.0377766629547096));
#749=CARTESIAN_POINT('',(0.097293,0.0026,-0.0377766629547096));
#750=CARTESIAN_POINT('',(0.092093,0.0026,-0.0377766629547096));
#751=CARTESIAN_POINT('',(0.092093,1.04083408558608E-17,-0.03628));
#752=CARTESIAN_POINT('',(0.092093,0.0026,-0.0347833370452904));
#753=CARTESIAN_POINT('',(0.0852730662258917,0.0026,-0.0347833370452904));
#754=CARTESIAN_POINT('',(0.092093,0.0016,-0.03628));
#755=CARTESIAN_POINT('',(0.092093,0.0026,-0.0347833370452904));
#756=CARTESIAN_POINT('',(0.097293,1.04083408558608E-17,-0.03628));
#757=CARTESIAN_POINT('',(0.088293,1.04083408558608E-17,-0.03628));
#758=CARTESIAN_POINT('',(0.088293,-0.00295150492793169,-0.029932668382667));
#759=CARTESIAN_POINT('',(0.097293,-0.00295150492793168,-0.029932668382667));
#760=CARTESIAN_POINT('',(0.088293,0.007,-0.03628));
#761=CARTESIAN_POINT('',(0.088293,0.00108000856351798,-0.0388085650965229));
#762=CARTESIAN_POINT('',(0.088293,0.00184194301229456,-0.0405924406305642));
#763=CARTESIAN_POINT('',(0.088293,0.00262907869918629,-0.0424353184477722));
#764=CARTESIAN_POINT('',(0.088293,0.00290496667574908,-0.0423174803198675));
#765=CARTESIAN_POINT('',(0.088293,0.00458156286226099,-0.0297218537879099));
#766=CARTESIAN_POINT('',(0.088293,0.00359165349499878,-0.0298635557448708));
#767=CARTESIAN_POINT('',(0.088293,0.000522934456485915,-0.0303028318114495));
#768=CARTESIAN_POINT('',(0.088293,-0.00242288435600365,-0.0293373518665606));
#769=CARTESIAN_POINT('',(0.088293,-0.00337314848906479,-0.029025906723048));
#770=CARTESIAN_POINT('',(0.088293,-0.00282870244865401,-0.042346171977201));
#771=CARTESIAN_POINT('',(0.088293,1.04083408558608E-17,-0.03628));
#772=CARTESIAN_POINT('',(0.088293,-0.000411901622594282,-0.0406606776933831));
#773=CARTESIAN_POINT('',(0.088293,6.13450737020106E-5,-0.0356275796616854));
#774=CARTESIAN_POINT('',(0.088293,-0.000411801008427995,-0.0406596076363362));
#775=CARTESIAN_POINT('',(0.088293,-6.15284732885524E-18,-0.03628));
#776=CARTESIAN_POINT('',(0.088293,0.00146607121211063,-0.0404274303273011));
#777=CARTESIAN_POINT('',(0.088293,0.00156605503573176,-0.0407102787584689));
#778=CARTESIAN_POINT('',(0.088293,0.0026,-0.03628));
#779=CARTESIAN_POINT('',(0.083393,0.0029,-0.03628));
#780=CARTESIAN_POINT('',(0.097293,1.04083408558608E-17,-0.03628));
#781=CARTESIAN_POINT('',(0.105193,-0.000411901622594282,-0.0406606776933831));
#782=CARTESIAN_POINT('',(0.097293,-0.00185952035165903,-0.0402677542629612));
#783=CARTESIAN_POINT('',(0.0714248759132868,0.000522934456485915,-0.0303028318114495));
#784=CARTESIAN_POINT('',(0.0714248759132868,0.00359165349499878,-0.0298635557448708));
#785=CARTESIAN_POINT('',(0.0714248759132868,-0.00242288435600365,-0.0293373518665606));
#786=CARTESIAN_POINT('',(0.087593,0.000522934456485915,-0.0303028318114495));
#787=CARTESIAN_POINT('',(0.084093,0.000522934456485915,-0.0303028318114495));
#788=CARTESIAN_POINT('',(0.0714248759132868,0.00458156286226099,-0.0297218537879099));
#789=CARTESIAN_POINT('',(0.0714248759132868,-0.00337314848906479,-0.029025906723048));
#790=CARTESIAN_POINT('',(0.0852730662258917,0.0026,-0.0347833370452904));
#791=CARTESIAN_POINT('',(0.105193,-0.000556953023470491,-0.0422033359432105));
#792=CARTESIAN_POINT('',(0.105193,-0.000411801008427995,-0.0406596076363362));
#793=CARTESIAN_POINT('',(0.105193,-6.15284732885524E-18,-0.03628));
#794=CARTESIAN_POINT('',(0.105193,0.00146607121211063,-0.0404274303273011));
#795=CARTESIAN_POINT('',(0.105193,0.00233691178728881,-0.0417512840051411));
#796=CARTESIAN_POINT('',(0.088293,0.00262907869918628,-0.0424353184477722));
#797=CARTESIAN_POINT('',(0.105193,0.00184194301229456,-0.0405924406305642));
#798=CARTESIAN_POINT('',(0.097293,0.00290496667574908,-0.0423174803198675));
#799=CARTESIAN_POINT('',(0.105193,0.00156605503573176,-0.0407102787584689));
#800=MECHANICAL_DESIGN_GEOMETRIC_PRESENTATION_REPRESENTATION('',(#447),
#801);
#801=(
GEOMETRIC_REPRESENTATION_CONTEXT(3)
GLOBAL_UNCERTAINTY_ASSIGNED_CONTEXT((#802))
GLOBAL_UNIT_ASSIGNED_CONTEXT((#805,#804,#803))
REPRESENTATION_CONTEXT(
'Kick-Stand-Peg__<_Master-Open-Flight-Monitor>-<Cut-Extrude28>',
'TOP_LEVEL_ASSEMBLY_PART')
);
#802=UNCERTAINTY_MEASURE_WITH_UNIT(LENGTH_MEASURE(1.E-8),#805,
'DISTANCE_ACCURACY_VALUE','Maximum Tolerance applied to model');
#803=(
NAMED_UNIT(*)
SI_UNIT($,.STERADIAN.)
SOLID_ANGLE_UNIT()
);
#804=(
NAMED_UNIT(*)
PLANE_ANGLE_UNIT()
SI_UNIT($,.RADIAN.)
);
#805=(
LENGTH_UNIT()
NAMED_UNIT(*)
SI_UNIT($,.METRE.)
);
#806=PRODUCT_DEFINITION_SHAPE('','',#807);
#807=PRODUCT_DEFINITION('','',#809,#808);
#808=PRODUCT_DEFINITION_CONTEXT('',#815,'design');
#809=PRODUCT_DEFINITION_FORMATION_WITH_SPECIFIED_SOURCE('','',#811,
 .NOT_KNOWN.);
#810=PRODUCT_RELATED_PRODUCT_CATEGORY('','',(#811));
#811=PRODUCT(
'Kick-Stand-Peg__<_Master-Open-Flight-Monitor>-<Cut-Extrude28>',
'Kick-Stand-Peg__<_Master-Open-Flight-Monitor>-<Cut-Extrude28>',
'Kick-Stand-Peg__<_Master-Open-Flight-Monitor>-<Cut-Extrude28>',(#813));
#812=PRODUCT_CATEGORY('','');
#813=PRODUCT_CONTEXT('',#815,'mechanical');
#814=APPLICATION_PROTOCOL_DEFINITION('international standard',
'ap242_managed_model_based_3d_engineering',2020,#815);
#815=APPLICATION_CONTEXT('managed model based 3d engineering');
ENDSEC;
END-ISO-10303-21;
