ISO-10303-21;
HEADER;
/* Generated by software containing ST-Developer
 * from STEP Tools, Inc. (www.steptools.com) 
 */
/* OPTION: using custom renumber hook */

FILE_DESCRIPTION(
/* description */ ('STEP AP242 Edition 2',
'CAx-IF Rec.Pracs.---Representation and Presentation of Product Manufa
cturing Information (PMI)---4.0---2014-10-13',
'CAx-IF Rec.Pracs.---3D Tessellated Geometry---0.4---2014-09-14','2;1',
'CAx-IF Rec.Pracs.---User Defined Attributes---1.5---2016-08-15'),
/* implementation_level */ '2;1');

FILE_NAME(
/* name */ 'Open-Flight-Monitor-2 - camera protector',
/* time_stamp */ '2026-09-14T06:14:40Z',
/* author */ (''),
/* organization */ (''),
/* preprocessor_version */ 'ST-DEVELOPER v20',
/* originating_system */ 'ONSHAPE BY PTC INC, 1.220',
/* authorisation */ '  ');

FILE_SCHEMA (('AP242_MANAGED_MODEL_BASED_3D_ENGINEERING_MIM_LF { 1 0 10303 442 3 1 4 }'));
ENDSEC;

DATA;
#10=SHAPE_REPRESENTATION_RELATIONSHIP('','',#242,#11);
#11=ADVANCED_BREP_SHAPE_REPRESENTATION('',(#240),#692);
#12=(
BOUNDED_SURFACE()
B_SPLINE_SURFACE(2,3,((#552,#553,#554,#555,#556,#557,#558,#559,#560,#561,
#562,#563,#564),(#565,#566,#567,#568,#569,#570,#571,#572,#573,#574,#575,
#576,#577),(#578,#579,#580,#581,#582,#583,#584,#585,#586,#587,#588,#589,
#590)),.UNSPECIFIED.,.F.,.F.,.F.)
B_SPLINE_SURFACE_WITH_KNOTS((3,3),(4,3,3,3,4),(0.,1.),(0.0626461778498713,
0.0714871376772456,0.072874038837665,0.786358514449618,0.938782738098735),
 .PIECEWISE_BEZIER_KNOTS.)
GEOMETRIC_REPRESENTATION_ITEM()
RATIONAL_B_SPLINE_SURFACE(((1.,1.,1.,1.,1.,1.,1.,1.,1.,1.,1.,1.,1.),(0.707106781186548,
0.707106781186548,0.707106781186548,0.707106781186548,0.707106781186548,
0.707106781186548,0.707106781186548,0.707106781186548,0.707106781186548,
0.707106781186548,0.707106781186548,0.707106781186548,0.707106781186548),
(1.,1.,1.,1.,1.,1.,1.,1.,1.,1.,1.,1.,1.)))
REPRESENTATION_ITEM('')
SURFACE()
);
#13=(
BOUNDED_SURFACE()
B_SPLINE_SURFACE(2,3,((#595,#596,#597,#598,#599,#600,#601,#602,#603,#604,
#605,#606,#607),(#608,#609,#610,#611,#612,#613,#614,#615,#616,#617,#618,
#619,#620),(#621,#622,#623,#624,#625,#626,#627,#628,#629,#630,#631,#632,
#633)),.UNSPECIFIED.,.F.,.F.,.F.)
B_SPLINE_SURFACE_WITH_KNOTS((3,3),(4,3,3,3,4),(0.,1.),(0.062646185684022,
0.0714871376772323,0.0722020269785146,0.786358514449622,0.938781424561368),
 .PIECEWISE_BEZIER_KNOTS.)
GEOMETRIC_REPRESENTATION_ITEM()
RATIONAL_B_SPLINE_SURFACE(((1.,1.,1.,1.,1.,1.,1.,1.,1.,1.,1.,1.,1.),(0.707106781186548,
0.707106781186548,0.707106781186548,0.707106781186548,0.707106781186548,
0.707106781186548,0.707106781186548,0.707106781186548,0.707106781186548,
0.707106781186548,0.707106781186548,0.707106781186548,0.707106781186548),
(1.,1.,1.,1.,1.,1.,1.,1.,1.,1.,1.,1.,1.)))
REPRESENTATION_ITEM('')
SURFACE()
);
#14=(
BOUNDED_SURFACE()
B_SPLINE_SURFACE(3,2,((#634,#635,#636),(#637,#638,#639),(#640,#641,#642),
(#643,#644,#645),(#646,#647,#648),(#649,#650,#651),(#652,#653,#654),(#655,
#656,#657),(#658,#659,#660),(#661,#662,#663),(#664,#665,#666),(#667,#668,
#669),(#670,#671,#672),(#673,#674,#675),(#676,#677,#678),(#679,#680,#681),
(#682,#683,#684),(#685,#686,#687),(#688,#689,#690)),.UNSPECIFIED.,.T.,.F.,
 .F.)
B_SPLINE_SURFACE_WITH_KNOTS((1,3,1,1,1,1,1,1,1,1,1,1,1,1,1,1,1,3,1),(3,
3),(-0.392699081698725,0.,0.392699081698724,0.785398163397448,1.17809724509617,
1.5707963267949,1.96349540849362,2.35619449019234,2.74889357189107,3.14159265358979,
3.53429173528852,3.92699081698724,4.31968989868597,4.71238898038469,5.10508806208341,
5.49778714378214,5.89048622548086,6.28318530717959,6.67588438887831),(0.,
1.),.UNSPECIFIED.)
GEOMETRIC_REPRESENTATION_ITEM()
RATIONAL_B_SPLINE_SURFACE(((1.,0.642787609686537,1.),(1.,0.642787609686536,
1.),(1.,0.646318604568463,1.),(1.,0.66115251098857,1.),(1.,0.682711940226877,
1.),(1.,0.707250750941698,1.),(1.,0.730925743125616,1.),(1.,0.750386374261505,
1.),(1.,0.763102190597967,1.),(1.,0.767515569379486,1.),(1.,0.763102190597967,
1.),(1.,0.750386374261505,1.),(1.,0.730925743125616,1.),(1.,0.707250750941698,
1.),(1.,0.682711940226878,1.),(1.,0.661152510988568,1.),(1.,0.646318604568471,
1.),(1.,0.642787609686539,1.),(1.,0.642787609686537,1.)))
REPRESENTATION_ITEM('')
SURFACE()
);
#15=ELLIPSE('',#250,0.00815588054928387,0.008);
#16=ELLIPSE('',#257,0.00913883950697171,0.009);
#17=CYLINDRICAL_SURFACE('',#249,0.008);
#18=CYLINDRICAL_SURFACE('',#258,0.004);
#19=CIRCLE('',#247,0.004);
#20=CIRCLE('',#251,0.008);
#21=CIRCLE('',#253,0.004);
#22=B_SPLINE_CURVE_WITH_KNOTS('',3,(#307,#308,#309,#310,#311,#312),
 .UNSPECIFIED.,.F.,.F.,(4,1,1,4),(0.,0.00100335740837541,0.00150503611256312,
0.00200671481675083),.UNSPECIFIED.);
#23=B_SPLINE_CURVE_WITH_KNOTS('',3,(#316,#317,#318,#319,#320),
 .UNSPECIFIED.,.F.,.F.,(4,1,4),(0.,0.000431535765640516,0.000863071531281032),
 .UNSPECIFIED.);
#24=B_SPLINE_CURVE_WITH_KNOTS('',3,(#333,#334,#335,#336,#337,#338,#339,
#340,#341,#342,#343,#344,#345,#346,#347,#348,#349,#350,#351),
 .UNSPECIFIED.,.F.,.F.,(4,3,3,3,3,3,4),(-1.65271248067672,0.,0.0714871376772323,
0.0722020269785146,0.786358514449622,1.,2.65778656520817),
 .PIECEWISE_BEZIER_KNOTS.);
#25=B_SPLINE_CURVE_WITH_KNOTS('',3,(#358,#359,#360,#361,#362,#363,#364,
#365,#366,#367,#368,#369,#370,#371,#372,#373,#374,#375,#376,#377,#378,#379,
#380),.UNSPECIFIED.,.F.,.F.,(4,1,1,1,1,1,1,1,1,1,1,1,1,1,1,1,1,1,1,1,4),
(8.32667268468867E-17,2.57811304093038E-5,5.15622608185243E-5,0.000103124521636965,
0.000206249043273847,0.000412498086547612,0.000618747129821376,0.00082499617309514,
0.00123749425964267,0.0016499923461902,0.00206249043273773,0.00247498851928525,
0.00329998469238031,0.00412498086547537,0.00494997703857042,0.00577497321166548,
0.00659996938476054,0.00824996173095065,0.00989995407714076,0.0115499464233309,
0.013199938769521),.UNSPECIFIED.);
#26=B_SPLINE_CURVE_WITH_KNOTS('',3,(#382,#383,#384,#385,#386,#387,#388,
#389,#390,#391,#392,#393,#394,#395,#396,#397,#398,#399,#400),
 .UNSPECIFIED.,.F.,.F.,(4,1,1,1,1,1,1,1,1,1,1,1,1,1,1,1,4),(2.78401500563159E-17,
0.00147022068108398,0.00220533102162595,0.00294044136216793,0.0036755517027099,
0.00404310687298089,0.00441066204325188,0.00477821721352286,0.00514577238379385,
0.00532954996892934,0.00551332755406484,0.00569710513920033,0.0057430495354842,
0.00578899393176808,0.00581196612991002,0.00583493832805195,0.00588088272433583),
 .UNSPECIFIED.);
#27=B_SPLINE_CURVE_WITH_KNOTS('',3,(#409,#410,#411,#412,#413,#414,#415,
#416,#417,#418,#419,#420,#421,#422,#423,#424,#425,#426,#427),
 .UNSPECIFIED.,.F.,.F.,(4,3,3,3,3,3,4),(-1.65271509207626,0.,0.0714871376772456,
0.072874038837665,0.786358514449618,1.,2.65779048230748),
 .PIECEWISE_BEZIER_KNOTS.);
#28=B_SPLINE_CURVE_WITH_KNOTS('',3,(#434,#435,#436,#437,#438,#439),
 .UNSPECIFIED.,.F.,.F.,(4,1,1,4),(0.,0.000500387668444519,0.00100077533688904,
0.00200155067377808),.UNSPECIFIED.);
#29=B_SPLINE_CURVE_WITH_KNOTS('',3,(#443,#444,#445,#446,#447),
 .UNSPECIFIED.,.F.,.F.,(4,1,4),(0.,0.000429184781667862,0.000858369563335724),
 .UNSPECIFIED.);
#30=B_SPLINE_CURVE_WITH_KNOTS('',3,(#449,#450,#451,#452,#453,#454,#455,
#456,#457,#458,#459,#460,#461,#462,#463,#464,#465,#466,#467),
 .UNSPECIFIED.,.F.,.F.,(4,1,1,1,1,1,1,1,1,1,1,1,1,1,1,1,4),(8.77708367144175E-17,
3.24574203641783E-5,6.49148407282688E-5,0.00012982968145645,0.000259659362912812,
0.000389489044369174,0.000519318725825536,0.000778978088738259,0.00103863745165098,
0.00155795617747643,0.00207727490330188,0.00259659362912733,0.00311591235495277,
0.00415454980660367,0.00519318725825457,0.00623182470990546,0.00830909961320725),
 .UNSPECIFIED.);
#31=B_SPLINE_CURVE_WITH_KNOTS('',3,(#469,#470,#471,#472,#473,#474,#475,
#476,#477,#478,#479,#480,#481,#482,#483,#484,#485,#486,#487,#488,#489,#490,
#491),.UNSPECIFIED.,.F.,.F.,(4,1,1,1,1,1,1,1,1,1,1,1,1,1,1,1,1,1,1,1,4),
(0.,0.00207719561499465,0.00415439122998929,0.00623158684498394,0.00830878245997859,
0.0103859780749732,0.0114245758824706,0.0124631736899679,0.0135017714974652,
0.0140210704012139,0.0145403693049625,0.0150596682087112,0.0155789671124599,
0.0158386165643342,0.0160982660162085,0.0162280907421457,0.0163579154680828,
0.01648774019402,0.0165526525569886,0.0165851087384729,0.0166175649199572),
 .UNSPECIFIED.);
#32=B_SPLINE_CURVE_WITH_KNOTS('',3,(#494,#495,#496,#497,#498,#499,#500,
#501,#502,#503,#504,#505,#506,#507,#508,#509,#510,#511,#512),
 .UNSPECIFIED.,.F.,.F.,(4,3,3,3,3,3,4),(-1.65271248067672,0.,0.0714871376772323,
0.0722020269785146,0.786358514449622,1.,2.65778656520817),
 .PIECEWISE_BEZIER_KNOTS.);
#33=B_SPLINE_CURVE_WITH_KNOTS('',3,(#513,#514,#515,#516,#517,#518,#519,
#520,#521,#522,#523,#524,#525,#526,#527,#528,#529,#530,#531),
 .UNSPECIFIED.,.F.,.F.,(4,3,3,3,3,3,4),(-1.65271509207626,0.,0.0714871376772456,
0.072874038837665,0.786358514449618,1.,2.65779048230748),
 .PIECEWISE_BEZIER_KNOTS.);
#34=B_SPLINE_CURVE_WITH_KNOTS('',3,(#533,#534,#535,#536,#537),
 .UNSPECIFIED.,.F.,.F.,(4,1,4),(0.,0.00301362714706138,0.00602725429412275),
 .UNSPECIFIED.);
#35=B_SPLINE_CURVE_WITH_KNOTS('',3,(#538,#539,#540,#541,#542,#543,#544),
 .UNSPECIFIED.,.F.,.F.,(4,1,1,1,4),(8.67361737988404E-19,0.00149096346447256,
0.00298192692894512,0.00447289039341767,0.00596385385789023),
 .UNSPECIFIED.);
#36=B_SPLINE_CURVE_WITH_KNOTS('',3,(#545,#546,#547,#548,#549,#550,#551),
 .UNSPECIFIED.,.F.,.F.,(4,1,1,1,4),(1.30104260698261E-18,0.00149326756358643,
0.00298653512717286,0.0044798026907593,0.00597307025434573),
 .UNSPECIFIED.);
#37=B_SPLINE_CURVE_WITH_KNOTS('',3,(#591,#592,#593,#594),.UNSPECIFIED.,
 .F.,.F.,(4,4),(0.000752120975673746,0.00175660940885743),.UNSPECIFIED.);
#38=ORIENTED_EDGE('',*,*,#102,.T.);
#39=ORIENTED_EDGE('',*,*,#103,.T.);
#40=ORIENTED_EDGE('',*,*,#104,.F.);
#41=ORIENTED_EDGE('',*,*,#105,.T.);
#42=ORIENTED_EDGE('',*,*,#106,.F.);
#43=ORIENTED_EDGE('',*,*,#107,.T.);
#44=ORIENTED_EDGE('',*,*,#108,.T.);
#45=ORIENTED_EDGE('',*,*,#109,.T.);
#46=ORIENTED_EDGE('',*,*,#110,.T.);
#47=ORIENTED_EDGE('',*,*,#111,.T.);
#48=ORIENTED_EDGE('',*,*,#112,.T.);
#49=ORIENTED_EDGE('',*,*,#106,.T.);
#50=ORIENTED_EDGE('',*,*,#113,.F.);
#51=ORIENTED_EDGE('',*,*,#114,.T.);
#52=ORIENTED_EDGE('',*,*,#115,.T.);
#53=ORIENTED_EDGE('',*,*,#116,.T.);
#54=ORIENTED_EDGE('',*,*,#117,.F.);
#55=ORIENTED_EDGE('',*,*,#118,.T.);
#56=ORIENTED_EDGE('',*,*,#119,.T.);
#57=ORIENTED_EDGE('',*,*,#120,.F.);
#58=ORIENTED_EDGE('',*,*,#108,.F.);
#59=ORIENTED_EDGE('',*,*,#121,.F.);
#60=ORIENTED_EDGE('',*,*,#122,.T.);
#61=ORIENTED_EDGE('',*,*,#123,.T.);
#62=ORIENTED_EDGE('',*,*,#124,.T.);
#63=ORIENTED_EDGE('',*,*,#117,.T.);
#64=ORIENTED_EDGE('',*,*,#125,.T.);
#65=ORIENTED_EDGE('',*,*,#126,.T.);
#66=ORIENTED_EDGE('',*,*,#110,.F.);
#67=ORIENTED_EDGE('',*,*,#109,.F.);
#68=ORIENTED_EDGE('',*,*,#120,.T.);
#69=ORIENTED_EDGE('',*,*,#104,.T.);
#70=ORIENTED_EDGE('',*,*,#127,.T.);
#71=ORIENTED_EDGE('',*,*,#121,.T.);
#72=ORIENTED_EDGE('',*,*,#128,.T.);
#73=ORIENTED_EDGE('',*,*,#113,.T.);
#74=ORIENTED_EDGE('',*,*,#129,.T.);
#75=ORIENTED_EDGE('',*,*,#123,.F.);
#76=ORIENTED_EDGE('',*,*,#130,.T.);
#77=ORIENTED_EDGE('',*,*,#102,.F.);
#78=ORIENTED_EDGE('',*,*,#131,.T.);
#79=ORIENTED_EDGE('',*,*,#118,.F.);
#80=ORIENTED_EDGE('',*,*,#107,.F.);
#81=ORIENTED_EDGE('',*,*,#112,.F.);
#82=ORIENTED_EDGE('',*,*,#132,.T.);
#83=ORIENTED_EDGE('',*,*,#129,.F.);
#84=ORIENTED_EDGE('',*,*,#115,.F.);
#85=ORIENTED_EDGE('',*,*,#133,.F.);
#86=ORIENTED_EDGE('',*,*,#125,.F.);
#87=ORIENTED_EDGE('',*,*,#119,.F.);
#88=ORIENTED_EDGE('',*,*,#131,.F.);
#89=ORIENTED_EDGE('',*,*,#105,.F.);
#90=ORIENTED_EDGE('',*,*,#114,.F.);
#91=ORIENTED_EDGE('',*,*,#128,.F.);
#92=ORIENTED_EDGE('',*,*,#124,.F.);
#93=ORIENTED_EDGE('',*,*,#132,.F.);
#94=ORIENTED_EDGE('',*,*,#111,.F.);
#95=ORIENTED_EDGE('',*,*,#126,.F.);
#96=ORIENTED_EDGE('',*,*,#133,.T.);
#97=ORIENTED_EDGE('',*,*,#116,.F.);
#98=ORIENTED_EDGE('',*,*,#122,.F.);
#99=ORIENTED_EDGE('',*,*,#127,.F.);
#100=ORIENTED_EDGE('',*,*,#103,.F.);
#101=ORIENTED_EDGE('',*,*,#130,.F.);
#102=EDGE_CURVE('',#134,#135,#156,.T.);
#103=EDGE_CURVE('',#135,#136,#22,.T.);
#104=EDGE_CURVE('',#137,#136,#157,.T.);
#105=EDGE_CURVE('',#137,#134,#23,.T.);
#106=EDGE_CURVE('',#138,#139,#158,.T.);
#107=EDGE_CURVE('',#138,#140,#159,.F.);
#108=EDGE_CURVE('',#140,#141,#160,.T.);
#109=EDGE_CURVE('',#141,#139,#161,.T.);
#110=EDGE_CURVE('',#139,#142,#162,.T.);
#111=EDGE_CURVE('',#142,#143,#24,.T.);
#112=EDGE_CURVE('',#143,#138,#19,.F.);
#113=EDGE_CURVE('',#144,#145,#163,.T.);
#114=EDGE_CURVE('',#144,#146,#25,.T.);
#115=EDGE_CURVE('',#146,#145,#26,.T.);
#116=EDGE_CURVE('',#147,#147,#15,.T.);
#117=EDGE_CURVE('',#148,#148,#20,.T.);
#118=EDGE_CURVE('',#140,#149,#21,.T.);
#119=EDGE_CURVE('',#149,#150,#27,.F.);
#120=EDGE_CURVE('',#141,#150,#164,.T.);
#121=EDGE_CURVE('',#151,#152,#165,.T.);
#122=EDGE_CURVE('',#151,#153,#28,.T.);
#123=EDGE_CURVE('',#153,#154,#166,.T.);
#124=EDGE_CURVE('',#154,#152,#29,.T.);
#125=EDGE_CURVE('',#150,#155,#30,.T.);
#126=EDGE_CURVE('',#155,#142,#31,.T.);
#127=EDGE_CURVE('',#136,#151,#16,.T.);
#128=EDGE_CURVE('',#152,#144,#32,.F.);
#129=EDGE_CURVE('',#145,#137,#33,.T.);
#130=EDGE_CURVE('',#153,#135,#34,.T.);
#131=EDGE_CURVE('',#134,#149,#35,.T.);
#132=EDGE_CURVE('',#143,#154,#36,.T.);
#133=EDGE_CURVE('',#155,#146,#37,.F.);
#134=VERTEX_POINT('',#305);
#135=VERTEX_POINT('',#306);
#136=VERTEX_POINT('',#313);
#137=VERTEX_POINT('',#315);
#138=VERTEX_POINT('',#323);
#139=VERTEX_POINT('',#324);
#140=VERTEX_POINT('',#326);
#141=VERTEX_POINT('',#328);
#142=VERTEX_POINT('',#332);
#143=VERTEX_POINT('',#352);
#144=VERTEX_POINT('',#356);
#145=VERTEX_POINT('',#357);
#146=VERTEX_POINT('',#381);
#147=VERTEX_POINT('',#403);
#148=VERTEX_POINT('',#405);
#149=VERTEX_POINT('',#408);
#150=VERTEX_POINT('',#428);
#151=VERTEX_POINT('',#432);
#152=VERTEX_POINT('',#433);
#153=VERTEX_POINT('',#440);
#154=VERTEX_POINT('',#442);
#155=VERTEX_POINT('',#468);
#156=LINE('',#304,#167);
#157=LINE('',#314,#168);
#158=LINE('',#322,#169);
#159=LINE('',#325,#170);
#160=LINE('',#327,#171);
#161=LINE('',#329,#172);
#162=LINE('',#331,#173);
#163=LINE('',#355,#174);
#164=LINE('',#429,#175);
#165=LINE('',#431,#176);
#166=LINE('',#441,#177);
#167=VECTOR('',#263,1.);
#168=VECTOR('',#264,1.);
#169=VECTOR('',#267,1.);
#170=VECTOR('',#268,1.);
#171=VECTOR('',#269,1.);
#172=VECTOR('',#270,1.);
#173=VECTOR('',#273,1.);
#174=VECTOR('',#278,1.);
#175=VECTOR('',#289,1.);
#176=VECTOR('',#292,1.);
#177=VECTOR('',#293,1.);
#178=EDGE_LOOP('',(#38,#39,#40,#41));
#179=EDGE_LOOP('',(#42,#43,#44,#45));
#180=EDGE_LOOP('',(#46,#47,#48,#49));
#181=EDGE_LOOP('',(#50,#51,#52));
#182=EDGE_LOOP('',(#53));
#183=EDGE_LOOP('',(#54));
#184=EDGE_LOOP('',(#55,#56,#57,#58));
#185=EDGE_LOOP('',(#59,#60,#61,#62));
#186=EDGE_LOOP('',(#63));
#187=EDGE_LOOP('',(#64,#65,#66,#67,#68));
#188=EDGE_LOOP('',(#69,#70,#71,#72,#73,#74));
#189=EDGE_LOOP('',(#75,#76,#77,#78,#79,#80,#81,#82));
#190=EDGE_LOOP('',(#83,#84,#85,#86,#87,#88,#89));
#191=EDGE_LOOP('',(#90,#91,#92,#93,#94,#95,#96));
#192=EDGE_LOOP('',(#97));
#193=EDGE_LOOP('',(#98,#99,#100,#101));
#194=FACE_BOUND('',#178,.T.);
#195=FACE_BOUND('',#179,.T.);
#196=FACE_BOUND('',#180,.T.);
#197=FACE_BOUND('',#181,.T.);
#198=FACE_BOUND('',#182,.T.);
#199=FACE_BOUND('',#183,.T.);
#200=FACE_BOUND('',#184,.T.);
#201=FACE_BOUND('',#185,.T.);
#202=FACE_BOUND('',#186,.T.);
#203=FACE_BOUND('',#187,.T.);
#204=FACE_BOUND('',#188,.T.);
#205=FACE_BOUND('',#189,.T.);
#206=FACE_BOUND('',#190,.T.);
#207=FACE_BOUND('',#191,.T.);
#208=FACE_BOUND('',#192,.T.);
#209=FACE_BOUND('',#193,.T.);
#210=PLANE('',#244);
#211=PLANE('',#245);
#212=PLANE('',#246);
#213=PLANE('',#248);
#214=PLANE('',#252);
#215=PLANE('',#254);
#216=PLANE('',#255);
#217=PLANE('',#256);
#218=ADVANCED_FACE('',(#194),#210,.T.);
#219=ADVANCED_FACE('',(#195),#211,.F.);
#220=ADVANCED_FACE('',(#196),#212,.F.);
#221=ADVANCED_FACE('',(#197),#213,.T.);
#222=ADVANCED_FACE('',(#198,#199),#17,.F.);
#223=ADVANCED_FACE('',(#200),#214,.T.);
#224=ADVANCED_FACE('',(#201),#215,.T.);
#225=ADVANCED_FACE('',(#202,#203),#216,.F.);
#226=ADVANCED_FACE('',(#204),#217,.F.);
#227=ADVANCED_FACE('',(#205),#18,.T.);
#228=ADVANCED_FACE('',(#206),#12,.T.);
#229=ADVANCED_FACE('',(#207),#13,.T.);
#230=ADVANCED_FACE('',(#208,#209),#14,.T.);
#231=CLOSED_SHELL('',(#218,#219,#220,#221,#222,#223,#224,#225,#226,#227,
#228,#229,#230));
#232=STYLED_ITEM('',(#233),#240);
#233=PRESENTATION_STYLE_ASSIGNMENT((#234));
#234=SURFACE_STYLE_USAGE(.BOTH.,#235);
#235=SURFACE_SIDE_STYLE('',(#236));
#236=SURFACE_STYLE_FILL_AREA(#237);
#237=FILL_AREA_STYLE('',(#238));
#238=FILL_AREA_STYLE_COLOUR('',#239);
#239=COLOUR_RGB('',0.498039215686275,0.498039215686275,0.498039215686275);
#240=MANIFOLD_SOLID_BREP('camera protector',#231);
#241=SHAPE_DEFINITION_REPRESENTATION(#697,#242);
#242=SHAPE_REPRESENTATION('camera protector',(#243),#692);
#243=AXIS2_PLACEMENT_3D('',#302,#259,#260);
#244=AXIS2_PLACEMENT_3D('',#303,#261,#262);
#245=AXIS2_PLACEMENT_3D('',#321,#265,#266);
#246=AXIS2_PLACEMENT_3D('',#330,#271,#272);
#247=AXIS2_PLACEMENT_3D('',#353,#274,#275);
#248=AXIS2_PLACEMENT_3D('',#354,#276,#277);
#249=AXIS2_PLACEMENT_3D('',#401,#279,#280);
#250=AXIS2_PLACEMENT_3D('',#402,#281,#282);
#251=AXIS2_PLACEMENT_3D('',#404,#283,#284);
#252=AXIS2_PLACEMENT_3D('',#406,#285,#286);
#253=AXIS2_PLACEMENT_3D('',#407,#287,#288);
#254=AXIS2_PLACEMENT_3D('',#430,#290,#291);
#255=AXIS2_PLACEMENT_3D('',#448,#294,#295);
#256=AXIS2_PLACEMENT_3D('',#492,#296,#297);
#257=AXIS2_PLACEMENT_3D('',#493,#298,#299);
#258=AXIS2_PLACEMENT_3D('',#532,#300,#301);
#259=DIRECTION('',(0.,0.,1.));
#260=DIRECTION('',(1.,0.,0.));
#261=DIRECTION('',(0.,0.,1.));
#262=DIRECTION('',(1.,0.,0.));
#263=DIRECTION('',(-1.,0.,0.));
#264=DIRECTION('',(-1.,0.,0.));
#265=DIRECTION('',(0.,-1.,0.));
#266=DIRECTION('',(0.,0.,-1.));
#267=DIRECTION('',(0.,0.,-1.));
#268=DIRECTION('',(-1.,0.,0.));
#269=DIRECTION('',(0.,0.,-1.));
#270=DIRECTION('',(-1.,0.,0.));
#271=DIRECTION('',(1.,0.,0.));
#272=DIRECTION('',(0.,0.,-1.));
#273=DIRECTION('',(0.,-1.,0.));
#274=DIRECTION('',(1.,0.,0.));
#275=DIRECTION('',(0.,0.,-1.));
#276=DIRECTION('',(0.,-1.,0.));
#277=DIRECTION('',(0.,0.,-1.));
#278=DIRECTION('',(1.,0.,0.));
#279=DIRECTION('',(0.,0.,-1.));
#280=DIRECTION('',(-1.,0.,0.));
#281=DIRECTION('',(0.,-0.194576516513049,0.980887342777777));
#282=DIRECTION('',(0.,-0.980887342777777,-0.194576516513049));
#283=DIRECTION('',(0.,0.,1.));
#284=DIRECTION('',(1.,0.,0.));
#285=DIRECTION('',(1.,0.,0.));
#286=DIRECTION('',(0.,0.,-1.));
#287=DIRECTION('',(1.,0.,0.));
#288=DIRECTION('',(0.,0.,-1.));
#289=DIRECTION('',(0.,-1.,0.));
#290=DIRECTION('',(0.,0.,1.));
#291=DIRECTION('',(1.,0.,0.));
#292=DIRECTION('',(-1.,0.,0.));
#293=DIRECTION('',(-1.,0.,0.));
#294=DIRECTION('',(0.,0.,1.));
#295=DIRECTION('',(1.,0.,0.));
#296=DIRECTION('',(0.,0.17364817766693,-0.984807753012208));
#297=DIRECTION('',(1.,0.,0.));
#298=DIRECTION('',(0.,0.17364817766693,-0.984807753012208));
#299=DIRECTION('',(0.,-0.984807753012208,-0.17364817766693));
#300=DIRECTION('',(1.,0.,0.));
#301=DIRECTION('',(0.,0.,-1.));
#302=CARTESIAN_POINT('',(0.,0.,0.));
#303=CARTESIAN_POINT('',(0.231,-0.0156355,0.0063));
#304=CARTESIAN_POINT('',(0.2186,0.09049,0.0063));
#305=CARTESIAN_POINT('',(0.241032290416685,0.09049,0.0063));
#306=CARTESIAN_POINT('',(0.233969625909695,0.09049,0.0063));
#307=CARTESIAN_POINT('',(0.233969625909695,0.09049,0.0063));
#308=CARTESIAN_POINT('',(0.234292570624655,0.0904027857559894,0.0063));
#309=CARTESIAN_POINT('',(0.23477126838451,0.0902520861813078,0.0063));
#310=CARTESIAN_POINT('',(0.235411147595583,0.09005714876479,0.0063));
#311=CARTESIAN_POINT('',(0.23573185165189,0.0899626663655008,0.0063));
#312=CARTESIAN_POINT('',(0.235904399740593,0.0899626663654985,0.0063));
#313=CARTESIAN_POINT('',(0.235904399740594,0.089962666365503,0.0063));
#314=CARTESIAN_POINT('',(0.231,0.089962666365503,0.0063));
#315=CARTESIAN_POINT('',(0.2404,0.089962666365503,0.0063));
#316=CARTESIAN_POINT('',(0.2404,0.089962666365503,0.00630000000000002));
#317=CARTESIAN_POINT('',(0.240546326791314,0.089962666365503,0.00630000000000002));
#318=CARTESIAN_POINT('',(0.240816632732024,0.090107911495014,0.00629999999999999));
#319=CARTESIAN_POINT('',(0.240966924622411,0.0903604363957514,0.0063));
#320=CARTESIAN_POINT('',(0.241032290416685,0.0904899999999997,0.0063));
#321=CARTESIAN_POINT('',(0.231,0.09449,0.0063));
#322=CARTESIAN_POINT('',(0.2186,0.09449,0.0063));
#323=CARTESIAN_POINT('',(0.2186,0.09449,0.0023));
#324=CARTESIAN_POINT('',(0.2186,0.09449,0.0018));
#325=CARTESIAN_POINT('',(0.2434,0.09449,0.0023));
#326=CARTESIAN_POINT('',(0.2434,0.09449,0.0023));
#327=CARTESIAN_POINT('',(0.2434,0.09449,0.0063));
#328=CARTESIAN_POINT('',(0.2434,0.09449,0.0018));
#329=CARTESIAN_POINT('',(0.231,0.09449,0.0018));
#330=CARTESIAN_POINT('',(0.2186,0.08309,0.0063));
#331=CARTESIAN_POINT('',(0.2186,0.08309,0.0018));
#332=CARTESIAN_POINT('',(0.2186,0.0719234878083748,0.0018));
#333=CARTESIAN_POINT('',(0.218600000000003,1.78714889987436,-9.98348793910425));
#334=CARTESIAN_POINT('',(0.2186,1.23920396120871,-6.79359444916779));
#335=CARTESIAN_POINT('',(0.2186,0.691259022543061,-3.60370095923134));
#336=CARTESIAN_POINT('',(0.2186,0.14331408387741,-0.413807469294885));
#337=CARTESIAN_POINT('',(0.2186,0.119613037429274,-0.27583044197951));
#338=CARTESIAN_POINT('',(0.2186,0.0959119909811372,-0.137853414664134));
#339=CARTESIAN_POINT('',(0.2186,0.0722109445330007,0.00012361265124108));
#340=CARTESIAN_POINT('',(0.2186,0.0719739281257769,0.00150341752041699));
#341=CARTESIAN_POINT('',(0.2186,0.0717369117185532,0.00288322238959291));
#342=CARTESIAN_POINT('',(0.2186,0.0717430027600631,0.00288429640455172));
#343=CARTESIAN_POINT('',(0.2186,0.0778278005070543,0.00395721041950035));
#344=CARTESIAN_POINT('',(0.2186,0.0841557057027791,0.00365139358023187));
#345=CARTESIAN_POINT('',(0.2186,0.0904836108985039,0.00334557674096339));
#346=CARTESIAN_POINT('',(0.2186,0.0923766176696443,0.00325409096019426));
#347=CARTESIAN_POINT('',(0.2186,0.0942696244407846,0.00316260517942512));
#348=CARTESIAN_POINT('',(0.2186,0.0961626312119249,0.00307111939865598));
#349=CARTESIAN_POINT('',(0.2186,0.110851731434946,0.00236122029888169));
#350=CARTESIAN_POINT('',(0.2186,0.125540831657966,0.0016513211991074));
#351=CARTESIAN_POINT('',(0.2186,0.140229931880987,0.00094142209933311));
#352=CARTESIAN_POINT('',(0.2186,0.0943972387045483,0.00315643780023996));
#353=CARTESIAN_POINT('',(0.2186,0.09049,0.0023));
#354=CARTESIAN_POINT('',(0.231,0.07169,0.0063));
#355=CARTESIAN_POINT('',(0.231,0.07169,0.00307803591027773));
#356=CARTESIAN_POINT('',(0.2216,0.07169,0.00307803591027773));
#357=CARTESIAN_POINT('',(0.2404,0.07169,0.00307803591027773));
#358=CARTESIAN_POINT('',(0.2216,0.07169,0.00307803591027774));
#359=CARTESIAN_POINT('',(0.221591406289859,0.07169,0.00307803591027774));
#360=CARTESIAN_POINT('',(0.221567489746293,0.0716899999999999,0.00307852171802067));
#361=CARTESIAN_POINT('',(0.221573499525894,0.0716900000000001,0.00307413489890016));
#362=CARTESIAN_POINT('',(0.221650930213004,0.07169,0.00307223035696757));
#363=CARTESIAN_POINT('',(0.221758391576678,0.0716899999999999,0.00306644847621527));
#364=CARTESIAN_POINT('',(0.221936739675557,0.0716900000000001,0.00306047230615364));
#365=CARTESIAN_POINT('',(0.222140153085941,0.0716899999999999,0.00305297126060707));
#366=CARTESIAN_POINT('',(0.222415088333134,0.0716900000000001,0.00304345194108287));
#367=CARTESIAN_POINT('',(0.22275749365384,0.0716899999999999,0.00303172874482636));
#368=CARTESIAN_POINT('',(0.223168931835812,0.0716900000000001,0.00301788130256706));
#369=CARTESIAN_POINT('',(0.223580227705258,0.0716899999999999,0.00300413307709913));
#370=CARTESIAN_POINT('',(0.224128676161514,0.07169,0.00298589574623949));
#371=CARTESIAN_POINT('',(0.224814222968021,0.07169,0.00296321039865866));
#372=CARTESIAN_POINT('',(0.225636889698558,0.0716899999999999,0.00293608092350091));
#373=CARTESIAN_POINT('',(0.226459556286945,0.0716900000000001,0.00290900769272595));
#374=CARTESIAN_POINT('',(0.227282224597712,0.07169,0.00288197067678763));
#375=CARTESIAN_POINT('',(0.2283791165849,0.07169,0.00284595459544971));
#376=CARTESIAN_POINT('',(0.229750233070659,0.0716899999999999,0.00280097828458428));
#377=CARTESIAN_POINT('',(0.231395574105617,0.0716900000000001,0.00274704568615587));
#378=CARTESIAN_POINT('',(0.233040915952374,0.0716899999999999,0.00269313765329462));
#379=CARTESIAN_POINT('',(0.234137810870666,0.07169,0.00265720980305548));
#380=CARTESIAN_POINT('',(0.234686258392,0.07169,0.00263924777092058));
#381=CARTESIAN_POINT('',(0.234686258392,0.07169,0.00263924777092104));
#382=CARTESIAN_POINT('',(0.234686258392,0.07169,0.00263924777092104));
#383=CARTESIAN_POINT('',(0.235175077950699,0.07169,0.00267428414922843));
#384=CARTESIAN_POINT('',(0.235908303791469,0.07169,0.00272688799801965));
#385=CARTESIAN_POINT('',(0.23688592288211,0.07169,0.00279723746980283));
#386=CARTESIAN_POINT('',(0.23761912567423,0.07169,0.0028501663725819));
#387=CARTESIAN_POINT('',(0.238230110075007,0.07169,0.00289450223322026));
#388=CARTESIAN_POINT('',(0.238718881526713,0.07169,0.00293023254088902));
#389=CARTESIAN_POINT('',(0.239085436714039,0.07169,0.00295723795627146));
#390=CARTESIAN_POINT('',(0.239452002240921,0.0716900000000001,0.00298453167252466));
#391=CARTESIAN_POINT('',(0.239757332440784,0.0716899999999999,0.00300783314303582));
#392=CARTESIAN_POINT('',(0.24000178730099,0.0716900000000001,0.00302687407624877));
#393=CARTESIAN_POINT('',(0.240184418389969,0.0716899999999999,0.00304233349372843));
#394=CARTESIAN_POINT('',(0.240323215685837,0.0716900000000001,0.00305304560368423));
#395=CARTESIAN_POINT('',(0.240412683281223,0.07169,0.00306422665729679));
#396=CARTESIAN_POINT('',(0.240454256765599,0.0716899999999999,0.00306597252630444));
#397=CARTESIAN_POINT('',(0.240477074945637,0.0716900000000001,0.003077520251238));
#398=CARTESIAN_POINT('',(0.240433245854724,0.0716899999999999,0.00307736134210734));
#399=CARTESIAN_POINT('',(0.240415289776993,0.0716899999999999,0.00307803591027773));
#400=CARTESIAN_POINT('',(0.240399999999998,0.0716899999999999,0.00307803591027773));
#401=CARTESIAN_POINT('',(0.231,0.08259,0.0063));
#402=CARTESIAN_POINT('',(0.231,0.08259,0.00398457338811426));
#403=CARTESIAN_POINT('',(0.231,0.07459,0.00239763056173807));
#404=CARTESIAN_POINT('',(0.231,0.08259,0.0018));
#405=CARTESIAN_POINT('',(0.239,0.08259,0.0018));
#406=CARTESIAN_POINT('',(0.2434,0.08309,0.0063));
#407=CARTESIAN_POINT('',(0.2434,0.09049,0.0023));
#408=CARTESIAN_POINT('',(0.2434,0.0943974150293377,0.00315563297534999));
#409=CARTESIAN_POINT('',(0.243400000000003,0.934836067239535,-5.14978205707982));
#410=CARTESIAN_POINT('',(0.2434,0.659216124578663,-3.50432023590462));
#411=CARTESIAN_POINT('',(0.2434,0.383596181917792,-1.85885841472942));
#412=CARTESIAN_POINT('',(0.2434,0.10797623925692,-0.213396593554225));
#413=CARTESIAN_POINT('',(0.2434,0.0960544743489472,-0.142223191485736));
#414=CARTESIAN_POINT('',(0.2434,0.0841327094409741,-0.0710497894172475));
#415=CARTESIAN_POINT('',(0.2434,0.072210944533001,0.000123612651241143));
#416=CARTESIAN_POINT('',(0.2434,0.0719796538404045,0.00150442711838967));
#417=CARTESIAN_POINT('',(0.2434,0.0717483631478079,0.00288524158553819));
#418=CARTESIAN_POINT('',(0.2434,0.0717601799039451,0.00288732519846963));
#419=CARTESIAN_POINT('',(0.2434,0.0778392519363088,0.0039592296154456));
#420=CARTESIAN_POINT('',(0.2434,0.0841614314174063,0.00365240317820449));
#421=CARTESIAN_POINT('',(0.2434,0.0904836108985038,0.00334557674096337));
#422=CARTESIAN_POINT('',(0.2434,0.0923766861684308,0.0032537024842711));
#423=CARTESIAN_POINT('',(0.2434,0.0942697614383578,0.00316182822757883));
#424=CARTESIAN_POINT('',(0.2434,0.0961628367082847,0.00306995397088656));
#425=CARTESIAN_POINT('',(0.2434,0.11085250316839,0.00235703874320432));
#426=CARTESIAN_POINT('',(0.2434,0.125542169628496,0.00164412351552207));
#427=CARTESIAN_POINT('',(0.2434,0.140231836088602,0.000931208287839831));
#428=CARTESIAN_POINT('',(0.2434,0.071931121271863,0.0018));
#429=CARTESIAN_POINT('',(0.2434,0.08309,0.0018));
#430=CARTESIAN_POINT('',(0.231,-0.0156355,0.0063));
#431=CARTESIAN_POINT('',(0.231,0.089962666365503,0.0063));
#432=CARTESIAN_POINT('',(0.226095600259406,0.089962666365503,0.0063));
#433=CARTESIAN_POINT('',(0.2216,0.089962666365503,0.0063));
#434=CARTESIAN_POINT('',(0.226095600259406,0.089962666365503,0.0063));
#435=CARTESIAN_POINT('',(0.226265518141686,0.0899626663655029,0.0063));
#436=CARTESIAN_POINT('',(0.226587339593275,0.0900563982531599,0.0063));
#437=CARTESIAN_POINT('',(0.227227765444388,0.0902519467580251,0.0063));
#438=CARTESIAN_POINT('',(0.227707183357965,0.0904027193166926,0.0063));
#439=CARTESIAN_POINT('',(0.228030374090305,0.0904899999999999,0.0063));
#440=CARTESIAN_POINT('',(0.228030374090305,0.09049,0.0063));
#441=CARTESIAN_POINT('',(0.2186,0.09049,0.0063));
#442=CARTESIAN_POINT('',(0.220967612282611,0.09049,0.0063));
#443=CARTESIAN_POINT('',(0.220967612282611,0.09049,0.00629999999999999));
#444=CARTESIAN_POINT('',(0.221032873098242,0.0903606885592671,0.00629999999999999));
#445=CARTESIAN_POINT('',(0.221179945907075,0.0901116271787276,0.00630000000000001));
#446=CARTESIAN_POINT('',(0.221452760120453,0.0899626663655033,0.0063));
#447=CARTESIAN_POINT('',(0.2216,0.0899626663655033,0.0063));
#448=CARTESIAN_POINT('',(0.231,-0.0156355,0.0018));
#449=CARTESIAN_POINT('',(0.2434,0.0719311212718629,0.00180000000000044));
#450=CARTESIAN_POINT('',(0.2434,0.0719201217179824,0.00180000000000044));
#451=CARTESIAN_POINT('',(0.243363679969762,0.0719318212809098,0.00179999999999977));
#452=CARTESIAN_POINT('',(0.243328444410887,0.0719235703749095,0.00180000000000017));
#453=CARTESIAN_POINT('',(0.243249302953483,0.0719251261177814,0.00179999999999987));
#454=CARTESIAN_POINT('',(0.243145342500155,0.0719202480640756,0.00180000000000007));
#455=CARTESIAN_POINT('',(0.243016675262532,0.0719182564376262,0.0018));
#456=CARTESIAN_POINT('',(0.242846475531524,0.0719147729860821,0.00180000000000002));
#457=CARTESIAN_POINT('',(0.242633252060173,0.0719112004277501,0.00179999999999998));
#458=CARTESIAN_POINT('',(0.24229234838357,0.0719056941291968,0.00180000000000003));
#459=CARTESIAN_POINT('',(0.241866120897846,0.0718994238291359,0.00179999999999999));
#460=CARTESIAN_POINT('',(0.2413546798064,0.0718923267465776,0.0018));
#461=CARTESIAN_POINT('',(0.24084322426591,0.0718855488671833,0.00179999999999999));
#462=CARTESIAN_POINT('',(0.240161283257249,0.0718768051077573,0.00179999999999999));
#463=CARTESIAN_POINT('',(0.239308850508283,0.0718662966849375,0.0018));
#464=CARTESIAN_POINT('',(0.238285926453478,0.0718541213591184,0.0018));
#465=CARTESIAN_POINT('',(0.236922022576813,0.0718383106005779,0.00179999999999999));
#466=CARTESIAN_POINT('',(0.235899090660924,0.0718268112843564,0.0018));
#467=CARTESIAN_POINT('',(0.235217134874821,0.0718192475958175,0.0018));
#468=CARTESIAN_POINT('',(0.23521713487482,0.0718192475958175,0.0018));
#469=CARTESIAN_POINT('',(0.23521713487482,0.0718192475958175,0.0018));
#470=CARTESIAN_POINT('',(0.23452474625233,0.0718229532441579,0.0018));
#471=CARTESIAN_POINT('',(0.233139969215395,0.0718304032612039,0.00180000000000001));
#472=CARTESIAN_POINT('',(0.231062804424912,0.07184171986701,0.00179999999999999));
#473=CARTESIAN_POINT('',(0.228985640611158,0.0718532139738748,0.0018));
#474=CARTESIAN_POINT('',(0.226908478087268,0.0718649406904954,0.00180000000000004));
#475=CARTESIAN_POINT('',(0.225177510858225,0.071874979753602,0.00179999999999991));
#476=CARTESIAN_POINT('',(0.223792738490224,0.0718832577103537,0.0018));
#477=CARTESIAN_POINT('',(0.222754160319014,0.0718896304250602,0.00179999999999998));
#478=CARTESIAN_POINT('',(0.221888679316453,0.0718951283666292,0.00180000000000003));
#479=CARTESIAN_POINT('',(0.221196296456099,0.0718997018276234,0.0018));
#480=CARTESIAN_POINT('',(0.220677007867363,0.0719032446889439,0.00180000000000001));
#481=CARTESIAN_POINT('',(0.22015772886671,0.0719069580623978,0.00179999999999998));
#482=CARTESIAN_POINT('',(0.219724971426361,0.0719102217353877,0.00180000000000006));
#483=CARTESIAN_POINT('',(0.219378826338245,0.0719131217164149,0.00179999999999994));
#484=CARTESIAN_POINT('',(0.219162352301512,0.0719149231834742,0.00180000000000001));
#485=CARTESIAN_POINT('',(0.218989482690947,0.0719168700245794,0.00180000000000005));
#486=CARTESIAN_POINT('',(0.218858988137626,0.071917509913095,0.00179999999999997));
#487=CARTESIAN_POINT('',(0.21875292914041,0.0719212955520184,0.00180000000000002));
#488=CARTESIAN_POINT('',(0.218673424476055,0.0719182604451805,0.00180000000000003));
#489=CARTESIAN_POINT('',(0.218636222987174,0.0719261178568683,0.00180000000000006));
#490=CARTESIAN_POINT('',(0.218602181466937,0.0719127267673455,0.00179999999999999));
#491=CARTESIAN_POINT('',(0.218600000811791,0.0719234798049907,0.00179999999999999));
#492=CARTESIAN_POINT('',(0.231,0.08259,0.005));
#493=CARTESIAN_POINT('',(0.231,0.0824163518223331,0.00496938114112646));
#494=CARTESIAN_POINT('',(10.3513339099879,0.0276181216217796,-0.00469302533830458));
#495=CARTESIAN_POINT('',(7.11475242975423,0.0416996588690132,-0.00221007039176608));
#496=CARTESIAN_POINT('',(3.87817094952053,0.0557811961162468,0.00027288455477242));
#497=CARTESIAN_POINT('',(0.641589469286831,0.0698627333634804,0.00275583950131092));
#498=CARTESIAN_POINT('',(0.501592979524554,0.0704718222423203,0.00286323830429986));
#499=CARTESIAN_POINT('',(0.361596489762277,0.0710809111211602,0.0029706371072888));
#500=CARTESIAN_POINT('',(0.2216,0.07169,0.00307803591027774));
#501=CARTESIAN_POINT('',(0.2202,0.07169609104151,0.00307910992523654));
#502=CARTESIAN_POINT('',(0.2188,0.0717021820830198,0.00308018394019535));
#503=CARTESIAN_POINT('',(0.2188,0.0717082731245298,0.00308125795515417));
#504=CARTESIAN_POINT('',(0.2188,0.0777930708715209,0.00415417197010279));
#505=CARTESIAN_POINT('',(0.2202,0.0838778686185121,0.00522708598505142));
#506=CARTESIAN_POINT('',(0.2216,0.0899626663655033,0.0063));
#507=CARTESIAN_POINT('',(0.222018813082312,0.0917829470081172,0.00662096458975423));
#508=CARTESIAN_POINT('',(0.222437626164623,0.0936032276507311,0.0069419291795084));
#509=CARTESIAN_POINT('',(0.222856439246934,0.095423508293345,0.00726289376926258));
#510=CARTESIAN_POINT('',(0.226106288869543,0.109548278051708,0.00975347177395704));
#511=CARTESIAN_POINT('',(0.229356138492151,0.123673047810072,0.0122440497786515));
#512=CARTESIAN_POINT('',(0.23260598811476,0.137797817568436,0.014734627783346));
#513=CARTESIAN_POINT('',(-4.98106031140038,0.0276180548712883,-0.00469303710821721));
#514=CARTESIAN_POINT('',(-3.31273585184973,0.0416996143686704,-0.0022100782383772));
#515=CARTESIAN_POINT('',(-1.64441139229909,0.0557811738660525,0.000272880631462823));
#516=CARTESIAN_POINT('',(0.0239130672515626,0.0698627333634346,0.00275583950130284));
#517=CARTESIAN_POINT('',(0.0960753781677084,0.0704718222422898,0.00286323830429447));
#518=CARTESIAN_POINT('',(0.168237689083854,0.0710809111211449,0.0029706371072861));
#519=CARTESIAN_POINT('',(0.2404,0.07169,0.00307803591027773));
#520=CARTESIAN_POINT('',(0.2418,0.0717018167561373,0.00308011952320918));
#521=CARTESIAN_POINT('',(0.2432,0.0717136335122745,0.00308220313614063));
#522=CARTESIAN_POINT('',(0.2432,0.0717254502684117,0.00308428674907207));
#523=CARTESIAN_POINT('',(0.2432,0.0778045223007754,0.00415619116604805));
#524=CARTESIAN_POINT('',(0.2418,0.0838835943331391,0.005228095583024));
#525=CARTESIAN_POINT('',(0.2404,0.0899626663655028,0.0063));
#526=CARTESIAN_POINT('',(0.239980792448898,0.0917829470081167,0.00662096458975413));
#527=CARTESIAN_POINT('',(0.239561584897796,0.0936032276507306,0.0069419291795083));
#528=CARTESIAN_POINT('',(0.239142377346694,0.0954235082933445,0.00726289376926247));
#529=CARTESIAN_POINT('',(0.2358894590919,0.109548311426405,0.00975347765881658));
#530=CARTESIAN_POINT('',(0.232636540837105,0.123673114559466,0.0122440615483707));
#531=CARTESIAN_POINT('',(0.229383622582311,0.137797917692527,0.0147346454379248));
#532=CARTESIAN_POINT('',(0.231,0.09049,0.0023));
#533=CARTESIAN_POINT('',(0.228030374090305,0.09049,0.0063));
#534=CARTESIAN_POINT('',(0.22900397582457,0.0907529302641844,0.0063));
#535=CARTESIAN_POINT('',(0.23101799525413,0.091016764766342,0.00626094875150301));
#536=CARTESIAN_POINT('',(0.232997540166815,0.0907525208565164,0.00630000000000024));
#537=CARTESIAN_POINT('',(0.233969625909695,0.0904899999999997,0.00630000000000021));
#538=CARTESIAN_POINT('',(0.241032290416685,0.09049,0.00630000000000005));
#539=CARTESIAN_POINT('',(0.241259101804613,0.0909395700118168,0.00630000000000005));
#540=CARTESIAN_POINT('',(0.241809414772952,0.0917652833649436,0.0061593222794209));
#541=CARTESIAN_POINT('',(0.242578150606297,0.0929225675253939,0.00556711300885591));
#542=CARTESIAN_POINT('',(0.243205692384001,0.0938863450367708,0.00457080166101727));
#543=CARTESIAN_POINT('',(0.2434,0.0942894602633839,0.00364862949036126));
#544=CARTESIAN_POINT('',(0.2434,0.0943974150293376,0.00315563297534998));
#545=CARTESIAN_POINT('',(0.2186,0.0943972387045483,0.00315643780023995));
#546=CARTESIAN_POINT('',(0.2186,0.0942892361966001,0.00364916661151541));
#547=CARTESIAN_POINT('',(0.218793777808038,0.0938869410116693,0.00456941614596722));
#548=CARTESIAN_POINT('',(0.219419934600632,0.0929248775754101,0.00556501505411068));
#549=CARTESIAN_POINT('',(0.22018739935292,0.0917698252358541,0.00615830543898732));
#550=CARTESIAN_POINT('',(0.220741130567192,0.0909387635748576,0.0063));
#551=CARTESIAN_POINT('',(0.220967612282611,0.09049,0.0063));
#552=CARTESIAN_POINT('',(0.213626620371602,0.0714640182156864,0.0030381892245546));
#553=CARTESIAN_POINT('',(0.222551080247735,0.0715393454771243,0.00305147145312898));
#554=CARTESIAN_POINT('',(0.231475540123867,0.0716146727385621,0.00306475368170335));
#555=CARTESIAN_POINT('',(0.2404,0.07169,0.00307803591027773));
#556=CARTESIAN_POINT('',(0.2418,0.0717018167561373,0.00308011952320918));
#557=CARTESIAN_POINT('',(0.2432,0.0717136335122745,0.00308220313614063));
#558=CARTESIAN_POINT('',(0.2432,0.0717254502684117,0.00308428674907207));
#559=CARTESIAN_POINT('',(0.2432,0.0778045223007754,0.00415619116604805));
#560=CARTESIAN_POINT('',(0.2418,0.0838835943331391,0.005228095583024));
#561=CARTESIAN_POINT('',(0.2404,0.0899626663655028,0.0063));
#562=CARTESIAN_POINT('',(0.240100913025577,0.0912613601236892,0.0065289947492459));
#563=CARTESIAN_POINT('',(0.239801826051153,0.0925600538818755,0.00675798949849181));
#564=CARTESIAN_POINT('',(0.23950273907673,0.0938587476400619,0.00698698424773774));
#565=CARTESIAN_POINT('',(0.2434,0.0714640182156884,0.00303818922455496));
#566=CARTESIAN_POINT('',(0.2434,0.0715393454771256,0.00305147145312923));
#567=CARTESIAN_POINT('',(0.2434,0.0716146727385629,0.00306475368170349));
#568=CARTESIAN_POINT('',(0.2434,0.0716900000000001,0.00307803591027776));
#569=CARTESIAN_POINT('',(0.2434,0.0717018167561374,0.0030801195232092));
#570=CARTESIAN_POINT('',(0.2434,0.0717136335122745,0.00308220313614063));
#571=CARTESIAN_POINT('',(0.2434,0.0717254502684117,0.00308428674907206));
#572=CARTESIAN_POINT('',(0.2434,0.0778045223007754,0.00415619116604805));
#573=CARTESIAN_POINT('',(0.2434,0.0838835943331392,0.00522809558302401));
#574=CARTESIAN_POINT('',(0.2434,0.0899626663655029,0.00629999999999999));
#575=CARTESIAN_POINT('',(0.2434,0.0912613601236893,0.00652899474924592));
#576=CARTESIAN_POINT('',(0.2434,0.0925600538818756,0.00675798949849185));
#577=CARTESIAN_POINT('',(0.2434,0.093858747640062,0.00698698424773778));
#578=CARTESIAN_POINT('',(0.2434,0.0766341113311454,-0.0262828658668667));
#579=CARTESIAN_POINT('',(0.2434,0.0751597223984306,-0.0174807063608307));
#580=CARTESIAN_POINT('',(0.2434,0.0736853334657158,-0.00867854685479479));
#581=CARTESIAN_POINT('',(0.2434,0.072210944533001,0.000123612651241143));
#582=CARTESIAN_POINT('',(0.2434,0.0719796538404045,0.00150442711838967));
#583=CARTESIAN_POINT('',(0.2434,0.0717483631478079,0.00288524158553819));
#584=CARTESIAN_POINT('',(0.2434,0.0717601799039451,0.00288732519846963));
#585=CARTESIAN_POINT('',(0.2434,0.0778392519363088,0.0039592296154456));
#586=CARTESIAN_POINT('',(0.2434,0.0841614314174063,0.00365240317820449));
#587=CARTESIAN_POINT('',(0.2434,0.0904836108985038,0.00334557674096337));
#588=CARTESIAN_POINT('',(0.2434,0.0918342405647627,0.00328002831897228));
#589=CARTESIAN_POINT('',(0.2434,0.0931848702310216,0.0032144798969812));
#590=CARTESIAN_POINT('',(0.2434,0.0945354998972804,0.00314893147499011));
#591=CARTESIAN_POINT('',(0.234686258391997,0.0716900000000002,0.00263924777091907));
#592=CARTESIAN_POINT('',(0.234899683579889,0.0717277269724665,0.00238441133184564));
#593=CARTESIAN_POINT('',(0.235066209014961,0.0717728088449435,0.00209489345109754));
#594=CARTESIAN_POINT('',(0.235217134874821,0.0718192475958174,0.00180000000000054));
#595=CARTESIAN_POINT('',(0.2186,0.0810044067128506,-0.0510680414405247));
#596=CARTESIAN_POINT('',(0.2186,0.0780732526529007,-0.0340041567432694));
#597=CARTESIAN_POINT('',(0.2186,0.0751420985929507,-0.0169402720460142));
#598=CARTESIAN_POINT('',(0.2186,0.0722109445330007,0.00012361265124108));
#599=CARTESIAN_POINT('',(0.2186,0.0719739281257769,0.00150341752041699));
#600=CARTESIAN_POINT('',(0.2186,0.0717369117185532,0.00288322238959291));
#601=CARTESIAN_POINT('',(0.2186,0.0717430027600631,0.00288429640455172));
#602=CARTESIAN_POINT('',(0.2186,0.0778278005070543,0.00395721041950035));
#603=CARTESIAN_POINT('',(0.2186,0.0841557057027791,0.00365139358023187));
#604=CARTESIAN_POINT('',(0.2186,0.0904836108985039,0.00334557674096339));
#605=CARTESIAN_POINT('',(0.2186,0.091834180054935,0.00328030604270573));
#606=CARTESIAN_POINT('',(0.2186,0.093184749211366,0.00321503534444807));
#607=CARTESIAN_POINT('',(0.2186,0.0945353183677971,0.00314976464619041));
#608=CARTESIAN_POINT('',(0.218599999999999,0.0714640184159353,0.0030381892598639));
#609=CARTESIAN_POINT('',(0.218599999999999,0.0715393456106235,0.0030514714766685));
#610=CARTESIAN_POINT('',(0.218599999999999,0.0716146728053117,0.0030647536934731));
#611=CARTESIAN_POINT('',(0.218599999999999,0.0716899999999998,0.0030780359102777));
#612=CARTESIAN_POINT('',(0.218599999999999,0.0716960910415098,0.00307910992523652));
#613=CARTESIAN_POINT('',(0.2186,0.0717021820830198,0.00308018394019535));
#614=CARTESIAN_POINT('',(0.2186,0.0717082731245296,0.00308125795515416));
#615=CARTESIAN_POINT('',(0.218599999999999,0.0777930708715208,0.00415417197010278));
#616=CARTESIAN_POINT('',(0.218599999999999,0.0838778686185119,0.0052270859850514));
#617=CARTESIAN_POINT('',(0.2186,0.0899626663655031,0.00630000000000001));
#618=CARTESIAN_POINT('',(0.2186,0.0912613489320117,0.0065289927758512));
#619=CARTESIAN_POINT('',(0.2186,0.0925600314985203,0.00675798555170239));
#620=CARTESIAN_POINT('',(0.2186,0.093858714065029,0.00698697832755358));
#621=CARTESIAN_POINT('',(0.273540906522004,0.0714640184159393,0.00303818925986461));
#622=CARTESIAN_POINT('',(0.256227271014669,0.0715393456106262,0.00305147147666899));
#623=CARTESIAN_POINT('',(0.238913635507335,0.0716146728053131,0.00306475369347337));
#624=CARTESIAN_POINT('',(0.2216,0.07169,0.00307803591027774));
#625=CARTESIAN_POINT('',(0.2202,0.07169609104151,0.00307910992523654));
#626=CARTESIAN_POINT('',(0.2188,0.0717021820830198,0.00308018394019535));
#627=CARTESIAN_POINT('',(0.2188,0.0717082731245298,0.00308125795515417));
#628=CARTESIAN_POINT('',(0.2188,0.0777930708715209,0.00415417197010279));
#629=CARTESIAN_POINT('',(0.2202,0.0838778686185121,0.00522708598505142));
#630=CARTESIAN_POINT('',(0.2216,0.0899626663655033,0.0063));
#631=CARTESIAN_POINT('',(0.221898802962516,0.091261348932012,0.00652899277585123));
#632=CARTESIAN_POINT('',(0.222197605925032,0.0925600314985206,0.00675798555170244));
#633=CARTESIAN_POINT('',(0.222496408887548,0.0938587140650293,0.00698697832755364));
#634=CARTESIAN_POINT('',(0.231,0.07459,0.00239763056173807));
#635=CARTESIAN_POINT('',(0.231,0.07459,0.00358938415433228));
#636=CARTESIAN_POINT('',(0.231,0.0734163518223331,0.00338243831475028));
#637=CARTESIAN_POINT('',(0.229952943366893,0.07459,0.00239763056173807));
#638=CARTESIAN_POINT('',(0.229980097704909,0.07459,0.00358938415433229));
#639=CARTESIAN_POINT('',(0.229822061287755,0.073416351822333,0.00338243831475028));
#640=CARTESIAN_POINT('',(0.22785883010068,0.0750065450273436,0.00248025970461378));
#641=CARTESIAN_POINT('',(0.227957009033589,0.0749780747336263,0.00365781220040185));
#642=CARTESIAN_POINT('',(0.227466183863265,0.0738849649780946,0.00346506745762598));
#643=CARTESIAN_POINT('',(0.225195874843756,0.0767858748437555,0.00283322154060278));
#644=CARTESIAN_POINT('',(0.225327994426555,0.076664705503982,0.00395521071170866));
#645=CARTESIAN_POINT('',(0.224470359199225,0.075886711021558,0.00381802929361499));
#646=CARTESIAN_POINT('',(0.223416545027344,0.07944883010068,0.00336146625834493));
#647=CARTESIAN_POINT('',(0.223503396271953,0.0792477652267489,0.0044106738336138));
#648=CARTESIAN_POINT('',(0.222468613155762,0.0788825356855981,0.00434627401135714));
#649=CARTESIAN_POINT('',(0.222791727486328,0.08259,0.00398457338811425));
#650=CARTESIAN_POINT('',(0.222790768326119,0.0823695718795595,0.00496113257505949));
#651=CARTESIAN_POINT('',(0.221765693422119,0.0824163518223331,0.00496938114112646));
#652=CARTESIAN_POINT('',(0.223416545027344,0.08573116989932,0.00460768051788358));
#653=CARTESIAN_POINT('',(0.223339627370767,0.085556988915308,0.00552316019723174));
#654=CARTESIAN_POINT('',(0.222468613155762,0.085950167959068,0.00559248827089579));
#655=CARTESIAN_POINT('',(0.225195874843756,0.0883941251562445,0.00513592523562573));
#656=CARTESIAN_POINT('',(0.225093402112099,0.0883013311239667,0.00600706177291532));
#657=CARTESIAN_POINT('',(0.224470359199225,0.0889459926231081,0.00612073298863793));
#658=CARTESIAN_POINT('',(0.22785883010068,0.0901734549726563,0.00548888707161473));
#659=CARTESIAN_POINT('',(0.227788954131016,0.0901534647900474,0.00633364291012385));
#660=CARTESIAN_POINT('',(0.227466183863265,0.0909477386665715,0.00647369482462694));
#661=CARTESIAN_POINT('',(0.231,0.0907982725136718,0.0056128307859283));
#662=CARTESIAN_POINT('',(0.231,0.0908070125195358,0.00644888100801339));
#663=CARTESIAN_POINT('',(0.231,0.0916506584002139,0.0065976385389405));
#664=CARTESIAN_POINT('',(0.23414116989932,0.0901734549726564,0.00548888707161474));
#665=CARTESIAN_POINT('',(0.234211045868984,0.0901534647900474,0.00633364291012385));
#666=CARTESIAN_POINT('',(0.234533816136735,0.0909477386665715,0.00647369482462695));
#667=CARTESIAN_POINT('',(0.236804125156244,0.0883941251562445,0.00513592523562572));
#668=CARTESIAN_POINT('',(0.236906597887901,0.0883013311239666,0.00600706177291532));
#669=CARTESIAN_POINT('',(0.237529640800775,0.0889459926231081,0.00612073298863793));
#670=CARTESIAN_POINT('',(0.238583454972656,0.08573116989932,0.00460768051788359));
#671=CARTESIAN_POINT('',(0.238660372629233,0.085556988915308,0.00552316019723174));
#672=CARTESIAN_POINT('',(0.239531386844238,0.085950167959068,0.0055924882708958));
#673=CARTESIAN_POINT('',(0.239208272513672,0.08259,0.00398457338811425));
#674=CARTESIAN_POINT('',(0.239209231673881,0.0823695718795595,0.00496113257505948));
#675=CARTESIAN_POINT('',(0.240234306577881,0.082416351822333,0.00496938114112646));
#676=CARTESIAN_POINT('',(0.238583454972656,0.0794488301006801,0.00336146625834493));
#677=CARTESIAN_POINT('',(0.238496603728047,0.0792477652267489,0.0044106738336138));
#678=CARTESIAN_POINT('',(0.239531386844238,0.0788825356855982,0.00434627401135714));
#679=CARTESIAN_POINT('',(0.236804125156244,0.0767858748437555,0.00283322154060279));
#680=CARTESIAN_POINT('',(0.236672005573445,0.076664705503982,0.00395521071170867));
#681=CARTESIAN_POINT('',(0.237529640800775,0.075886711021558,0.003818029293615));
#682=CARTESIAN_POINT('',(0.23414116989932,0.0750065450273437,0.00248025970461378));
#683=CARTESIAN_POINT('',(0.234042990966411,0.0749780747336263,0.00365781220040182));
#684=CARTESIAN_POINT('',(0.234533816136735,0.0738849649780947,0.00346506745762598));
#685=CARTESIAN_POINT('',(0.232047056633107,0.07459,0.00239763056173807));
#686=CARTESIAN_POINT('',(0.232019902295091,0.07459,0.00358938415433228));
#687=CARTESIAN_POINT('',(0.232177938712245,0.0734163518223331,0.00338243831475028));
#688=CARTESIAN_POINT('',(0.231,0.07459,0.00239763056173807));
#689=CARTESIAN_POINT('',(0.231,0.07459,0.00358938415433228));
#690=CARTESIAN_POINT('',(0.231,0.0734163518223331,0.00338243831475028));
#691=MECHANICAL_DESIGN_GEOMETRIC_PRESENTATION_REPRESENTATION('',(#232),
#692);
#692=(
GEOMETRIC_REPRESENTATION_CONTEXT(3)
GLOBAL_UNCERTAINTY_ASSIGNED_CONTEXT((#693))
GLOBAL_UNIT_ASSIGNED_CONTEXT((#696,#695,#694))
REPRESENTATION_CONTEXT('camera protector','TOP_LEVEL_ASSEMBLY_PART')
);
#693=UNCERTAINTY_MEASURE_WITH_UNIT(LENGTH_MEASURE(2.E-5),#696,
'DISTANCE_ACCURACY_VALUE','Maximum Tolerance applied to model');
#694=(
NAMED_UNIT(*)
SI_UNIT($,.STERADIAN.)
SOLID_ANGLE_UNIT()
);
#695=(
NAMED_UNIT(*)
PLANE_ANGLE_UNIT()
SI_UNIT($,.RADIAN.)
);
#696=(
LENGTH_UNIT()
NAMED_UNIT(*)
SI_UNIT($,.METRE.)
);
#697=PRODUCT_DEFINITION_SHAPE('','',#698);
#698=PRODUCT_DEFINITION('','',#700,#699);
#699=PRODUCT_DEFINITION_CONTEXT('',#706,'design');
#700=PRODUCT_DEFINITION_FORMATION_WITH_SPECIFIED_SOURCE('','',#702,
 .NOT_KNOWN.);
#701=PRODUCT_RELATED_PRODUCT_CATEGORY('','',(#702));
#702=PRODUCT('camera protector','camera protector','camera protector',(#704));
#703=PRODUCT_CATEGORY('','');
#704=PRODUCT_CONTEXT('',#706,'mechanical');
#705=APPLICATION_PROTOCOL_DEFINITION('international standard',
'ap242_managed_model_based_3d_engineering',2020,#706);
#706=APPLICATION_CONTEXT('managed model based 3d engineering');
ENDSEC;
END-ISO-10303-21;
