ISO-10303-21;
HEADER;
/* Generated by software containing ST-Developer
 * from STEP Tools, Inc. (www.steptools.com) 
 */
/* OPTION: using custom renumber hook */

FILE_DESCRIPTION(
/* description */ ('STEP AP242 Edition 2',
'CAx-IF Rec.Pracs.---Representation and Presentation of Product Manufa
cturing Information (PMI)---4.0---2014-10-13',
'CAx-IF Rec.Pracs.---3D Tessellated Geometry---0.4---2014-09-14','2;1',
'CAx-IF Rec.Pracs.---User Defined Attributes---1.5---2016-08-15'),
/* implementation_level */ '2;1');

FILE_NAME(
/* name */ 'Open-Flight-Monitor-2 - Kick-Stand-Peg-R__Mirror2',
/* time_stamp */ '2026-09-14T06:14:40Z',
/* author */ (''),
/* organization */ (''),
/* preprocessor_version */ 'ST-DEVELOPER v20',
/* originating_system */ 'ONSHAPE BY PTC INC, 1.220',
/* authorisation */ '  ');

FILE_SCHEMA (('AP242_MANAGED_MODEL_BASED_3D_ENGINEERING_MIM_LF { 1 0 10303 442 3 1 4 }'));
ENDSEC;

DATA;
#10=SHAPE_REPRESENTATION_RELATIONSHIP('','',#457,#11);
#11=ADVANCED_BREP_SHAPE_REPRESENTATION('',(#455),#801);
#12=CONICAL_SURFACE('',#479,0.00194641016151379,1.04719755119659);
#13=CONICAL_SURFACE('',#482,0.00324641016151378,1.0471975511966);
#14=PLANE('',#462);
#15=PLANE('',#496);
#16=PLANE('',#497);
#17=PLANE('',#507);
#18=PLANE('',#509);
#19=PLANE('',#511);
#20=PLANE('',#512);
#21=PLANE('',#515);
#22=PLANE('',#516);
#23=PLANE('',#518);
#24=LINE('',#676,#48);
#25=LINE('',#680,#49);
#26=LINE('',#682,#50);
#27=LINE('',#688,#51);
#28=LINE('',#702,#52);
#29=LINE('',#708,#53);
#30=LINE('',#717,#54);
#31=LINE('',#718,#55);
#32=LINE('',#720,#56);
#33=LINE('',#724,#57);
#34=LINE('',#750,#58);
#35=LINE('',#754,#59);
#36=LINE('',#756,#60);
#37=LINE('',#760,#61);
#38=LINE('',#766,#62);
#39=LINE('',#769,#63);
#40=LINE('',#778,#64);
#41=LINE('',#781,#65);
#42=LINE('',#784,#66);
#43=LINE('',#785,#67);
#44=LINE('',#792,#68);
#45=LINE('',#794,#69);
#46=LINE('',#796,#70);
#47=LINE('',#797,#71);
#48=VECTOR('',#527,1.);
#49=VECTOR('',#530,1.);
#50=VECTOR('',#533,1.);
#51=VECTOR('',#538,1.);
#52=VECTOR('',#551,1.);
#53=VECTOR('',#556,1.);
#54=VECTOR('',#565,1.);
#55=VECTOR('',#566,1.);
#56=VECTOR('',#569,1.);
#57=VECTOR('',#572,1.);
#58=VECTOR('',#605,1.);
#59=VECTOR('',#608,1.);
#60=VECTOR('',#611,1.);
#61=VECTOR('',#616,1.);
#62=VECTOR('',#621,1.);
#63=VECTOR('',#624,1.);
#64=VECTOR('',#635,1.);
#65=VECTOR('',#640,1.);
#66=VECTOR('',#645,1.);
#67=VECTOR('',#646,1.);
#68=VECTOR('',#659,1.);
#69=VECTOR('',#662,1.);
#70=VECTOR('',#665,1.);
#71=VECTOR('',#666,1.);
#72=ORIENTED_EDGE('',*,*,#188,.T.);
#73=ORIENTED_EDGE('',*,*,#189,.T.);
#74=ORIENTED_EDGE('',*,*,#190,.F.);
#75=ORIENTED_EDGE('',*,*,#191,.F.);
#76=ORIENTED_EDGE('',*,*,#192,.F.);
#77=ORIENTED_EDGE('',*,*,#193,.T.);
#78=ORIENTED_EDGE('',*,*,#194,.T.);
#79=ORIENTED_EDGE('',*,*,#195,.T.);
#80=ORIENTED_EDGE('',*,*,#196,.T.);
#81=ORIENTED_EDGE('',*,*,#188,.F.);
#82=ORIENTED_EDGE('',*,*,#197,.F.);
#83=ORIENTED_EDGE('',*,*,#198,.F.);
#84=ORIENTED_EDGE('',*,*,#199,.F.);
#85=ORIENTED_EDGE('',*,*,#200,.F.);
#86=ORIENTED_EDGE('',*,*,#201,.F.);
#87=ORIENTED_EDGE('',*,*,#202,.F.);
#88=ORIENTED_EDGE('',*,*,#203,.F.);
#89=ORIENTED_EDGE('',*,*,#204,.F.);
#90=ORIENTED_EDGE('',*,*,#205,.F.);
#91=ORIENTED_EDGE('',*,*,#206,.F.);
#92=ORIENTED_EDGE('',*,*,#207,.T.);
#93=ORIENTED_EDGE('',*,*,#208,.T.);
#94=ORIENTED_EDGE('',*,*,#209,.T.);
#95=ORIENTED_EDGE('',*,*,#201,.T.);
#96=ORIENTED_EDGE('',*,*,#210,.T.);
#97=ORIENTED_EDGE('',*,*,#203,.T.);
#98=ORIENTED_EDGE('',*,*,#211,.T.);
#99=ORIENTED_EDGE('',*,*,#212,.T.);
#100=ORIENTED_EDGE('',*,*,#213,.T.);
#101=ORIENTED_EDGE('',*,*,#214,.T.);
#102=ORIENTED_EDGE('',*,*,#215,.T.);
#103=ORIENTED_EDGE('',*,*,#216,.T.);
#104=ORIENTED_EDGE('',*,*,#217,.T.);
#105=ORIENTED_EDGE('',*,*,#218,.F.);
#106=ORIENTED_EDGE('',*,*,#219,.T.);
#107=ORIENTED_EDGE('',*,*,#194,.F.);
#108=ORIENTED_EDGE('',*,*,#220,.T.);
#109=ORIENTED_EDGE('',*,*,#221,.F.);
#110=ORIENTED_EDGE('',*,*,#215,.F.);
#111=ORIENTED_EDGE('',*,*,#222,.F.);
#112=ORIENTED_EDGE('',*,*,#217,.F.);
#113=ORIENTED_EDGE('',*,*,#193,.F.);
#114=ORIENTED_EDGE('',*,*,#223,.T.);
#115=ORIENTED_EDGE('',*,*,#224,.T.);
#116=ORIENTED_EDGE('',*,*,#225,.F.);
#117=ORIENTED_EDGE('',*,*,#221,.T.);
#118=ORIENTED_EDGE('',*,*,#226,.T.);
#119=ORIENTED_EDGE('',*,*,#224,.F.);
#120=ORIENTED_EDGE('',*,*,#190,.T.);
#121=ORIENTED_EDGE('',*,*,#227,.T.);
#122=ORIENTED_EDGE('',*,*,#228,.F.);
#123=ORIENTED_EDGE('',*,*,#229,.T.);
#124=ORIENTED_EDGE('',*,*,#230,.T.);
#125=ORIENTED_EDGE('',*,*,#231,.T.);
#126=ORIENTED_EDGE('',*,*,#232,.T.);
#127=ORIENTED_EDGE('',*,*,#212,.F.);
#128=ORIENTED_EDGE('',*,*,#233,.T.);
#129=ORIENTED_EDGE('',*,*,#208,.F.);
#130=ORIENTED_EDGE('',*,*,#234,.T.);
#131=ORIENTED_EDGE('',*,*,#235,.F.);
#132=ORIENTED_EDGE('',*,*,#236,.F.);
#133=ORIENTED_EDGE('',*,*,#237,.F.);
#134=ORIENTED_EDGE('',*,*,#216,.F.);
#135=ORIENTED_EDGE('',*,*,#234,.F.);
#136=ORIENTED_EDGE('',*,*,#210,.F.);
#137=ORIENTED_EDGE('',*,*,#200,.T.);
#138=ORIENTED_EDGE('',*,*,#238,.F.);
#139=ORIENTED_EDGE('',*,*,#214,.F.);
#140=ORIENTED_EDGE('',*,*,#222,.T.);
#141=ORIENTED_EDGE('',*,*,#239,.F.);
#142=ORIENTED_EDGE('',*,*,#204,.T.);
#143=ORIENTED_EDGE('',*,*,#213,.F.);
#144=ORIENTED_EDGE('',*,*,#232,.F.);
#145=ORIENTED_EDGE('',*,*,#202,.T.);
#146=ORIENTED_EDGE('',*,*,#209,.F.);
#147=ORIENTED_EDGE('',*,*,#233,.F.);
#148=ORIENTED_EDGE('',*,*,#211,.F.);
#149=ORIENTED_EDGE('',*,*,#198,.T.);
#150=ORIENTED_EDGE('',*,*,#240,.F.);
#151=ORIENTED_EDGE('',*,*,#236,.T.);
#152=ORIENTED_EDGE('',*,*,#241,.F.);
#153=ORIENTED_EDGE('',*,*,#218,.T.);
#154=ORIENTED_EDGE('',*,*,#220,.F.);
#155=ORIENTED_EDGE('',*,*,#219,.F.);
#156=ORIENTED_EDGE('',*,*,#235,.T.);
#157=ORIENTED_EDGE('',*,*,#238,.T.);
#158=ORIENTED_EDGE('',*,*,#199,.T.);
#159=ORIENTED_EDGE('',*,*,#241,.T.);
#160=ORIENTED_EDGE('',*,*,#197,.T.);
#161=ORIENTED_EDGE('',*,*,#191,.T.);
#162=ORIENTED_EDGE('',*,*,#237,.T.);
#163=ORIENTED_EDGE('',*,*,#240,.T.);
#164=ORIENTED_EDGE('',*,*,#223,.F.);
#165=ORIENTED_EDGE('',*,*,#192,.T.);
#166=ORIENTED_EDGE('',*,*,#225,.T.);
#167=ORIENTED_EDGE('',*,*,#226,.F.);
#168=ORIENTED_EDGE('',*,*,#205,.T.);
#169=ORIENTED_EDGE('',*,*,#239,.T.);
#170=ORIENTED_EDGE('',*,*,#231,.F.);
#171=ORIENTED_EDGE('',*,*,#242,.F.);
#172=ORIENTED_EDGE('',*,*,#230,.F.);
#173=ORIENTED_EDGE('',*,*,#243,.T.);
#174=ORIENTED_EDGE('',*,*,#206,.T.);
#175=ORIENTED_EDGE('',*,*,#242,.T.);
#176=ORIENTED_EDGE('',*,*,#228,.T.);
#177=ORIENTED_EDGE('',*,*,#244,.T.);
#178=ORIENTED_EDGE('',*,*,#195,.F.);
#179=ORIENTED_EDGE('',*,*,#245,.T.);
#180=ORIENTED_EDGE('',*,*,#196,.F.);
#181=ORIENTED_EDGE('',*,*,#244,.F.);
#182=ORIENTED_EDGE('',*,*,#227,.F.);
#183=ORIENTED_EDGE('',*,*,#189,.F.);
#184=ORIENTED_EDGE('',*,*,#207,.F.);
#185=ORIENTED_EDGE('',*,*,#243,.F.);
#186=ORIENTED_EDGE('',*,*,#229,.F.);
#187=ORIENTED_EDGE('',*,*,#245,.F.);
#188=EDGE_CURVE('NONE',#246,#247,#288,.F.);
#189=EDGE_CURVE('',#247,#248,#24,.F.);
#190=EDGE_CURVE('NONE',#249,#248,#289,.F.);
#191=EDGE_CURVE('NONE',#246,#249,#25,.F.);
#192=EDGE_CURVE('NONE',#250,#251,#26,.T.);
#193=EDGE_CURVE('NONE',#250,#251,#290,.F.);
#194=EDGE_CURVE('NONE',#252,#252,#291,.F.);
#195=EDGE_CURVE('',#253,#254,#27,.T.);
#196=EDGE_CURVE('',#254,#247,#292,.F.);
#197=EDGE_CURVE('NONE',#255,#246,#293,.T.);
#198=EDGE_CURVE('NONE',#256,#255,#294,.F.);
#199=EDGE_CURVE('NONE',#257,#256,#295,.F.);
#200=EDGE_CURVE('NONE',#258,#257,#296,.F.);
#201=EDGE_CURVE('NONE',#259,#258,#297,.F.);
#202=EDGE_CURVE('NONE',#260,#259,#28,.F.);
#203=EDGE_CURVE('NONE',#261,#260,#298,.F.);
#204=EDGE_CURVE('',#262,#261,#299,.T.);
#205=EDGE_CURVE('',#263,#262,#29,.T.);
#206=EDGE_CURVE('',#264,#263,#300,.T.);
#207=EDGE_CURVE('',#264,#253,#301,.T.);
#208=EDGE_CURVE('NONE',#265,#266,#302,.T.);
#209=EDGE_CURVE('NONE',#266,#259,#30,.T.);
#210=EDGE_CURVE('NONE',#258,#265,#31,.F.);
#211=EDGE_CURVE('NONE',#260,#267,#32,.T.);
#212=EDGE_CURVE('NONE',#267,#268,#303,.T.);
#213=EDGE_CURVE('NONE',#268,#261,#33,.F.);
#214=EDGE_CURVE('NONE',#269,#269,#304,.T.);
#215=EDGE_CURVE('NONE',#270,#270,#305,.F.);
#216=EDGE_CURVE('NONE',#271,#271,#306,.T.);
#217=EDGE_CURVE('NONE',#272,#272,#307,.F.);
#218=EDGE_CURVE('NONE',#273,#273,#308,.F.);
#219=EDGE_CURVE('NONE',#274,#274,#309,.F.);
#220=EDGE_CURVE('NONE',#275,#275,#310,.F.);
#221=EDGE_CURVE('NONE',#276,#276,#311,.F.);
#222=EDGE_CURVE('NONE',#277,#277,#312,.F.);
#223=EDGE_CURVE('NONE',#250,#278,#34,.T.);
#224=EDGE_CURVE('NONE',#278,#279,#313,.F.);
#225=EDGE_CURVE('NONE',#251,#279,#35,.F.);
#226=EDGE_CURVE('NONE',#278,#279,#36,.F.);
#227=EDGE_CURVE('',#248,#280,#314,.F.);
#228=EDGE_CURVE('',#281,#280,#37,.T.);
#229=EDGE_CURVE('',#281,#282,#315,.T.);
#230=EDGE_CURVE('',#282,#283,#316,.T.);
#231=EDGE_CURVE('',#283,#284,#38,.T.);
#232=EDGE_CURVE('',#284,#268,#317,.T.);
#233=EDGE_CURVE('NONE',#267,#266,#39,.T.);
#234=EDGE_CURVE('NONE',#265,#285,#318,.F.);
#235=EDGE_CURVE('NONE',#286,#285,#319,.T.);
#236=EDGE_CURVE('NONE',#287,#286,#320,.T.);
#237=EDGE_CURVE('NONE',#249,#287,#321,.F.);
#238=EDGE_CURVE('NONE',#285,#257,#40,.F.);
#239=EDGE_CURVE('',#262,#284,#41,.T.);
#240=EDGE_CURVE('NONE',#287,#255,#42,.T.);
#241=EDGE_CURVE('NONE',#256,#286,#43,.T.);
#242=EDGE_CURVE('',#263,#283,#44,.T.);
#243=EDGE_CURVE('',#282,#264,#45,.F.);
#244=EDGE_CURVE('',#280,#254,#46,.F.);
#245=EDGE_CURVE('',#253,#281,#47,.T.);
#246=VERTEX_POINT('',#674);
#247=VERTEX_POINT('',#675);
#248=VERTEX_POINT('',#677);
#249=VERTEX_POINT('',#679);
#250=VERTEX_POINT('',#683);
#251=VERTEX_POINT('',#684);
#252=VERTEX_POINT('',#687);
#253=VERTEX_POINT('',#689);
#254=VERTEX_POINT('',#690);
#255=VERTEX_POINT('',#693);
#256=VERTEX_POINT('',#695);
#257=VERTEX_POINT('',#697);
#258=VERTEX_POINT('',#699);
#259=VERTEX_POINT('',#701);
#260=VERTEX_POINT('',#703);
#261=VERTEX_POINT('',#705);
#262=VERTEX_POINT('',#707);
#263=VERTEX_POINT('',#709);
#264=VERTEX_POINT('',#711);
#265=VERTEX_POINT('',#715);
#266=VERTEX_POINT('',#716);
#267=VERTEX_POINT('',#721);
#268=VERTEX_POINT('',#723);
#269=VERTEX_POINT('',#727);
#270=VERTEX_POINT('',#729);
#271=VERTEX_POINT('',#732);
#272=VERTEX_POINT('',#734);
#273=VERTEX_POINT('',#737);
#274=VERTEX_POINT('',#739);
#275=VERTEX_POINT('',#742);
#276=VERTEX_POINT('',#745);
#277=VERTEX_POINT('',#748);
#278=VERTEX_POINT('',#751);
#279=VERTEX_POINT('',#753);
#280=VERTEX_POINT('',#759);
#281=VERTEX_POINT('',#761);
#282=VERTEX_POINT('',#763);
#283=VERTEX_POINT('',#765);
#284=VERTEX_POINT('',#767);
#285=VERTEX_POINT('',#771);
#286=VERTEX_POINT('',#773);
#287=VERTEX_POINT('',#775);
#288=CIRCLE('',#460,0.007);
#289=CIRCLE('',#461,0.007);
#290=CIRCLE('',#463,0.003);
#291=CIRCLE('',#464,0.0019);
#292=CIRCLE('',#465,0.0003);
#293=CIRCLE('',#466,0.001);
#294=CIRCLE('',#467,0.0031);
#295=CIRCLE('',#468,0.001);
#296=CIRCLE('',#469,0.007);
#297=CIRCLE('',#470,0.0003);
#298=CIRCLE('',#471,0.0003);
#299=CIRCLE('',#472,0.0044);
#300=CIRCLE('',#473,0.0043983036846539);
#301=CIRCLE('',#474,0.0003);
#302=CIRCLE('',#476,0.0003);
#303=CIRCLE('',#478,0.0003);
#304=CIRCLE('',#480,0.00194641016151379);
#305=CIRCLE('',#481,0.0016);
#306=CIRCLE('',#483,0.00324641016151378);
#307=CIRCLE('',#484,0.0029);
#308=CIRCLE('',#486,0.00155);
#309=CIRCLE('',#487,0.00155);
#310=CIRCLE('',#489,0.0019);
#311=CIRCLE('',#491,0.0016);
#312=CIRCLE('',#493,0.0029);
#313=CIRCLE('',#495,0.003);
#314=CIRCLE('',#498,0.0003);
#315=CIRCLE('',#499,0.0003);
#316=CIRCLE('',#500,0.0043983036846539);
#317=CIRCLE('',#501,0.0044);
#318=CIRCLE('',#502,0.007);
#319=CIRCLE('',#503,0.001);
#320=CIRCLE('',#504,0.0031);
#321=CIRCLE('',#505,0.001);
#322=EDGE_LOOP('',(#72,#73,#74,#75));
#323=EDGE_LOOP('',(#76,#77));
#324=EDGE_LOOP('',(#78));
#325=EDGE_LOOP('',(#79,#80,#81,#82,#83,#84,#85,#86,#87,#88,#89,#90,#91,
#92));
#326=EDGE_LOOP('',(#93,#94,#95,#96));
#327=EDGE_LOOP('',(#97,#98,#99,#100));
#328=EDGE_LOOP('',(#101));
#329=EDGE_LOOP('',(#102));
#330=EDGE_LOOP('',(#103));
#331=EDGE_LOOP('',(#104));
#332=EDGE_LOOP('',(#105));
#333=EDGE_LOOP('',(#106));
#334=EDGE_LOOP('',(#107));
#335=EDGE_LOOP('',(#108));
#336=EDGE_LOOP('',(#109));
#337=EDGE_LOOP('',(#110));
#338=EDGE_LOOP('',(#111));
#339=EDGE_LOOP('',(#112));
#340=EDGE_LOOP('',(#113,#114,#115,#116));
#341=EDGE_LOOP('',(#117));
#342=EDGE_LOOP('',(#118,#119));
#343=EDGE_LOOP('',(#120,#121,#122,#123,#124,#125,#126,#127,#128,#129,#130,
#131,#132,#133));
#344=EDGE_LOOP('',(#134));
#345=EDGE_LOOP('',(#135,#136,#137,#138));
#346=EDGE_LOOP('',(#139));
#347=EDGE_LOOP('',(#140));
#348=EDGE_LOOP('',(#141,#142,#143,#144));
#349=EDGE_LOOP('',(#145,#146,#147,#148));
#350=EDGE_LOOP('',(#149,#150,#151,#152));
#351=EDGE_LOOP('',(#153));
#352=EDGE_LOOP('',(#154));
#353=EDGE_LOOP('',(#155));
#354=EDGE_LOOP('',(#156,#157,#158,#159));
#355=EDGE_LOOP('',(#160,#161,#162,#163));
#356=EDGE_LOOP('',(#164,#165,#166,#167));
#357=EDGE_LOOP('',(#168,#169,#170,#171));
#358=EDGE_LOOP('',(#172,#173,#174,#175));
#359=EDGE_LOOP('',(#176,#177,#178,#179));
#360=EDGE_LOOP('',(#180,#181,#182,#183));
#361=EDGE_LOOP('',(#184,#185,#186,#187));
#362=FACE_BOUND('',#322,.T.);
#363=FACE_BOUND('',#323,.T.);
#364=FACE_BOUND('',#324,.T.);
#365=FACE_BOUND('',#325,.T.);
#366=FACE_BOUND('',#326,.T.);
#367=FACE_BOUND('',#327,.T.);
#368=FACE_BOUND('',#328,.T.);
#369=FACE_BOUND('',#329,.T.);
#370=FACE_BOUND('',#330,.T.);
#371=FACE_BOUND('',#331,.T.);
#372=FACE_BOUND('',#332,.T.);
#373=FACE_BOUND('',#333,.T.);
#374=FACE_BOUND('',#334,.T.);
#375=FACE_BOUND('',#335,.T.);
#376=FACE_BOUND('',#336,.T.);
#377=FACE_BOUND('',#337,.T.);
#378=FACE_BOUND('',#338,.T.);
#379=FACE_BOUND('',#339,.T.);
#380=FACE_BOUND('',#340,.T.);
#381=FACE_BOUND('',#341,.T.);
#382=FACE_BOUND('',#342,.T.);
#383=FACE_BOUND('',#343,.T.);
#384=FACE_BOUND('',#344,.T.);
#385=FACE_BOUND('',#345,.T.);
#386=FACE_BOUND('',#346,.T.);
#387=FACE_BOUND('',#347,.T.);
#388=FACE_BOUND('',#348,.T.);
#389=FACE_BOUND('',#349,.T.);
#390=FACE_BOUND('',#350,.T.);
#391=FACE_BOUND('',#351,.T.);
#392=FACE_BOUND('',#352,.T.);
#393=FACE_BOUND('',#353,.T.);
#394=FACE_BOUND('',#354,.T.);
#395=FACE_BOUND('',#355,.T.);
#396=FACE_BOUND('',#356,.T.);
#397=FACE_BOUND('',#357,.T.);
#398=FACE_BOUND('',#358,.T.);
#399=FACE_BOUND('',#359,.T.);
#400=FACE_BOUND('',#360,.T.);
#401=FACE_BOUND('',#361,.T.);
#402=CYLINDRICAL_SURFACE('',#459,0.007);
#403=CYLINDRICAL_SURFACE('',#475,0.0003);
#404=CYLINDRICAL_SURFACE('',#477,0.0003);
#405=CYLINDRICAL_SURFACE('',#485,0.00155);
#406=CYLINDRICAL_SURFACE('',#488,0.0019);
#407=CYLINDRICAL_SURFACE('',#490,0.0016);
#408=CYLINDRICAL_SURFACE('',#492,0.0029);
#409=CYLINDRICAL_SURFACE('',#494,0.003);
#410=CYLINDRICAL_SURFACE('',#506,0.007);
#411=CYLINDRICAL_SURFACE('',#508,0.0044);
#412=CYLINDRICAL_SURFACE('',#510,0.0031);
#413=CYLINDRICAL_SURFACE('',#513,0.001);
#414=CYLINDRICAL_SURFACE('',#514,0.001);
#415=CYLINDRICAL_SURFACE('',#517,0.0043983036846539);
#416=CYLINDRICAL_SURFACE('',#519,0.0003);
#417=CYLINDRICAL_SURFACE('',#520,0.0003);
#418=ADVANCED_FACE('',(#362),#402,.T.);
#419=ADVANCED_FACE('',(#363,#364,#365),#14,.F.);
#420=ADVANCED_FACE('NONE',(#366),#403,.T.);
#421=ADVANCED_FACE('NONE',(#367),#404,.F.);
#422=ADVANCED_FACE('NONE',(#368,#369),#12,.F.);
#423=ADVANCED_FACE('NONE',(#370,#371),#13,.F.);
#424=ADVANCED_FACE('NONE',(#372,#373),#405,.F.);
#425=ADVANCED_FACE('NONE',(#374,#375),#406,.F.);
#426=ADVANCED_FACE('NONE',(#376,#377),#407,.F.);
#427=ADVANCED_FACE('NONE',(#378,#379),#408,.F.);
#428=ADVANCED_FACE('NONE',(#380),#409,.T.);
#429=ADVANCED_FACE('NONE',(#381,#382),#15,.F.);
#430=ADVANCED_FACE('NONE',(#383,#384),#16,.F.);
#431=ADVANCED_FACE('NONE',(#385),#410,.T.);
#432=ADVANCED_FACE('NONE',(#386,#387),#17,.F.);
#433=ADVANCED_FACE('NONE',(#388),#411,.T.);
#434=ADVANCED_FACE('NONE',(#389),#18,.F.);
#435=ADVANCED_FACE('NONE',(#390),#412,.T.);
#436=ADVANCED_FACE('NONE',(#391,#392),#19,.T.);
#437=ADVANCED_FACE('NONE',(#393),#20,.T.);
#438=ADVANCED_FACE('NONE',(#394),#413,.F.);
#439=ADVANCED_FACE('NONE',(#395),#414,.F.);
#440=ADVANCED_FACE('NONE',(#396),#21,.F.);
#441=ADVANCED_FACE('',(#397),#22,.T.);
#442=ADVANCED_FACE('',(#398),#415,.T.);
#443=ADVANCED_FACE('',(#399),#23,.F.);
#444=ADVANCED_FACE('',(#400),#416,.T.);
#445=ADVANCED_FACE('',(#401),#417,.F.);
#446=CLOSED_SHELL('',(#418,#419,#420,#421,#422,#423,#424,#425,#426,#427,
#428,#429,#430,#431,#432,#433,#434,#435,#436,#437,#438,#439,#440,#441,#442,
#443,#444,#445));
#447=STYLED_ITEM('',(#448),#455);
#448=PRESENTATION_STYLE_ASSIGNMENT((#449));
#449=SURFACE_STYLE_USAGE(.BOTH.,#450);
#450=SURFACE_SIDE_STYLE('',(#451));
#451=SURFACE_STYLE_FILL_AREA(#452);
#452=FILL_AREA_STYLE('',(#453));
#453=FILL_AREA_STYLE_COLOUR('',#454);
#454=COLOUR_RGB('',0.792156862745098,0.819607843137255,0.933333333333333);
#455=MANIFOLD_SOLID_BREP('Kick-Stand-Peg-R__Mirror2',#446);
#456=SHAPE_DEFINITION_REPRESENTATION(#806,#457);
#457=SHAPE_REPRESENTATION('Kick-Stand-Peg-R__Mirror2',(#458),#801);
#458=AXIS2_PLACEMENT_3D('',#671,#521,#522);
#459=AXIS2_PLACEMENT_3D('',#672,#523,#524);
#460=AXIS2_PLACEMENT_3D('',#673,#525,#526);
#461=AXIS2_PLACEMENT_3D('',#678,#528,#529);
#462=AXIS2_PLACEMENT_3D('',#681,#531,#532);
#463=AXIS2_PLACEMENT_3D('',#685,#534,#535);
#464=AXIS2_PLACEMENT_3D('',#686,#536,#537);
#465=AXIS2_PLACEMENT_3D('',#691,#539,#540);
#466=AXIS2_PLACEMENT_3D('',#692,#541,#542);
#467=AXIS2_PLACEMENT_3D('',#694,#543,#544);
#468=AXIS2_PLACEMENT_3D('',#696,#545,#546);
#469=AXIS2_PLACEMENT_3D('',#698,#547,#548);
#470=AXIS2_PLACEMENT_3D('',#700,#549,#550);
#471=AXIS2_PLACEMENT_3D('',#704,#552,#553);
#472=AXIS2_PLACEMENT_3D('',#706,#554,#555);
#473=AXIS2_PLACEMENT_3D('',#710,#557,#558);
#474=AXIS2_PLACEMENT_3D('',#712,#559,#560);
#475=AXIS2_PLACEMENT_3D('',#713,#561,#562);
#476=AXIS2_PLACEMENT_3D('',#714,#563,#564);
#477=AXIS2_PLACEMENT_3D('',#719,#567,#568);
#478=AXIS2_PLACEMENT_3D('',#722,#570,#571);
#479=AXIS2_PLACEMENT_3D('',#725,#573,#574);
#480=AXIS2_PLACEMENT_3D('',#726,#575,#576);
#481=AXIS2_PLACEMENT_3D('',#728,#577,#578);
#482=AXIS2_PLACEMENT_3D('',#730,#579,#580);
#483=AXIS2_PLACEMENT_3D('',#731,#581,#582);
#484=AXIS2_PLACEMENT_3D('',#733,#583,#584);
#485=AXIS2_PLACEMENT_3D('',#735,#585,#586);
#486=AXIS2_PLACEMENT_3D('',#736,#587,#588);
#487=AXIS2_PLACEMENT_3D('',#738,#589,#590);
#488=AXIS2_PLACEMENT_3D('',#740,#591,#592);
#489=AXIS2_PLACEMENT_3D('',#741,#593,#594);
#490=AXIS2_PLACEMENT_3D('',#743,#595,#596);
#491=AXIS2_PLACEMENT_3D('',#744,#597,#598);
#492=AXIS2_PLACEMENT_3D('',#746,#599,#600);
#493=AXIS2_PLACEMENT_3D('',#747,#601,#602);
#494=AXIS2_PLACEMENT_3D('',#749,#603,#604);
#495=AXIS2_PLACEMENT_3D('',#752,#606,#607);
#496=AXIS2_PLACEMENT_3D('',#755,#609,#610);
#497=AXIS2_PLACEMENT_3D('',#757,#612,#613);
#498=AXIS2_PLACEMENT_3D('',#758,#614,#615);
#499=AXIS2_PLACEMENT_3D('',#762,#617,#618);
#500=AXIS2_PLACEMENT_3D('',#764,#619,#620);
#501=AXIS2_PLACEMENT_3D('',#768,#622,#623);
#502=AXIS2_PLACEMENT_3D('',#770,#625,#626);
#503=AXIS2_PLACEMENT_3D('',#772,#627,#628);
#504=AXIS2_PLACEMENT_3D('',#774,#629,#630);
#505=AXIS2_PLACEMENT_3D('',#776,#631,#632);
#506=AXIS2_PLACEMENT_3D('',#777,#633,#634);
#507=AXIS2_PLACEMENT_3D('',#779,#636,#637);
#508=AXIS2_PLACEMENT_3D('',#780,#638,#639);
#509=AXIS2_PLACEMENT_3D('',#782,#641,#642);
#510=AXIS2_PLACEMENT_3D('',#783,#643,#644);
#511=AXIS2_PLACEMENT_3D('',#786,#647,#648);
#512=AXIS2_PLACEMENT_3D('',#787,#649,#650);
#513=AXIS2_PLACEMENT_3D('',#788,#651,#652);
#514=AXIS2_PLACEMENT_3D('',#789,#653,#654);
#515=AXIS2_PLACEMENT_3D('',#790,#655,#656);
#516=AXIS2_PLACEMENT_3D('',#791,#657,#658);
#517=AXIS2_PLACEMENT_3D('',#793,#660,#661);
#518=AXIS2_PLACEMENT_3D('',#795,#663,#664);
#519=AXIS2_PLACEMENT_3D('',#798,#667,#668);
#520=AXIS2_PLACEMENT_3D('',#799,#669,#670);
#521=DIRECTION('',(0.,0.,1.));
#522=DIRECTION('',(1.,0.,0.));
#523=DIRECTION('',(-1.,0.,0.));
#524=DIRECTION('',(0.,0.,-1.));
#525=DIRECTION('',(-1.,0.,0.));
#526=DIRECTION('',(0.,0.,1.));
#527=DIRECTION('',(-1.,0.,0.));
#528=DIRECTION('',(-1.,0.,0.));
#529=DIRECTION('',(0.,0.,1.));
#530=DIRECTION('',(-1.,0.,0.));
#531=DIRECTION('',(1.,0.,0.));
#532=DIRECTION('',(0.,0.,1.));
#533=DIRECTION('',(0.,-1.44882609551313E-16,-1.));
#534=DIRECTION('',(-1.,0.,0.));
#535=DIRECTION('',(0.,0.,1.));
#536=DIRECTION('',(-1.,0.,0.));
#537=DIRECTION('',(0.,0.,1.));
#538=DIRECTION('',(0.,-0.55733293907743,-0.830289103276271));
#539=DIRECTION('',(1.,0.,0.));
#540=DIRECTION('',(0.,0.,-1.));
#541=DIRECTION('',(-1.,0.,0.));
#542=DIRECTION('',(0.,0.,1.));
#543=DIRECTION('',(-1.,0.,0.));
#544=DIRECTION('',(0.,0.,1.));
#545=DIRECTION('',(1.,0.,0.));
#546=DIRECTION('',(0.,0.,-1.));
#547=DIRECTION('',(-1.,0.,0.));
#548=DIRECTION('',(0.,0.,1.));
#549=DIRECTION('',(-1.,0.,0.));
#550=DIRECTION('',(0.,0.,1.));
#551=DIRECTION('',(0.,-0.258819045102515,0.96592582628907));
#552=DIRECTION('',(1.,0.,0.));
#553=DIRECTION('',(0.,0.,-1.));
#554=DIRECTION('',(1.,0.,0.));
#555=DIRECTION('',(0.,0.,-1.));
#556=DIRECTION('',(0.,-0.0936140051350669,-0.995608566677975));
#557=DIRECTION('',(1.,0.,0.));
#558=DIRECTION('',(0.,0.,-1.));
#559=DIRECTION('',(1.,0.,0.));
#560=DIRECTION('',(0.,0.,-1.));
#561=DIRECTION('',(-1.,0.,0.));
#562=DIRECTION('',(0.,0.,-1.));
#563=DIRECTION('',(-1.,0.,0.));
#564=DIRECTION('',(0.,0.,1.));
#565=DIRECTION('',(-1.,0.,0.));
#566=DIRECTION('',(-1.,0.,0.));
#567=DIRECTION('',(1.,0.,0.));
#568=DIRECTION('',(0.,0.,1.));
#569=DIRECTION('',(1.,0.,0.));
#570=DIRECTION('',(1.,0.,0.));
#571=DIRECTION('',(0.,0.,-1.));
#572=DIRECTION('',(1.,0.,0.));
#573=DIRECTION('',(1.,0.,0.));
#574=DIRECTION('',(0.,0.,1.));
#575=DIRECTION('',(1.,0.,0.));
#576=DIRECTION('',(0.,0.,-1.));
#577=DIRECTION('',(1.,0.,0.));
#578=DIRECTION('',(0.,0.,-1.));
#579=DIRECTION('',(1.,0.,0.));
#580=DIRECTION('',(0.,0.,1.));
#581=DIRECTION('',(1.,0.,0.));
#582=DIRECTION('',(0.,0.,-1.));
#583=DIRECTION('',(1.,0.,0.));
#584=DIRECTION('',(0.,0.,-1.));
#585=DIRECTION('',(-1.,0.,0.));
#586=DIRECTION('',(0.,0.,-1.));
#587=DIRECTION('',(-1.,0.,0.));
#588=DIRECTION('',(0.,0.,1.));
#589=DIRECTION('',(-1.,0.,0.));
#590=DIRECTION('',(0.,0.,1.));
#591=DIRECTION('',(-1.,0.,0.));
#592=DIRECTION('',(0.,0.,-1.));
#593=DIRECTION('',(-1.,0.,0.));
#594=DIRECTION('',(0.,0.,1.));
#595=DIRECTION('',(-1.,0.,0.));
#596=DIRECTION('',(0.,0.,-1.));
#597=DIRECTION('',(-1.,0.,0.));
#598=DIRECTION('',(0.,0.,1.));
#599=DIRECTION('',(-1.,0.,0.));
#600=DIRECTION('',(0.,0.,-1.));
#601=DIRECTION('',(-1.,0.,0.));
#602=DIRECTION('',(0.,0.,1.));
#603=DIRECTION('',(-1.,0.,0.));
#604=DIRECTION('',(0.,0.,-1.));
#605=DIRECTION('',(-1.,0.,0.));
#606=DIRECTION('',(-1.,0.,0.));
#607=DIRECTION('',(0.,0.,1.));
#608=DIRECTION('',(1.,0.,0.));
#609=DIRECTION('',(1.,0.,0.));
#610=DIRECTION('',(0.,0.,1.));
#611=DIRECTION('',(0.,0.,1.));
#612=DIRECTION('',(-1.,0.,0.));
#613=DIRECTION('',(0.,0.,-1.));
#614=DIRECTION('',(-1.,0.,0.));
#615=DIRECTION('',(0.,0.,1.));
#616=DIRECTION('',(0.,-0.55733293907743,-0.830289103276271));
#617=DIRECTION('',(-1.,0.,0.));
#618=DIRECTION('',(0.,0.,1.));
#619=DIRECTION('',(1.,0.,0.));
#620=DIRECTION('',(0.,0.,-1.));
#621=DIRECTION('',(0.,-0.0936140051350669,-0.995608566677975));
#622=DIRECTION('',(1.,0.,0.));
#623=DIRECTION('',(0.,0.,-1.));
#624=DIRECTION('',(0.,0.258819045102513,-0.96592582628907));
#625=DIRECTION('',(-1.,0.,0.));
#626=DIRECTION('',(0.,0.,1.));
#627=DIRECTION('',(1.,0.,0.));
#628=DIRECTION('',(0.,0.,-1.));
#629=DIRECTION('',(-1.,0.,0.));
#630=DIRECTION('',(0.,0.,1.));
#631=DIRECTION('',(-1.,0.,0.));
#632=DIRECTION('',(0.,0.,1.));
#633=DIRECTION('',(-1.,0.,0.));
#634=DIRECTION('',(0.,0.,-1.));
#635=DIRECTION('',(1.,0.,0.));
#636=DIRECTION('',(-1.,0.,0.));
#637=DIRECTION('',(0.,0.,-1.));
#638=DIRECTION('',(1.,0.,0.));
#639=DIRECTION('',(0.,0.,1.));
#640=DIRECTION('',(1.,0.,0.));
#641=DIRECTION('',(0.,0.96592582628907,0.258819045102515));
#642=DIRECTION('',(0.,-0.258819045102515,0.96592582628907));
#643=DIRECTION('',(-1.,0.,0.));
#644=DIRECTION('',(0.,0.,-1.));
#645=DIRECTION('',(-1.,0.,0.));
#646=DIRECTION('',(1.,0.,0.));
#647=DIRECTION('',(-1.,0.,0.));
#648=DIRECTION('',(0.,0.,-1.));
#649=DIRECTION('',(-1.,0.,0.));
#650=DIRECTION('',(0.,0.,-1.));
#651=DIRECTION('',(1.,0.,0.));
#652=DIRECTION('',(0.,0.,1.));
#653=DIRECTION('',(-1.,0.,0.));
#654=DIRECTION('',(0.,0.,-1.));
#655=DIRECTION('',(0.,-1.,1.44882609551313E-16));
#656=DIRECTION('',(0.,-1.44882609551313E-16,-1.));
#657=DIRECTION('',(0.,-0.995608566677975,0.0936140051350669));
#658=DIRECTION('',(0.,-0.0936140051350669,-0.995608566677975));
#659=DIRECTION('',(1.,0.,0.));
#660=DIRECTION('',(1.,0.,0.));
#661=DIRECTION('',(0.,0.,-1.));
#662=DIRECTION('',(1.,0.,0.));
#663=DIRECTION('',(0.,-0.830289103276271,0.55733293907743));
#664=DIRECTION('',(0.,-0.55733293907743,-0.830289103276271));
#665=DIRECTION('',(1.,0.,0.));
#666=DIRECTION('',(1.,0.,0.));
#667=DIRECTION('',(-1.,0.,0.));
#668=DIRECTION('',(0.,0.,1.));
#669=DIRECTION('',(1.,0.,0.));
#670=DIRECTION('',(0.,0.,-1.));
#671=CARTESIAN_POINT('',(0.,0.,0.));
#672=CARTESIAN_POINT('',(-0.097293,1.04083408558608E-17,-0.03628));
#673=CARTESIAN_POINT('',(-0.088293,1.04083408558608E-17,-0.03628));
#674=CARTESIAN_POINT('',(-0.088293,-0.00295150492793169,-0.029932668382667));
#675=CARTESIAN_POINT('',(-0.088293,-0.00415765758900044,-0.0419115080904343));
#676=CARTESIAN_POINT('',(-0.097293,-0.00415765758900045,-0.0419115080904343));
#677=CARTESIAN_POINT('',(-0.080193,-0.00415765758900044,-0.0419115080904343));
#678=CARTESIAN_POINT('',(-0.080193,1.04083408558608E-17,-0.03628));
#679=CARTESIAN_POINT('',(-0.080193,-0.00295150492793169,-0.029932668382667));
#680=CARTESIAN_POINT('',(-0.0714248759132868,-0.00295150492793169,-0.029932668382667));
#681=CARTESIAN_POINT('',(-0.088293,0.007,-0.03628));
#682=CARTESIAN_POINT('',(-0.088293,0.0026,-0.0347833370452904));
#683=CARTESIAN_POINT('',(-0.088293,0.0026,-0.0347833370452904));
#684=CARTESIAN_POINT('',(-0.088293,0.0026,-0.0377766629547096));
#685=CARTESIAN_POINT('',(-0.088293,1.04083408558608E-17,-0.03628));
#686=CARTESIAN_POINT('',(-0.088293,0.000522934456485915,-0.0303028318114495));
#687=CARTESIAN_POINT('',(-0.088293,0.000522934456485915,-0.0284028318114495));
#688=CARTESIAN_POINT('',(-0.088293,0.00217434003486481,-0.0330407677365095));
#689=CARTESIAN_POINT('',(-0.088293,-0.00261317585597601,-0.0401729897840832));
#690=CARTESIAN_POINT('',(-0.088293,-0.00373038553277469,-0.0418373576254246));
#691=CARTESIAN_POINT('',(-0.088293,-0.00397947226375757,-0.0416701577437014));
#692=CARTESIAN_POINT('',(-0.088293,-0.00337314848906479,-0.029025906723048));
#693=CARTESIAN_POINT('',(-0.088293,-0.00242288435600365,-0.0293373518665606));
#694=CARTESIAN_POINT('',(-0.088293,0.000522934456485915,-0.0303028318114495));
#695=CARTESIAN_POINT('',(-0.088293,0.00359165349499878,-0.0298635557448708));
#696=CARTESIAN_POINT('',(-0.088293,0.00458156286226099,-0.0297218537879099));
#697=CARTESIAN_POINT('',(-0.088293,0.00400886750447836,-0.0305416220644213));
#698=CARTESIAN_POINT('',(-0.088293,1.04083408558608E-17,-0.03628));
#699=CARTESIAN_POINT('',(-0.088293,0.00205196725356365,-0.0429724905969529));
#700=CARTESIAN_POINT('',(-0.088293,0.0019640257998395,-0.0426856695713691));
#701=CARTESIAN_POINT('',(-0.088293,0.00167424805195278,-0.0427633152848999));
#702=CARTESIAN_POINT('',(-0.088293,0.00194666790032091,-0.04378));
#703=CARTESIAN_POINT('',(-0.088293,0.00115412569693892,-0.0408221922298358));
#704=CARTESIAN_POINT('',(-0.088293,0.000864347949052203,-0.0408998379433666));
#705=CARTESIAN_POINT('',(-0.088293,0.00080917680336802,-0.0406049546703857));
#706=CARTESIAN_POINT('',(-0.088293,1.04083408558608E-17,-0.03628));
#707=CARTESIAN_POINT('',(-0.088293,-0.000411901622594284,-0.0406606776933831));
#708=CARTESIAN_POINT('',(-0.088293,6.13450737020089E-5,-0.0356275796616854));
#709=CARTESIAN_POINT('',(-0.088293,-0.000411742823720764,-0.0406589888272927));
#710=CARTESIAN_POINT('',(-0.088293,1.9895109865109E-17,-0.03628));
#711=CARTESIAN_POINT('',(-0.088293,-0.00221313533717934,-0.0400809350536109));
#712=CARTESIAN_POINT('',(-0.088293,-0.00236408912499312,-0.0403401896658065));
#713=CARTESIAN_POINT('',(-0.097293,0.0019640257998395,-0.0426856695713691));
#714=CARTESIAN_POINT('',(-0.080193,0.0019640257998395,-0.0426856695713691));
#715=CARTESIAN_POINT('',(-0.080193,0.00205196725356365,-0.0429724905969529));
#716=CARTESIAN_POINT('',(-0.080193,0.00167424805195278,-0.0427633152848999));
#717=CARTESIAN_POINT('',(-0.097293,0.00167424805195278,-0.0427633152848999));
#718=CARTESIAN_POINT('',(-0.097293,0.00205196725356365,-0.0429724905969529));
#719=CARTESIAN_POINT('',(-0.097293,0.000864347949052203,-0.0408998379433666));
#720=CARTESIAN_POINT('',(-0.097293,0.00115412569693892,-0.0408221922298358));
#721=CARTESIAN_POINT('',(-0.080193,0.00115412569693893,-0.0408221922298358));
#722=CARTESIAN_POINT('',(-0.080193,0.000864347949052203,-0.0408998379433666));
#723=CARTESIAN_POINT('',(-0.080193,0.00080917680336802,-0.0406049546703857));
#724=CARTESIAN_POINT('',(-0.097293,0.00080917680336802,-0.0406049546703857));
#725=CARTESIAN_POINT('',(-0.083393,1.04083408558608E-17,-0.03628));
#726=CARTESIAN_POINT('',(-0.083393,1.04083408558608E-17,-0.03628));
#727=CARTESIAN_POINT('',(-0.083393,1.04083408558608E-17,-0.0382264101615138));
#728=CARTESIAN_POINT('',(-0.083593,1.04083408558608E-17,-0.03628));
#729=CARTESIAN_POINT('',(-0.083593,1.04083408558608E-17,-0.03788));
#730=CARTESIAN_POINT('',(-0.080193,1.04083408558608E-17,-0.03628));
#731=CARTESIAN_POINT('',(-0.080193,1.04083408558608E-17,-0.03628));
#732=CARTESIAN_POINT('',(-0.080193,1.04083408558608E-17,-0.0395264101615138));
#733=CARTESIAN_POINT('',(-0.080393,1.04083408558608E-17,-0.03628));
#734=CARTESIAN_POINT('',(-0.080393,1.04083408558608E-17,-0.03918));
#735=CARTESIAN_POINT('',(-0.084093,0.000522934456485915,-0.0303028318114495));
#736=CARTESIAN_POINT('',(-0.087593,0.000522934456485915,-0.0303028318114495));
#737=CARTESIAN_POINT('',(-0.087593,0.000522934456485915,-0.0287528318114495));
#738=CARTESIAN_POINT('',(-0.084093,0.000522934456485915,-0.0303028318114495));
#739=CARTESIAN_POINT('',(-0.084093,0.000522934456485915,-0.0287528318114495));
#740=CARTESIAN_POINT('',(-0.087593,0.000522934456485915,-0.0303028318114495));
#741=CARTESIAN_POINT('',(-0.087593,0.000522934456485915,-0.0303028318114495));
#742=CARTESIAN_POINT('',(-0.087593,0.000522934456485915,-0.0284028318114495));
#743=CARTESIAN_POINT('',(-0.097293,1.04083408558608E-17,-0.03628));
#744=CARTESIAN_POINT('',(-0.092093,1.04083408558608E-17,-0.03628));
#745=CARTESIAN_POINT('',(-0.092093,1.04083408558608E-17,-0.03468));
#746=CARTESIAN_POINT('',(-0.097293,1.04083408558608E-17,-0.03628));
#747=CARTESIAN_POINT('',(-0.083393,1.04083408558608E-17,-0.03628));
#748=CARTESIAN_POINT('',(-0.083393,1.04083408558608E-17,-0.03338));
#749=CARTESIAN_POINT('',(-0.097293,1.04083408558608E-17,-0.03628));
#750=CARTESIAN_POINT('',(-0.097293,0.0026,-0.0347833370452904));
#751=CARTESIAN_POINT('',(-0.092093,0.0026,-0.0347833370452904));
#752=CARTESIAN_POINT('',(-0.092093,1.04083408558608E-17,-0.03628));
#753=CARTESIAN_POINT('',(-0.092093,0.0026,-0.0377766629547096));
#754=CARTESIAN_POINT('',(-0.0852730662258917,0.0026,-0.0377766629547096));
#755=CARTESIAN_POINT('',(-0.092093,0.0016,-0.03628));
#756=CARTESIAN_POINT('',(-0.092093,0.0026,-0.03628));
#757=CARTESIAN_POINT('',(-0.080193,0.0029,-0.03628));
#758=CARTESIAN_POINT('',(-0.080193,-0.00397947226375757,-0.0416701577437014));
#759=CARTESIAN_POINT('',(-0.080193,-0.00373038553277469,-0.0418373576254246));
#760=CARTESIAN_POINT('',(-0.080193,-0.00342156208570656,-0.0413772865889606));
#761=CARTESIAN_POINT('',(-0.080193,-0.00261317585597601,-0.0401729897840832));
#762=CARTESIAN_POINT('',(-0.080193,-0.00236408912499312,-0.0403401896658065));
#763=CARTESIAN_POINT('',(-0.080193,-0.00221313533717934,-0.0400809350536109));
#764=CARTESIAN_POINT('',(-0.080193,1.9895109865109E-17,-0.03628));
#765=CARTESIAN_POINT('',(-0.080193,-0.000411742823720764,-0.0406589888272927));
#766=CARTESIAN_POINT('',(-0.080193,-0.000574712363477908,-0.0423922110054879));
#767=CARTESIAN_POINT('',(-0.080193,-0.000411901622594284,-0.0406606776933831));
#768=CARTESIAN_POINT('',(-0.080193,1.04083408558608E-17,-0.03628));
#769=CARTESIAN_POINT('',(-0.080193,0.00115412569693892,-0.0408221922298358));
#770=CARTESIAN_POINT('',(-0.080193,1.04083408558608E-17,-0.03628));
#771=CARTESIAN_POINT('',(-0.080193,0.00400886750447836,-0.0305416220644213));
#772=CARTESIAN_POINT('',(-0.080193,0.00458156286226099,-0.0297218537879099));
#773=CARTESIAN_POINT('',(-0.080193,0.00359165349499878,-0.0298635557448708));
#774=CARTESIAN_POINT('',(-0.080193,0.000522934456485915,-0.0303028318114495));
#775=CARTESIAN_POINT('',(-0.080193,-0.00242288435600365,-0.0293373518665606));
#776=CARTESIAN_POINT('',(-0.080193,-0.00337314848906479,-0.029025906723048));
#777=CARTESIAN_POINT('',(-0.097293,1.04083408558608E-17,-0.03628));
#778=CARTESIAN_POINT('',(-0.0714248759132868,0.00400886750447836,-0.0305416220644213));
#779=CARTESIAN_POINT('',(-0.083393,0.0029,-0.03628));
#780=CARTESIAN_POINT('',(-0.097293,1.04083408558608E-17,-0.03628));
#781=CARTESIAN_POINT('',(-0.105193,-0.000411901622594284,-0.0406606776933831));
#782=CARTESIAN_POINT('',(-0.097293,0.00194666790032091,-0.04378));
#783=CARTESIAN_POINT('',(-0.0714248759132868,0.000522934456485915,-0.0303028318114495));
#784=CARTESIAN_POINT('',(-0.0714248759132868,-0.00242288435600365,-0.0293373518665606));
#785=CARTESIAN_POINT('',(-0.0714248759132868,0.00359165349499878,-0.0298635557448708));
#786=CARTESIAN_POINT('',(-0.087593,0.000522934456485915,-0.0303028318114495));
#787=CARTESIAN_POINT('',(-0.084093,0.000522934456485915,-0.0303028318114495));
#788=CARTESIAN_POINT('',(-0.0714248759132868,0.00458156286226099,-0.0297218537879099));
#789=CARTESIAN_POINT('',(-0.0714248759132868,-0.00337314848906479,-0.029025906723048));
#790=CARTESIAN_POINT('',(-0.0852730662258917,0.0026,-0.0347833370452904));
#791=CARTESIAN_POINT('',(-0.105193,-0.000574712363477908,-0.0423922110054879));
#792=CARTESIAN_POINT('',(-0.105193,-0.000411742823720764,-0.0406589888272927));
#793=CARTESIAN_POINT('',(-0.105193,1.9895109865109E-17,-0.03628));
#794=CARTESIAN_POINT('',(-0.105193,-0.00221313533717934,-0.0400809350536109));
#795=CARTESIAN_POINT('',(-0.105193,-0.00342156208570656,-0.0413772865889606));
#796=CARTESIAN_POINT('',(-0.088293,-0.00373038553277469,-0.0418373576254246));
#797=CARTESIAN_POINT('',(-0.105193,-0.00261317585597601,-0.0401729897840832));
#798=CARTESIAN_POINT('',(-0.097293,-0.00397947226375757,-0.0416701577437014));
#799=CARTESIAN_POINT('',(-0.105193,-0.00236408912499312,-0.0403401896658065));
#800=MECHANICAL_DESIGN_GEOMETRIC_PRESENTATION_REPRESENTATION('',(#447),
#801);
#801=(
GEOMETRIC_REPRESENTATION_CONTEXT(3)
GLOBAL_UNCERTAINTY_ASSIGNED_CONTEXT((#802))
GLOBAL_UNIT_ASSIGNED_CONTEXT((#805,#804,#803))
REPRESENTATION_CONTEXT('Kick-Stand-Peg-R__Mirror2',
'TOP_LEVEL_ASSEMBLY_PART')
);
#802=UNCERTAINTY_MEASURE_WITH_UNIT(LENGTH_MEASURE(1.E-8),#805,
'DISTANCE_ACCURACY_VALUE','Maximum Tolerance applied to model');
#803=(
NAMED_UNIT(*)
SI_UNIT($,.STERADIAN.)
SOLID_ANGLE_UNIT()
);
#804=(
NAMED_UNIT(*)
PLANE_ANGLE_UNIT()
SI_UNIT($,.RADIAN.)
);
#805=(
LENGTH_UNIT()
NAMED_UNIT(*)
SI_UNIT($,.METRE.)
);
#806=PRODUCT_DEFINITION_SHAPE('','',#807);
#807=PRODUCT_DEFINITION('','',#809,#808);
#808=PRODUCT_DEFINITION_CONTEXT('',#815,'design');
#809=PRODUCT_DEFINITION_FORMATION_WITH_SPECIFIED_SOURCE('','',#811,
 .NOT_KNOWN.);
#810=PRODUCT_RELATED_PRODUCT_CATEGORY('','',(#811));
#811=PRODUCT('Kick-Stand-Peg-R__Mirror2','Kick-Stand-Peg-R__Mirror2',
'Kick-Stand-Peg-R__Mirror2',(#813));
#812=PRODUCT_CATEGORY('','');
#813=PRODUCT_CONTEXT('',#815,'mechanical');
#814=APPLICATION_PROTOCOL_DEFINITION('international standard',
'ap242_managed_model_based_3d_engineering',2020,#815);
#815=APPLICATION_CONTEXT('managed model based 3d engineering');
ENDSEC;
END-ISO-10303-21;
